<svg xmlns="http://www.w3.org/2000/svg" width="1024" height="1024" viewBox="0 0 1024 1024" fill="none">
<path d="M789.333 0H234.667C105.064 0 0 105.064 0 234.667V789.333C0 918.936 105.064 1024 234.667 1024H789.333C918.936 1024 1024 918.936 1024 789.333V234.667C1024 105.064 918.936 0 789.333 0Z" fill="url(#paint0_radial_24_64)"/>
<path d="M776.579 338.755L792.327 300.174L747.709 253.982C723.563 229.836 672.122 244.009 672.122 244.009L613.857 177.87H408.355L349.828 244.271C349.828 244.271 298.387 230.361 274.241 253.982L229.623 299.912L245.371 338.492L225.687 395.708L291.3 645.827C304.948 699.368 314.134 720.102 352.715 747.397L472.657 828.758C484.205 835.844 498.377 848.18 511.237 848.18C524.098 848.18 538.27 835.844 549.818 828.758L669.76 747.397C708.341 720.102 717.527 699.368 731.175 645.827L796.788 395.708L776.579 338.755Z" fill="url(#paint1_linear_24_64)"/>
<path d="M655.85 286.526C655.85 286.526 731.175 377.598 731.175 396.758C731.175 416.442 721.727 421.428 712.278 431.664L655.85 492.029C650.601 497.278 639.316 506.201 645.877 521.686C652.438 537.433 661.624 556.855 651.126 576.802C640.628 597.011 622.256 610.396 610.446 608.296C592.879 602.595 576.119 594.656 560.579 584.675C550.606 578.114 518.586 551.606 518.586 541.37C518.586 531.134 551.656 512.5 557.955 508.826C563.991 504.626 592.074 488.354 592.599 482.055C593.124 475.756 593.124 474.182 584.725 458.434C576.327 442.687 561.629 421.691 563.729 408.043C566.353 394.395 589.974 387.047 607.559 380.485L661.887 360.014C666.086 357.914 665.036 356.077 652.438 354.765C639.841 353.715 604.409 348.991 588.399 353.452C572.39 357.914 545.619 364.738 542.995 368.412C540.895 372.087 538.796 372.087 541.158 384.685L556.38 467.358C557.43 477.856 559.529 484.942 548.506 487.567C536.958 490.191 517.799 494.653 511.238 494.653C504.676 494.653 485.255 490.191 473.969 487.567C462.684 484.942 464.783 477.856 466.096 467.358C467.145 456.86 478.693 397.02 481.055 384.685C483.68 372.087 481.318 372.087 479.218 368.412C476.594 364.738 449.561 357.914 433.551 353.452C417.804 348.991 382.11 353.715 369.512 355.027C356.914 356.077 355.864 357.652 360.064 360.276L414.392 380.485C431.714 387.047 455.86 394.395 458.222 408.043C460.846 421.953 445.886 442.687 437.225 458.434C428.564 474.182 428.827 475.756 429.352 482.055C429.877 488.354 458.222 504.626 463.996 508.826C470.295 512.763 503.364 531.134 503.364 541.37C503.364 551.606 472.132 578.114 461.634 584.675C446.094 594.656 429.334 602.595 411.767 608.296C399.957 610.396 381.585 597.011 370.824 576.802C360.326 556.855 369.775 537.433 376.073 521.686C382.635 505.939 371.612 497.54 366.1 492.029L309.672 431.664C300.486 421.953 291.038 416.704 291.038 397.282C291.038 377.861 366.363 287.051 366.363 287.051L438.013 298.599C446.411 298.599 465.046 291.513 482.105 285.477C499.165 280.228 510.975 279.703 510.975 279.703C510.975 279.703 522.523 279.703 539.845 285.477C557.167 291.251 575.539 298.599 583.938 298.599C592.599 298.599 656.113 286.264 656.113 286.264L655.85 286.526ZM599.423 635.067C604.147 637.691 601.26 643.465 596.798 646.615L530.134 698.581C524.885 703.83 516.487 711.703 510.975 711.703C505.464 711.703 497.328 703.83 491.816 698.581C469.72 680.986 447.41 663.663 424.89 646.615C420.691 643.465 417.804 637.954 422.266 635.067L461.634 614.07C477.283 605.793 493.841 599.363 510.975 594.911C514.912 594.911 539.845 603.834 560.054 614.07L599.423 635.067Z" fill="white"/>
<path d="M672.648 244.271L613.858 177.87H408.356L349.828 244.271C349.828 244.271 298.387 230.361 274.241 253.982C274.241 253.982 342.479 247.946 366.1 286.264L438.538 298.599C446.937 298.599 465.571 291.513 482.63 285.477C499.69 280.228 511.5 279.703 511.5 279.703C511.5 279.703 523.048 279.703 540.37 285.477C557.692 291.251 576.064 298.599 584.463 298.599C593.124 298.599 656.638 286.264 656.638 286.264C680.259 247.946 748.497 253.982 748.497 253.982C724.351 229.836 672.91 244.009 672.91 244.009" fill="url(#paint2_linear_24_64)"/>
<defs>
<radialGradient id="paint0_radial_24_64" cx="0" cy="0" r="1" gradientUnits="userSpaceOnUse" gradientTransform="translate(512 409.6) scale(819.2)">
<stop stop-color="#2F3242"/>
<stop offset="1" stop-color="#1C1E2B"/>
</radialGradient>
<linearGradient id="paint1_linear_24_64" x1="225.687" y1="519.728" x2="796.788" y2="519.728" gradientUnits="userSpaceOnUse">
<stop offset="0.4" stop-color="#FF5500"/>
<stop offset="0.6" stop-color="#FF2000"/>
</linearGradient>
<linearGradient id="paint2_linear_24_64" x1="283.726" y1="239.442" x2="748.497" y2="239.442" gradientUnits="userSpaceOnUse">
<stop stop-color="#FF452A"/>
<stop offset="1" stop-color="#FF2000"/>
</linearGradient>
</defs>
</svg>