<svg xmlns="http://www.w3.org/2000/svg" width="1024" height="1024" viewBox="0 0 1024 1024" fill="none">
<path d="M789.333 0H234.667C105.064 0 0 105.064 0 234.667V789.333C0 918.936 105.064 1024 234.667 1024H789.333C918.936 1024 1024 918.936 1024 789.333V234.667C1024 105.064 918.936 0 789.333 0Z" fill="url(#paint0_radial_48_523)"/>
<path d="M766.333 373.958C824.101 373.958 871.308 419.173 874.495 476.144L874.667 482.292V732.291C874.667 790.059 829.451 837.266 772.481 840.453L766.333 840.625H516.333C458.566 840.625 411.358 795.41 408.171 738.439L408 732.291V482.292C408 424.524 453.215 377.317 510.186 374.13L516.333 373.958H766.333ZM666.333 274C711.374 274 749.995 301.487 766.337 340.601L516.333 340.625C438.093 340.625 374.667 404.051 374.667 482.292L374.669 732.365C337.311 716.787 310.544 680.891 308.171 638.481L308 632.333V382.333C308 324.566 353.215 277.358 410.186 274.171L416.333 274H666.333ZM566.333 174C609.659 174 647.045 199.434 664.374 236.185L666.333 240.667H416.333L409.256 240.851C333.492 245.076 274.667 307.082 274.667 382.333L274.669 632.365C237.311 616.787 210.544 580.891 208.171 538.481L208 532.333V282.333C208 224.566 253.215 177.358 310.186 174.171L316.333 174H566.333Z" fill="url(#paint1_linear_48_523)"/>
<defs>
<radialGradient id="paint0_radial_48_523" cx="0" cy="0" r="1" gradientUnits="userSpaceOnUse" gradientTransform="translate(512 409.6) scale(819.2)">
<stop stop-color="#2F3242"/>
<stop offset="1" stop-color="#1C1E2B"/>
</radialGradient>
<linearGradient id="paint1_linear_48_523" x1="541.333" y1="174" x2="541.333" y2="840.625" gradientUnits="userSpaceOnUse">
<stop stop-color="white"/>
<stop offset="1" stop-color="#999999"/>
</linearGradient>
</defs>
</svg>