<svg xmlns="http://www.w3.org/2000/svg" width="1024" height="1024" viewBox="0 0 1024 1024" fill="none">
<path d="M789.333 0H234.667C105.064 0 0 105.064 0 234.667V789.333C0 918.936 105.064 1024 234.667 1024H789.333C918.936 1024 1024 918.936 1024 789.333V234.667C1024 105.064 918.936 0 789.333 0Z" fill="url(#paint0_radial_25_120)"/>
<g clip-path="url(#clip0_25_120)">
<path fill-rule="evenodd" clip-rule="evenodd" d="M511.5 186C691.826 186 838 335.861 838 520.758C838 668.63 744.556 794.072 614.903 838.378C598.349 841.676 592.472 831.222 592.472 822.308C592.472 811.273 592.864 775.228 592.864 730.432C592.864 699.219 582.416 678.847 570.695 668.464C643.406 660.171 719.807 631.861 719.807 503.285C719.807 466.717 707.139 436.877 686.177 413.434C689.573 404.978 700.772 370.928 682.978 324.826C682.978 324.826 655.617 315.856 593.288 359.15C567.201 351.739 539.253 348.01 511.5 347.879C483.748 348.01 455.832 351.739 429.777 359.15C367.383 315.856 339.957 324.826 339.957 324.826C322.228 370.928 333.427 404.978 336.79 413.434C315.927 436.877 303.16 466.717 303.16 503.285C303.16 631.534 379.398 660.279 451.914 668.735C442.576 677.094 434.12 691.839 431.181 713.486C412.571 722.04 365.293 736.845 336.169 685.682C336.169 685.682 318.898 653.518 286.117 651.167C286.117 651.167 254.283 650.744 283.897 671.509C283.897 671.509 305.283 681.794 320.138 720.484C320.138 720.484 339.304 780.233 430.136 759.99C430.3 787.971 430.593 814.342 430.593 822.308C430.593 831.156 424.586 841.512 408.293 838.41C278.542 794.169 185 668.663 185 520.758C185 335.861 331.207 186 511.5 186Z" fill="white"/>
</g>
<defs>
<radialGradient id="paint0_radial_25_120" cx="0" cy="0" r="1" gradientUnits="userSpaceOnUse" gradientTransform="translate(512 409.6) scale(819.2)">
<stop stop-color="#2F3242"/>
<stop offset="1" stop-color="#1C1E2B"/>
</radialGradient>
<clipPath id="clip0_25_120">
<rect width="653" height="653" fill="white" transform="translate(185 186)"/>
</clipPath>
</defs>
</svg>