<svg xmlns="http://www.w3.org/2000/svg" width="1024" height="1024" viewBox="0 0 1024 1024" fill="none">
<path d="M789.333 0H234.667C105.064 0 0 105.064 0 234.667V789.333C0 918.936 105.064 1024 234.667 1024H789.333C918.936 1024 1024 918.936 1024 789.333V234.667C1024 105.064 918.936 0 789.333 0Z" fill="url(#paint0_radial_24_63)"/>
<path d="M511.164 184.871C511.164 184.871 704.575 176.222 807.117 369.935H494.707C494.707 369.935 435.75 368.041 385.387 439.312C370.919 469.225 355.368 500.038 372.82 560.767C347.68 518.329 239.355 330.383 239.355 330.383C239.355 330.383 315.764 192.529 511.164 184.871Z" fill="#EF3F36"/>
<path d="M797.077 676.638C797.077 676.638 707.829 847.914 488.288 839.446C515.415 792.684 644.537 569.868 644.537 569.868C644.537 569.868 675.732 519.953 638.93 440.847C620.211 413.366 601.133 384.625 539.647 369.307C589.109 368.859 806.572 369.307 806.572 369.307C806.572 369.307 888.04 504.187 797.077 676.638Z" fill="#FCD900"/>
<path d="M226.606 677.981C226.606 677.981 122.349 515.35 239.535 330.107C266.572 376.87 395.693 599.685 395.693 599.685C395.693 599.685 423.544 651.583 510.619 659.329C543.806 656.896 578.346 654.824 622.474 609.506C598.146 652.394 489.007 839.8 489.007 839.8C489.007 839.8 330.953 842.683 226.606 677.981Z" fill="#61BC5B"/>
<path d="M363.959 514.989C363.959 434.441 429.515 369.12 510.351 369.12C591.187 369.12 656.744 434.441 656.744 514.989C656.744 595.537 591.187 660.857 510.351 660.857C429.515 660.768 363.959 595.537 363.959 514.989Z" fill="white"/>
<path d="M388.472 514.994C388.472 447.963 442.999 393.541 510.363 393.541C577.636 393.541 632.252 447.873 632.252 514.994C632.252 582.03 577.729 636.452 510.363 636.452C443.088 636.452 388.472 582.03 388.472 514.994Z" fill="url(#paint1_linear_24_63)"/>
<defs>
<radialGradient id="paint0_radial_24_63" cx="0" cy="0" r="1" gradientUnits="userSpaceOnUse" gradientTransform="translate(512 409.6) scale(819.2)">
<stop stop-color="#2F3242"/>
<stop offset="1" stop-color="#1C1E2B"/>
</radialGradient>
<linearGradient id="paint1_linear_24_63" x1="510.358" y1="395.256" x2="510.358" y2="629.139" gradientUnits="userSpaceOnUse">
<stop stop-color="#86BBE5"/>
<stop offset="1" stop-color="#1072BA"/>
</linearGradient>
</defs>
</svg>