<svg xmlns="http://www.w3.org/2000/svg" width="1024" height="1024" viewBox="0 0 1024 1024" fill="none">
<path d="M789.333 0H234.667C105.064 0 0 105.064 0 234.667V789.333C0 918.936 105.064 1024 234.667 1024H789.333C918.936 1024 1024 918.936 1024 789.333V234.667C1024 105.064 918.936 0 789.333 0Z" fill="url(#paint0_radial_25_121)"/>
<g clip-path="url(#clip0_25_121)">
<path fill-rule="evenodd" clip-rule="evenodd" d="M702.955 476.805C599.115 415.15 425.508 408.66 326.535 439.488C310.31 444.355 294.085 434.62 289.217 420.018C284.35 403.793 294.085 387.567 308.687 382.7C423.885 348.627 613.718 355.118 733.783 426.508C748.385 434.62 753.252 454.09 745.14 468.693C737.027 480.05 717.558 484.917 702.955 476.805ZM699.71 567.665C691.597 579.022 676.995 583.89 665.637 575.777C578.022 522.235 444.978 506.01 342.76 538.46C329.78 541.705 315.178 535.215 311.933 522.235C308.688 509.255 315.178 494.653 328.158 491.408C446.6 455.713 592.625 473.56 693.22 535.215C702.955 540.082 707.822 556.307 699.71 567.665ZM660.77 656.902C654.28 666.637 642.922 669.883 633.187 663.393C556.93 616.34 461.203 606.605 347.628 632.565C336.27 635.81 326.535 627.697 323.29 617.962C320.045 606.605 328.158 596.87 337.893 593.625C461.203 566.042 568.288 577.4 652.658 629.32C664.015 634.188 665.637 647.167 660.77 656.902ZM511.5 188C333.025 188 187 334.025 187 512.5C187 690.975 333.025 837 511.5 837C689.975 837 836 690.975 836 512.5C836 334.025 691.597 188 511.5 188Z" fill="#00DA5A"/>
</g>
<defs>
<radialGradient id="paint0_radial_25_121" cx="0" cy="0" r="1" gradientUnits="userSpaceOnUse" gradientTransform="translate(512 409.6) scale(819.2)">
<stop stop-color="#2F3242"/>
<stop offset="1" stop-color="#1C1E2B"/>
</radialGradient>
<clipPath id="clip0_25_121">
<rect width="649" height="649" fill="white" transform="translate(187 188)"/>
</clipPath>
</defs>
</svg>