<svg xmlns="http://www.w3.org/2000/svg" width="960" height="960" viewBox="0 0 960 960" fill="none">
<path d="M740 0C861.503 0 960 98.4974 960 220V740C960 861.503 861.503 960 740 960H220C98.4974 960 0 861.503 0 740V220C0 98.4974 98.4974 0 220 0H740Z" fill="url(#paint0_radial_8_64)"/>
<path d="M740 0C861.503 0 960 98.4974 960 220V740C960 861.503 861.503 960 740 960H220C98.4974 960 0 861.503 0 740V220C0 98.4974 98.4974 0 220 0H740Z" stroke="white"/>
<path d="M709.417 61C815.225 61.0002 901 146.775 901 252.583V705.417C901 811.225 815.225 897 709.417 897H256.583C150.775 897 65.0002 811.225 65 705.417V252.583C65.0002 146.775 150.775 61.0002 256.583 61H709.417Z" fill="black"/>
<path d="M709.417 61C815.225 61.0002 901 146.775 901 252.583V705.417C901 811.225 815.225 897 709.417 897H256.583C150.775 897 65.0002 811.225 65 705.417V252.583C65.0002 146.775 150.775 61.0002 256.583 61H709.417Z" stroke="black"/>
<path d="M307.56 308.08L193.213 366.318V343.591L280.926 301.332L280.216 302.753V299.202L280.926 300.622L193.213 258.364V235.636L307.56 293.875V308.08Z" fill="white"/>
<path d="M564 356H396C387.163 356 380 363.163 380 372C380 380.837 387.163 388 396 388H564C572.837 388 580 380.837 580 372C580 363.163 572.837 356 564 356Z" fill="white"/>
<defs>
<radialGradient id="paint0_radial_8_64" cx="0" cy="0" r="1" gradientUnits="userSpaceOnUse" gradientTransform="translate(480 384) scale(768)">
<stop stop-color="#2F3242"/>
<stop offset="1" stop-color="#1C1E2B"/>
</radialGradient>
</defs>
</svg>