<svg xmlns="http://www.w3.org/2000/svg" width="1024" height="1024" viewBox="0 0 1024 1024" fill="none">
<path d="M789.333 0H234.667C105.064 0 0 105.064 0 234.667V789.333C0 918.936 105.064 1024 234.667 1024H789.333C918.936 1024 1024 918.936 1024 789.333V234.667C1024 105.064 918.936 0 789.333 0Z" fill="url(#paint0_radial_29_37)"/>
<path d="M487.714 163L204 325.883L513.865 504.726L820.882 325.883L540.072 163V288.082L650.669 352.038C655.043 353.489 655.043 360.781 650.669 363.701L519.728 439.283C515.354 440.753 510.962 440.753 508.058 439.283L377.117 363.701C372.744 362.232 372.744 354.94 377.117 352.038L487.714 288.064V163ZM820.882 325.883L513.884 504.763L204.018 325.883V650.16L311.656 587.619V461.122C311.656 456.769 317.464 453.83 320.386 455.281L451.363 530.9C455.737 532.369 457.17 536.704 457.17 542.527V693.783C460.092 698.136 454.248 701.038 449.893 699.587L339.296 635.631L231.658 698.117L513.884 861L794.694 698.117L687.038 635.631L576.441 701.056C572.086 703.977 567.73 699.587 567.73 695.215V543.996C567.73 539.643 570.634 535.29 573.538 532.37L704.478 456.751C708.852 453.849 713.244 458.202 713.244 462.555V589.051L820.882 651.593V325.883Z" fill="white"/>
<path opacity="0.1" d="M449.102 699.393L338.88 635.335L231.569 697.94L512.906 861V504.296L204 325.198V649.883L311.329 587.278V460.616C311.329 456.238 317.117 453.333 320.03 454.785L450.55 530.504C454.891 531.956 456.338 536.315 456.338 542.145V693.563C459.251 697.94 453.444 700.846 449.102 699.393Z" fill="url(#paint1_linear_29_37)"/>
<defs>
<radialGradient id="paint0_radial_29_37" cx="0" cy="0" r="1" gradientUnits="userSpaceOnUse" gradientTransform="translate(512 409.6) scale(819.2)">
<stop stop-color="#2F3242"/>
<stop offset="1" stop-color="#1C1E2B"/>
</radialGradient>
<linearGradient id="paint1_linear_29_37" x1="372.622" y1="446.693" x2="208.538" y2="780.776" gradientUnits="userSpaceOnUse">
<stop stop-color="#F4F4F4" stop-opacity="0"/>
<stop offset="1" stop-color="#E8E8E9"/>
</linearGradient>
</defs>
</svg>