<svg xmlns="http://www.w3.org/2000/svg" width="960" height="960" viewBox="0 0 960 960" fill="none">
<path d="M740 0C861.503 0 960 98.4974 960 220V740C960 861.503 861.503 960 740 960H220C98.4974 960 0 861.503 0 740V220C0 98.4974 98.4974 0 220 0H740Z" fill="url(#paint0_radial_8_124)"/>
<path d="M740 0C861.503 0 960 98.4974 960 220V740C960 861.503 861.503 960 740 960H220C98.4974 960 0 861.503 0 740V220C0 98.4974 98.4974 0 220 0H740Z" stroke="white"/>
<path d="M709.417 61C815.225 61.0002 901 146.775 901 252.583V705.417C901 811.225 815.225 897 709.417 897H256.583C150.775 897 65.0002 811.225 65 705.417V252.583C65.0002 146.775 150.775 61.0002 256.583 61H709.417Z" fill="black"/>
<path d="M709.417 61C815.225 61.0002 901 146.775 901 252.583V705.417C901 811.225 815.225 897 709.417 897H256.583C150.775 897 65.0002 811.225 65 705.417V252.583C65.0002 146.775 150.775 61.0002 256.583 61H709.417Z" stroke="black"/>
<g filter="url(#filter0_f_8_124)">
<path d="M170 499H330L390 439L450 579L530 379L590 499H790" stroke="#00FF04" stroke-width="24" stroke-linecap="round" stroke-linejoin="round"/>
</g>
<path fill-rule="evenodd" clip-rule="evenodd" d="M707.172 649.5C707.172 650.548 706.116 651 703.672 651C701.228 651 700.172 651.452 700.172 652.5C700.172 653.5 699.172 654 697.172 654C695.172 654 694.172 654.5 694.172 655.5C694.172 656.325 693.455 657 692.578 657C691.702 657 690.749 657.9 690.462 659C690.174 660.1 689.316 661 688.555 661C687.795 661 687.172 661.675 687.172 662.5C687.172 663.325 686.497 664 685.672 664C684.672 664 684.172 665 684.172 667C684.172 668.893 683.66 670 682.783 670C681.995 670 681.118 671.473 680.756 673.403C680.405 675.275 679.455 677.061 678.645 677.372C676.39 678.237 676.483 705.515 678.744 706.781C679.609 707.265 680.568 709.537 680.876 711.83C681.223 714.419 681.954 716 682.804 716C683.701 716 684.172 717.205 684.172 719.5C684.172 721.944 684.624 723 685.672 723C686.497 723 687.172 723.675 687.172 724.5C687.172 725.325 687.847 726 688.672 726C689.508 726 690.172 726.89 690.172 728.01C690.172 729.115 691.072 730.79 692.172 731.732C693.272 732.674 694.172 734.019 694.172 734.722C694.172 735.425 694.847 736 695.672 736C696.497 736 697.172 736.675 697.172 737.5C697.172 738.325 697.847 739 698.672 739C699.497 739 700.172 739.499 700.172 740.109C700.172 741.645 704.398 745.962 705.922 745.983C706.61 745.992 707.172 746.675 707.172 747.5C707.172 748.325 707.847 749 708.672 749C709.497 749 710.172 749.675 710.172 750.5C710.172 751.336 711.062 752 712.182 752C713.287 752 714.962 752.9 715.904 754C716.846 755.1 718.191 756 718.894 756C719.597 756 720.172 756.675 720.172 757.5C720.172 758.5 721.172 759 723.172 759C725.172 759 726.172 759.5 726.172 760.5C726.172 761.325 726.847 762 727.672 762C728.497 762 729.172 762.675 729.172 763.5C729.172 764.333 730.061 765 731.172 765C732.272 765 733.172 765.639 733.172 766.421C733.172 767.202 734.522 768.138 736.172 768.5C737.822 768.862 739.172 769.798 739.172 770.579C739.172 771.361 740.072 772 741.172 772C742.283 772 743.172 772.667 743.172 773.5C743.172 774.487 744.159 775 746.055 775C748.098 775 749.091 775.583 749.462 777C749.821 778.374 750.826 779 752.672 779C754.518 779 755.523 778.374 755.882 777C756.253 775.583 757.246 775 759.289 775C761.185 775 762.172 774.487 762.172 773.5C762.172 772.667 763.061 772 764.172 772C765.272 772 766.172 771.361 766.172 770.579C766.172 769.798 767.522 768.862 769.172 768.5C770.822 768.138 772.172 767.202 772.172 766.421C772.172 765.639 773.072 765 774.172 765C775.272 765 776.172 764.374 776.172 763.608C776.172 762.843 777.297 761.934 778.672 761.589C780.047 761.244 781.172 760.52 781.172 759.981C781.172 759.441 782.072 759 783.172 759C784.283 759 785.172 758.333 785.172 757.5C785.172 756.675 785.747 756 786.45 756C787.153 756 788.498 755.1 789.44 754C790.382 752.9 792.057 752 793.162 752C794.282 752 795.172 751.336 795.172 750.5C795.172 749.675 795.847 749 796.672 749C797.497 749 798.172 748.325 798.172 747.5C798.172 746.675 798.847 746 799.672 746C800.497 746 801.172 745.377 801.172 744.617C801.172 743.856 802.072 742.998 803.172 742.71C804.272 742.423 805.172 741.47 805.172 740.594C805.172 739.717 805.847 739 806.672 739C807.497 739 808.172 738.325 808.172 737.5C808.172 736.675 808.847 736 809.672 736C810.497 736 811.172 735.425 811.172 734.722C811.172 734.019 812.072 732.674 813.172 731.732C814.272 730.79 815.172 729.115 815.172 728.01C815.172 726.89 815.836 726 816.672 726C817.497 726 818.172 725.325 818.172 724.5C818.172 723.675 818.847 723 819.672 723C820.72 723 821.172 721.944 821.172 719.5C821.172 717.205 821.643 716 822.54 716C823.389 716 824.12 714.425 824.465 711.856C824.77 709.577 825.617 707.344 826.346 706.894C827.319 706.295 827.759 702.335 827.998 692.036C828.275 680.082 828.093 677.907 826.775 677.401C825.923 677.074 824.939 675.275 824.588 673.403C824.226 671.473 823.349 670 822.561 670C821.684 670 821.172 668.893 821.172 667C821.172 665 820.672 664 819.672 664C818.847 664 818.172 663.325 818.172 662.5C818.172 661.675 817.549 661 816.789 661C816.028 661 815.17 660.1 814.882 659C814.595 657.9 813.642 657 812.766 657C811.889 657 811.172 656.325 811.172 655.5C811.172 654.5 810.172 654 808.172 654C806.172 654 805.172 653.5 805.172 652.5C805.172 651.452 804.116 651 801.672 651C799.228 651 798.172 650.548 798.172 649.5C798.172 648.244 796.061 648 785.172 648C774.283 648 772.172 648.244 772.172 649.5C772.172 650.542 771.124 651 768.743 651C766.858 651 764.64 651.675 763.815 652.5C762.99 653.325 761.608 654 760.743 654C759.879 654 759.172 654.623 759.172 655.383C759.172 656.144 758.272 657.002 757.172 657.29C756.072 657.577 755.172 658.53 755.172 659.406C755.172 660.44 754.293 661 752.672 661C751.051 661 750.172 660.44 750.172 659.406C750.172 658.53 749.272 657.577 748.172 657.29C747.072 657.002 746.172 656.144 746.172 655.383C746.172 654.623 745.465 654 744.601 654C743.736 654 742.354 653.325 741.529 652.5C740.704 651.675 738.486 651 736.601 651C734.22 651 733.172 650.542 733.172 649.5C733.172 648.244 731.061 648 720.172 648C709.283 648 707.172 648.244 707.172 649.5Z" fill="url(#paint1_radial_8_124)"/>
<defs>
<filter id="filter0_f_8_124" x="146" y="355" width="668" height="248" filterUnits="userSpaceOnUse" color-interpolation-filters="sRGB">
<feFlood flood-opacity="0" result="BackgroundImageFix"/>
<feBlend mode="normal" in="SourceGraphic" in2="BackgroundImageFix" result="shape"/>
<feGaussianBlur stdDeviation="6" result="effect1_foregroundBlur_8_124"/>
</filter>
<radialGradient id="paint0_radial_8_124" cx="0" cy="0" r="1" gradientUnits="userSpaceOnUse" gradientTransform="translate(480 384) scale(768)">
<stop stop-color="#2F3242"/>
<stop offset="1" stop-color="#1C1E2B"/>
</radialGradient>
<radialGradient id="paint1_radial_8_124" cx="0" cy="0" r="1" gradientUnits="userSpaceOnUse" gradientTransform="translate(752.554 713.5) rotate(90) scale(65.5 75.5545)">
<stop stop-color="#FF6363"/>
<stop offset="1" stop-color="#FF0303"/>
</radialGradient>
</defs>
</svg>