<svg xmlns="http://www.w3.org/2000/svg" width="1024" height="1024" viewBox="0 0 1024 1024" fill="none">
<path d="M789.333 0H234.667C105.064 0 0 105.064 0 234.667V789.333C0 918.936 105.064 1024 234.667 1024H789.333C918.936 1024 1024 918.936 1024 789.333V234.667C1024 105.064 918.936 0 789.333 0Z" fill="url(#paint0_radial_28_11)"/>
<path d="M749.921 279.172L634.06 222.784C627.517 219.595 620.155 218.543 612.993 219.773C605.832 221.003 599.227 224.455 594.093 229.65L214.824 579.188C210.222 583.408 207.468 589.304 207.166 595.578C206.865 601.852 209.041 607.99 213.216 612.642C213.719 613.191 214.221 613.719 214.764 614.206L245.728 642.644C249.774 646.366 254.982 648.539 260.448 648.784C265.914 649.029 271.292 647.331 275.648 643.984L732.479 293.797C735.93 291.15 740.043 289.529 744.355 289.117C748.667 288.705 753.008 289.518 756.888 291.464C760.768 293.411 764.034 296.413 766.317 300.134C768.601 303.855 769.812 308.146 769.813 312.525V311.164C769.813 304.479 767.946 297.93 764.427 292.271C760.907 286.611 755.879 282.071 749.921 279.172Z" fill="#0065A9"/>
<path d="M749.921 724.828L634.06 781.236C627.515 784.416 620.155 785.464 612.996 784.234C605.837 783.004 599.232 779.557 594.093 774.37L214.824 424.812C210.222 420.592 207.468 414.696 207.166 408.422C206.865 402.148 209.041 396.01 213.216 391.358C213.719 390.809 214.221 390.281 214.764 389.794L245.728 361.356C249.778 357.618 254.998 355.436 260.478 355.191C265.957 354.946 271.347 356.653 275.708 360.016L732.479 710.203C735.93 712.85 740.043 714.471 744.355 714.883C748.667 715.295 753.008 714.482 756.888 712.536C760.768 710.589 764.034 707.587 766.317 703.866C768.601 700.145 769.812 695.854 769.813 691.475V692.938C769.792 699.605 767.915 706.131 764.397 711.77C760.879 717.41 755.862 721.935 749.921 724.828Z" fill="#007ACC"/>
<path d="M634.059 781.236C627.514 784.416 620.153 785.463 612.994 784.234C605.835 783.004 599.23 779.557 594.092 774.37C596.978 777.249 600.64 779.203 604.619 779.987C608.598 780.772 612.718 780.351 616.462 778.779C620.206 777.206 623.408 774.552 625.666 771.148C627.924 767.744 629.138 763.742 629.156 759.644V244.356C629.159 240.239 627.953 236.213 625.691 232.788C623.43 229.364 620.213 226.695 616.45 225.12C612.686 223.546 608.545 223.135 604.55 223.942C600.556 224.748 596.888 226.735 594.012 229.65C599.146 224.457 605.75 221.005 612.91 219.771C620.07 218.538 627.432 219.583 633.978 222.764L749.819 279.07C755.796 281.955 760.845 286.489 764.383 292.149C767.92 297.81 769.802 304.367 769.812 311.062V692.937C769.814 699.628 767.945 706.183 764.422 711.846C760.899 717.51 755.865 722.052 749.899 724.95L634.059 781.236Z" fill="#1F9CF0"/>
<defs>
<radialGradient id="paint0_radial_28_11" cx="0" cy="0" r="1" gradientUnits="userSpaceOnUse" gradientTransform="translate(512 409.6) scale(819.2)">
<stop stop-color="#2F3242"/>
<stop offset="1" stop-color="#1C1E2B"/>
</radialGradient>
</defs>
</svg>