<svg xmlns="http://www.w3.org/2000/svg" width="1024" height="1024" viewBox="0 0 1024 1024" fill="none">
<path d="M789.333 0H234.667C105.064 0 0 105.064 0 234.667V789.333C0 918.936 105.064 1024 234.667 1024H789.333C918.936 1024 1024 918.936 1024 789.333V234.667C1024 105.064 918.936 0 789.333 0Z" fill="url(#paint0_radial_28_12)"/>
<path d="M600.43 257.578C602.962 255.287 606.111 253.775 609.494 253.228C612.876 252.681 616.346 253.122 619.48 254.498C622.614 255.873 625.277 258.123 627.145 260.974C629.013 263.825 630.005 267.154 630 270.555V397.149L461.031 530L374 464.497L600.43 257.578Z" fill="#009A7C"/>
<path d="M310.34 526L236.748 589.02C232.109 593.202 229.332 599.045 229.028 605.262C228.724 611.478 230.918 617.561 235.127 622.17C235.633 622.714 236.14 623.237 236.687 623.72L267.902 651.899C271.983 655.584 277.233 657.734 282.742 657.977C288.251 658.219 293.671 656.539 298.064 653.227L383 591.737L310.34 526Z" fill="#009A7C"/>
<path d="M630 627.784L297.95 371.77C293.567 368.46 288.157 366.781 282.658 367.023C277.16 367.265 271.92 369.414 267.85 373.096L236.698 401.225C232.078 405.408 229.318 411.245 229.026 417.451C228.734 423.656 230.934 429.723 235.142 434.317C235.647 434.859 236.153 435.382 236.698 435.864L600.365 767.384C602.896 769.688 606.046 771.21 609.432 771.765C612.818 772.321 616.294 771.885 619.435 770.511C622.577 769.138 625.248 766.885 627.124 764.029C629 761.172 629.999 757.835 630 754.424V627.784Z" fill="#00B294"/>
<path d="M658.32 788.541C651.731 791.685 644.32 792.72 637.112 791.505C629.904 790.289 623.254 786.882 618.081 781.754C620.986 784.6 624.673 786.532 628.68 787.307C632.686 788.082 636.834 787.667 640.604 786.112C644.373 784.558 647.597 781.934 649.87 778.569C652.143 775.204 653.366 771.248 653.384 767.196V257.804C653.382 253.736 652.165 249.76 649.887 246.378C647.61 242.996 644.374 240.36 640.588 238.802C636.802 237.244 632.636 236.835 628.615 237.626C624.595 238.417 620.901 240.372 618 243.246C623.173 238.118 629.823 234.711 637.031 233.495C644.239 232.28 651.65 233.315 658.239 236.459L774.87 292.121C780.889 294.972 785.972 299.454 789.534 305.05C793.095 310.646 794.99 317.128 795 323.747V701.253C795.002 707.867 793.12 714.347 789.573 719.946C786.026 725.545 780.958 730.035 774.951 732.899L658.32 788.541Z" fill="#24BFA5"/>
<defs>
<radialGradient id="paint0_radial_28_12" cx="0" cy="0" r="1" gradientUnits="userSpaceOnUse" gradientTransform="translate(512 409.6) scale(819.2)">
<stop stop-color="#2F3242"/>
<stop offset="1" stop-color="#1C1E2B"/>
</radialGradient>
</defs>
</svg>