<svg xmlns="http://www.w3.org/2000/svg" width="1024" height="1024" viewBox="0 0 1024 1024" fill="none">
<path d="M789.333 0H234.667C105.064 0 0 105.064 0 234.667V789.333C0 918.936 105.064 1024 234.667 1024H789.333C918.936 1024 1024 918.936 1024 789.333V234.667C1024 105.064 918.936 0 789.333 0Z" fill="url(#paint0_radial_43_141)"/>
<rect x="396" y="409" width="277" height="214" fill="white"/>
<path fill-rule="evenodd" clip-rule="evenodd" d="M454.673 584.808V426.274C510.953 452.756 554.541 478.339 606.094 505.92C563.574 529.501 510.953 555.959 454.673 584.808ZM768.321 347.428C758.613 334.637 742.067 324.681 724.451 321.385C672.674 311.552 349.655 311.524 297.906 321.385C283.78 324.033 271.201 330.434 260.395 340.379C214.865 382.638 229.132 609.261 240.106 645.97C244.721 661.86 250.687 673.319 258.201 680.841C267.881 690.786 281.134 697.634 296.358 700.704C338.99 709.523 558.622 714.453 723.55 702.029C738.746 699.381 752.196 692.312 762.805 681.945C804.902 639.854 802.033 400.505 768.321 347.428Z" fill="#FF0000"/>
<defs>
<radialGradient id="paint0_radial_43_141" cx="0" cy="0" r="1" gradientUnits="userSpaceOnUse" gradientTransform="translate(512 409.6) scale(819.2)">
<stop stop-color="#2F3242"/>
<stop offset="1" stop-color="#1C1E2B"/>
</radialGradient>
</defs>
</svg>