<svg xmlns="http://www.w3.org/2000/svg" width="730" height="609" viewBox="0 0 730 609" fill="none">
<path d="M657 76H328.5L255.5 0H73C32.85 0 0 34.2 0 76V228H730V152C730 110.2 697.15 76 657 76Z" fill="#7FB1FF"/>
<path d="M657 76H73C32.85 76 0 110.264 0 152.143V532.857C0 574.736 32.85 609 73 609H657C697.15 609 730 574.736 730 532.857V152.143C730 110.264 697.15 76 657 76Z" fill="url(#paint0_linear_9_418)"/>
<line x1="14.5" y1="-14.5" x2="560.72" y2="-14.5" transform="matrix(0.999976 0.00694526 -0.00716545 0.999974 55.7734 179.865)" stroke="url(#paint1_linear_9_418)" stroke-width="29" stroke-linecap="round"/>
<path d="M364.547 461.75C337.127 461.75 313.847 452.043 294.708 432.628C275.569 413.213 266 389.703 266 362.099H282.562C282.562 385.102 290.476 404.701 306.302 420.896C322.128 437.09 341.543 445.188 364.547 445.188C387.918 445.188 407.701 436.998 423.896 420.62C440.09 404.241 448.188 384.366 448.188 360.995C448.188 338.175 439.998 318.898 423.62 303.164C407.241 287.43 387.55 279.562 364.547 279.562C352.033 279.562 340.301 282.415 329.352 288.12C318.402 293.825 308.878 301.37 300.781 310.755H329.766V327.318H272.073V269.901H288.635V299.161C298.205 287.936 309.569 279.102 322.727 272.661C335.885 266.22 349.825 263 364.547 263C378.349 263 391.323 265.576 403.469 270.729C415.615 275.882 426.242 282.921 435.352 291.846C444.461 300.772 451.638 311.215 456.883 323.177C462.128 335.139 464.75 348.021 464.75 361.823C464.75 375.625 462.128 388.599 456.883 400.745C451.638 412.891 444.461 423.472 435.352 432.49C426.242 441.507 415.615 448.638 403.469 453.883C391.323 459.128 378.349 461.75 364.547 461.75ZM399.88 407.37L357.37 365.411V306.339H373.932V358.51L411.75 395.5L399.88 407.37Z" fill="#406CFE"/>
<path d="M657 76H328.5L255.5 0H73C32.85 0 0 34.2 0 76V228H730V152C730 110.2 697.15 76 657 76Z" fill="#7FB1FF"/>
<path d="M657 76H73C32.85 76 0 110.264 0 152.143V532.857C0 574.736 32.85 609 73 609H657C697.15 609 730 574.736 730 532.857V152.143C730 110.264 697.15 76 657 76Z" fill="url(#paint2_linear_9_418)"/>
<line x1="14.5" y1="-14.5" x2="560.72" y2="-14.5" transform="matrix(0.999976 0.00694526 -0.00716545 0.999974 55.7734 179.865)" stroke="url(#paint3_linear_9_418)" stroke-width="29" stroke-linecap="round"/>
<path d="M364.547 461.75C337.127 461.75 313.847 452.043 294.708 432.628C275.569 413.213 266 389.703 266 362.099H282.562C282.562 385.102 290.476 404.701 306.302 420.896C322.128 437.09 341.543 445.188 364.547 445.188C387.918 445.188 407.701 436.998 423.896 420.62C440.09 404.241 448.188 384.366 448.188 360.995C448.188 338.175 439.998 318.898 423.62 303.164C407.241 287.43 387.55 279.562 364.547 279.562C352.033 279.562 340.301 282.415 329.352 288.12C318.402 293.825 308.878 301.37 300.781 310.755H329.766V327.318H272.073V269.901H288.635V299.161C298.205 287.936 309.569 279.102 322.727 272.661C335.885 266.22 349.825 263 364.547 263C378.349 263 391.323 265.576 403.469 270.729C415.615 275.882 426.242 282.921 435.352 291.846C444.461 300.772 451.638 311.215 456.883 323.177C462.128 335.139 464.75 348.021 464.75 361.823C464.75 375.625 462.128 388.599 456.883 400.745C451.638 412.891 444.461 423.472 435.352 432.49C426.242 441.507 415.615 448.638 403.469 453.883C391.323 459.128 378.349 461.75 364.547 461.75ZM399.88 407.37L357.37 365.411V306.339H373.932V358.51L411.75 395.5L399.88 407.37Z" fill="#406CFE"/>
<defs>
<linearGradient id="paint0_linear_9_418" x1="-206.988" y1="-100.778" x2="923.586" y2="802.552" gradientUnits="userSpaceOnUse">
<stop stop-color="#80B8FF"/>
<stop offset="1" stop-color="#3274FF"/>
</linearGradient>
<linearGradient id="paint1_linear_9_418" x1="0" y1="0.5" x2="575.22" y2="0.5" gradientUnits="userSpaceOnUse">
<stop stop-color="#4E8BFF"/>
<stop offset="1" stop-color="#6DA7FF"/>
</linearGradient>
<linearGradient id="paint2_linear_9_418" x1="-206.988" y1="-100.778" x2="923.586" y2="802.552" gradientUnits="userSpaceOnUse">
<stop stop-color="#80B8FF"/>
<stop offset="1" stop-color="#3274FF"/>
</linearGradient>
<linearGradient id="paint3_linear_9_418" x1="0" y1="0.5" x2="575.22" y2="0.5" gradientUnits="userSpaceOnUse">
<stop stop-color="#4E8BFF"/>
<stop offset="1" stop-color="#6DA7FF"/>
</linearGradient>
</defs>
</svg>