<svg xmlns="http://www.w3.org/2000/svg" width="730" height="609" viewBox="0 0 730 609" fill="none">
<path d="M657 76H328.5L255.5 0H73C32.85 0 0 34.2 0 76V228H730V152C730 110.2 697.15 76 657 76Z" fill="#7FB1FF"/>
<path d="M657 76H73C32.85 76 0 110.264 0 152.143V532.857C0 574.736 32.85 609 73 609H657C697.15 609 730 574.736 730 532.857V152.143C730 110.264 697.15 76 657 76Z" fill="url(#paint0_linear_9_327)"/>
<line x1="14.5" y1="-14.5" x2="560.72" y2="-14.5" transform="matrix(0.999976 0.00694526 -0.00716545 0.999974 55.7739 179.865)" stroke="url(#paint1_linear_9_327)" stroke-width="29" stroke-linecap="round"/>
<path d="M355.69 444.379C344.184 443.168 333.473 439.951 323.557 434.728C313.641 429.505 305.05 422.844 297.783 414.745C290.517 406.646 284.802 397.373 280.639 386.927C276.475 376.481 274.394 365.43 274.394 353.773C274.394 330.308 282.152 309.984 297.67 292.801C313.187 275.618 332.603 265.74 355.917 263.167V281.333C337.599 283.907 322.46 292.044 310.5 305.745C298.54 319.446 292.56 335.455 292.56 353.773C292.56 372.091 298.54 388.1 310.5 401.801C322.46 415.502 337.523 423.639 355.69 426.213V444.379ZM364.773 399.417L319.129 353.546L332.073 340.602L355.69 364.219V308.583H373.856V364.219L397.246 340.829L410.19 354L364.773 399.417ZM373.856 444.379V426.213C380.366 425.304 386.611 423.563 392.591 420.99C398.571 418.416 404.134 415.161 409.281 411.225L422.452 424.396C415.337 429.997 407.692 434.501 399.517 437.907C391.342 441.314 382.788 443.471 373.856 444.379ZM409.735 296.321C404.437 292.385 398.798 289.13 392.818 286.556C386.838 283.983 380.593 282.242 374.083 281.333V263.167C383.015 264.075 391.569 266.232 399.744 269.639C407.919 273.045 415.488 277.549 422.452 283.15L409.735 296.321ZM435.169 411.225L422.452 398.281C426.388 393.134 429.567 387.571 431.99 381.591C434.412 375.611 436.077 369.366 436.985 362.856H455.606C454.395 371.788 452.124 380.38 448.794 388.63C445.463 396.881 440.922 404.413 435.169 411.225ZM436.985 344.69C436.077 338.18 434.412 331.935 431.99 325.955C429.567 319.975 426.388 314.412 422.452 309.265L435.169 296.321C440.922 303.133 445.539 310.665 449.021 318.916C452.503 327.166 454.698 335.758 455.606 344.69H436.985Z" fill="#406CFE"/>
<defs>
<linearGradient id="paint0_linear_9_327" x1="-206.988" y1="-100.778" x2="923.586" y2="802.552" gradientUnits="userSpaceOnUse">
<stop stop-color="#80B8FF"/>
<stop offset="1" stop-color="#3274FF"/>
</linearGradient>
<linearGradient id="paint1_linear_9_327" x1="0" y1="0.5" x2="575.22" y2="0.5" gradientUnits="userSpaceOnUse">
<stop stop-color="#4E8BFF"/>
<stop offset="1" stop-color="#6DA7FF"/>
</linearGradient>
</defs>
</svg>