<svg xmlns="http://www.w3.org/2000/svg" width="730" height="609" viewBox="0 0 730 609" fill="none">
<path d="M657 76H328.5L255.5 0H73C32.85 0 0 34.2 0 76V228H730V152C730 110.2 697.15 76 657 76Z" fill="#7FB1FF"/>
<path d="M657 76H73C32.85 76 0 110.264 0 152.143V532.857C0 574.736 32.85 609 73 609H657C697.15 609 730 574.736 730 532.857V152.143C730 110.264 697.15 76 657 76Z" fill="url(#paint0_linear_35_297)"/>
<line x1="14.5" y1="-14.5" x2="560.72" y2="-14.5" transform="matrix(0.999976 0.00694526 -0.00716545 0.999974 55.7734 179.865)" stroke="url(#paint1_linear_35_297)" stroke-width="29" stroke-linecap="round"/>
<path d="M657 76H328.5L255.5 0H73C32.85 0 0 34.2 0 76V228H730V152C730 110.2 697.15 76 657 76Z" fill="#7FB1FF"/>
<path d="M657 76H73C32.85 76 0 110.264 0 152.143V532.857C0 574.736 32.85 609 73 609H657C697.15 609 730 574.736 730 532.857V152.143C730 110.264 697.15 76 657 76Z" fill="url(#paint2_linear_35_297)"/>
<line x1="14.5" y1="-14.5" x2="560.72" y2="-14.5" transform="matrix(0.999976 0.00694526 -0.00716545 0.999974 55.7734 179.865)" stroke="url(#paint3_linear_35_297)" stroke-width="29" stroke-linecap="round"/>
<path d="M368.205 269.254V322.087C381.836 321.734 394.988 319.463 407.389 315.491C397.786 297.368 384.371 281.602 368.205 269.254Z" fill="#406CFE"/>
<path d="M417.722 319.701C425.867 337.497 430.604 357.176 431.111 377.919H482.996C482.088 348.31 470.41 321.429 451.721 301.092C441.325 308.695 429.922 314.993 417.722 319.701Z" fill="#406CFE"/>
<path d="M414.453 313.005C425.923 308.639 436.652 302.794 446.466 295.741C426.905 276.972 400.963 264.854 372.216 263C389.734 276.277 404.221 293.337 414.453 313.005Z" fill="#406CFE"/>
<path d="M431.116 385.351C430.549 408.56 424.683 430.44 414.669 449.837C426.354 454.051 437.339 459.721 447.452 466.588C468.614 445.809 482.022 417.155 483 385.354L431.116 385.351Z" fill="#406CFE"/>
<path d="M423.703 385.351H368.205V441.182C381.858 441.521 395.051 443.68 407.544 447.474C417.362 428.846 423.121 407.75 423.703 385.351Z" fill="#406CFE"/>
<path d="M360.793 385.351H305.296C305.874 407.747 311.637 428.846 321.45 447.477C333.943 443.683 347.14 441.521 360.79 441.186L360.793 385.351Z" fill="#406CFE"/>
<path d="M368.205 494.015C382.451 483.131 394.566 469.606 403.816 454.14C392.468 450.836 380.535 448.937 368.205 448.618V494.015Z" fill="#406CFE"/>
<path d="M368.205 377.919H423.703C423.187 358.053 418.599 339.214 410.717 322.206C397.286 326.624 383.018 329.151 368.205 329.519V377.919Z" fill="#406CFE"/>
<path d="M360.793 329.519C345.98 329.151 331.709 326.624 318.282 322.206C310.399 339.214 305.811 358.053 305.296 377.919H360.793V329.519Z" fill="#406CFE"/>
<path d="M314.545 313.005C324.777 293.337 339.264 276.273 356.782 263C328.035 264.854 302.093 276.972 282.532 295.745C292.342 302.798 303.078 308.643 314.545 313.005Z" fill="#406CFE"/>
<path d="M360.793 494.015V448.618C348.463 448.937 336.526 450.84 325.182 454.14C334.432 469.606 346.547 483.139 360.793 494.015Z" fill="#406CFE"/>
<path d="M411.043 456.455C401.1 473.518 387.877 488.408 372.219 500.266C398.739 498.556 422.873 488.111 441.81 471.761C432.293 465.481 421.987 460.297 411.043 456.455Z" fill="#406CFE"/>
<path d="M317.955 456.451C307.012 460.293 296.705 465.477 287.181 471.757C306.118 488.107 330.256 498.556 356.776 500.266C341.122 488.408 327.899 473.518 317.955 456.451Z" fill="#406CFE"/>
<path d="M297.884 385.351H246C246.978 417.155 260.387 445.809 281.548 466.585C291.662 459.718 302.643 454.047 314.331 449.833C304.321 430.44 298.455 408.56 297.884 385.351Z" fill="#406CFE"/>
<path d="M360.794 269.254C344.628 281.598 331.213 297.368 321.61 315.487C334.014 319.46 347.167 321.734 360.794 322.083V269.254Z" fill="#406CFE"/>
<path d="M297.884 377.919C298.396 357.176 303.128 337.497 311.274 319.701C299.074 314.989 287.67 308.695 277.275 301.092C258.586 321.429 246.908 348.31 246 377.919H297.884Z" fill="#406CFE"/>
<defs>
<linearGradient id="paint0_linear_35_297" x1="-206.988" y1="-100.778" x2="923.586" y2="802.552" gradientUnits="userSpaceOnUse">
<stop stop-color="#80B8FF"/>
<stop offset="1" stop-color="#3274FF"/>
</linearGradient>
<linearGradient id="paint1_linear_35_297" x1="0" y1="0.5" x2="575.22" y2="0.5" gradientUnits="userSpaceOnUse">
<stop stop-color="#4E8BFF"/>
<stop offset="1" stop-color="#6DA7FF"/>
</linearGradient>
<linearGradient id="paint2_linear_35_297" x1="-206.988" y1="-100.778" x2="923.586" y2="802.552" gradientUnits="userSpaceOnUse">
<stop stop-color="#80B8FF"/>
<stop offset="1" stop-color="#3274FF"/>
</linearGradient>
<linearGradient id="paint3_linear_35_297" x1="0" y1="0.5" x2="575.22" y2="0.5" gradientUnits="userSpaceOnUse">
<stop stop-color="#4E8BFF"/>
<stop offset="1" stop-color="#6DA7FF"/>
</linearGradient>
</defs>
</svg>