<svg xmlns="http://www.w3.org/2000/svg" width="730" height="609" viewBox="0 0 730 609" fill="none">
<path d="M657 76H328.5L255.5 0H73C32.85 0 0 34.2 0 76V228H730V152C730 110.2 697.15 76 657 76Z" fill="#7FB1FF"/>
<path d="M657 76H73C32.85 76 0 110.264 0 152.143V532.857C0 574.736 32.85 609 73 609H657C697.15 609 730 574.736 730 532.857V152.143C730 110.264 697.15 76 657 76Z" fill="url(#paint0_linear_36_699)"/>
<line x1="14.5" y1="-14.5" x2="560.72" y2="-14.5" transform="matrix(0.999976 0.00694526 -0.00716545 0.999974 55.7734 179.865)" stroke="url(#paint1_linear_36_699)" stroke-width="29" stroke-linecap="round"/>
<path d="M657 76H328.5L255.5 0H73C32.85 0 0 34.2 0 76V228H730V152C730 110.2 697.15 76 657 76Z" fill="#7FB1FF"/>
<path d="M657 76H73C32.85 76 0 110.264 0 152.143V532.857C0 574.736 32.85 609 73 609H657C697.15 609 730 574.736 730 532.857V152.143C730 110.264 697.15 76 657 76Z" fill="url(#paint2_linear_36_699)"/>
<line x1="14.5" y1="-14.5" x2="560.72" y2="-14.5" transform="matrix(0.999976 0.00694526 -0.00716545 0.999974 55.7734 179.865)" stroke="url(#paint3_linear_36_699)" stroke-width="29" stroke-linecap="round"/>
<path opacity="0.15" d="M364.257 271C358.805 271.214 353.575 273.213 349.366 276.689C345.157 280.165 342.202 284.927 340.953 290.246C339.705 295.565 340.232 301.148 342.453 306.138C344.675 311.128 348.468 315.252 353.253 317.876L321.358 346.36L318.905 348.445L316.414 346.36L284.482 317.876C289.275 315.244 293.072 311.108 295.29 306.104C297.507 301.1 298.022 295.504 296.755 290.178C295.488 284.852 292.509 280.091 288.277 276.626C284.044 273.161 278.793 271.184 273.33 271H271.917C266.463 271.207 261.227 273.2 257.012 276.673C252.798 280.146 249.837 284.909 248.583 290.229C247.33 295.55 247.854 301.136 250.075 306.129C252.295 311.123 256.09 315.25 260.876 317.876L228.981 346.36L227.494 366.763L252.81 347.886L250.133 378.566L224 468H243.368L272.623 392.789H272.735L301.991 468H335.707L364.926 392.789H365.074L394.33 468H428.047L457.265 392.789H457.414L486.632 468H506L479.904 378.603L477.228 347.923L502.543 366.763L501.056 346.36L469.161 317.914C473.954 315.282 477.751 311.145 479.969 306.141C482.186 301.137 482.701 295.541 481.434 290.215C480.167 284.89 477.188 280.128 472.956 276.663C468.723 273.198 463.472 271.221 458.009 271.037H456.596C451.142 271.244 445.906 273.237 441.691 276.71C437.477 280.184 434.516 284.946 433.263 290.267C432.009 295.587 432.533 301.173 434.754 306.167C436.974 311.161 440.769 315.287 445.556 317.914L413.66 346.36L411.207 348.482L408.716 346.36L376.821 317.914C381.615 315.282 385.412 311.145 387.629 306.141C389.847 301.137 390.361 295.541 389.094 290.215C387.827 284.89 384.849 280.128 380.616 276.663C376.384 273.198 371.132 271.221 365.669 271.037L364.257 271ZM345.149 347.886L342.473 378.566L318.83 459.474L295.262 378.566L292.586 347.886L317.901 366.763L318.905 367.359L319.871 366.763L345.149 347.886ZM384.888 347.886L410.203 366.763L411.17 367.359L412.173 366.726L437.489 347.886L434.812 378.566L411.17 459.474L387.564 378.566L384.888 347.886Z" fill="#003BFF"/>
<defs>
<linearGradient id="paint0_linear_36_699" x1="-206.988" y1="-100.778" x2="923.586" y2="802.552" gradientUnits="userSpaceOnUse">
<stop stop-color="#80B8FF"/>
<stop offset="1" stop-color="#3274FF"/>
</linearGradient>
<linearGradient id="paint1_linear_36_699" x1="0" y1="0.5" x2="575.22" y2="0.5" gradientUnits="userSpaceOnUse">
<stop stop-color="#4E8BFF"/>
<stop offset="1" stop-color="#6DA7FF"/>
</linearGradient>
<linearGradient id="paint2_linear_36_699" x1="-206.988" y1="-100.778" x2="923.586" y2="802.552" gradientUnits="userSpaceOnUse">
<stop stop-color="#80B8FF"/>
<stop offset="1" stop-color="#3274FF"/>
</linearGradient>
<linearGradient id="paint3_linear_36_699" x1="0" y1="0.5" x2="575.22" y2="0.5" gradientUnits="userSpaceOnUse">
<stop stop-color="#4E8BFF"/>
<stop offset="1" stop-color="#6DA7FF"/>
</linearGradient>
</defs>
</svg>