<svg xmlns="http://www.w3.org/2000/svg" width="730" height="609" viewBox="0 0 730 609" fill="none">
<path d="M657 76H328.5L255.5 0H73C32.85 0 0 34.2 0 76V228H730V152C730 110.2 697.15 76 657 76Z" fill="#7FB1FF"/>
<path d="M657 76H73C32.85 76 0 110.264 0 152.143V532.857C0 574.736 32.85 609 73 609H657C697.15 609 730 574.736 730 532.857V152.143C730 110.264 697.15 76 657 76Z" fill="url(#paint0_linear_33_80)"/>
<line x1="14.5" y1="-14.5" x2="560.72" y2="-14.5" transform="matrix(0.999976 0.00694526 -0.00716545 0.999974 55.7734 179.865)" stroke="url(#paint1_linear_33_80)" stroke-width="29" stroke-linecap="round"/>
<path d="M657 76H328.5L255.5 0H73C32.85 0 0 34.2 0 76V228H730V152C730 110.2 697.15 76 657 76Z" fill="#7FB1FF"/>
<path d="M657 76H73C32.85 76 0 110.264 0 152.143V532.857C0 574.736 32.85 609 73 609H657C697.15 609 730 574.736 730 532.857V152.143C730 110.264 697.15 76 657 76Z" fill="url(#paint2_linear_33_80)"/>
<line x1="14.5" y1="-14.5" x2="560.72" y2="-14.5" transform="matrix(0.999976 0.00694526 -0.00716545 0.999974 55.7734 179.865)" stroke="url(#paint3_linear_33_80)" stroke-width="29" stroke-linecap="round"/>
<path d="M364.929 260.01H365.874C388.655 260.01 409.972 266.214 428.232 277.012L427.673 276.699C446.684 287.77 462.078 303.103 472.879 321.451L473.194 322.038C483.761 339.941 490 361.467 490 384.44C490 439.151 454.609 485.644 405.39 502.423L404.506 502.686C403.866 502.889 403.134 503 402.382 503C400.736 503 399.212 502.453 397.982 501.543L398.003 501.553C396.702 500.389 395.889 498.709 395.889 496.837C395.889 496.786 395.889 496.735 395.889 496.695V496.705C395.889 496.381 395.916 492.245 395.971 484.298C396.025 476.35 396.052 469.083 396.052 462.498C396.123 461.739 396.164 460.869 396.164 459.978C396.164 451.963 392.882 444.717 387.588 439.485C393.867 438.867 399.537 437.835 405.044 436.398L404.272 436.57C410.094 434.951 415.175 432.795 419.889 430.073L419.574 430.245C424.736 427.411 429.105 423.808 432.702 419.537L432.763 419.467C436.543 414.649 439.5 408.982 441.299 402.819L441.39 402.464C443.514 395.552 444.733 387.608 444.733 379.38C444.733 378.924 444.733 378.459 444.723 378.003V378.074C444.723 377.852 444.733 377.599 444.733 377.346C444.733 364.715 439.835 353.229 431.839 344.657L431.869 344.687C433.576 340.234 434.562 335.093 434.562 329.719C434.562 323.151 433.089 316.937 430.457 311.361L430.569 311.624C429.4 311.401 428.069 311.27 426.697 311.27C423.304 311.27 420.103 312.059 417.258 313.456L417.38 313.405C411.608 315.53 406.67 317.939 402.016 320.753L402.402 320.53L396.214 324.416C386.846 321.744 376.086 320.206 364.97 320.206C353.853 320.206 343.093 321.744 332.891 324.619L333.714 324.416C331.98 323.229 329.674 321.768 326.795 320.034C323.005 317.868 318.524 315.773 313.87 314.012L313.199 313.79C310.222 312.231 306.696 311.32 302.947 311.32C301.687 311.32 300.447 311.422 299.248 311.624L299.381 311.604C296.861 316.907 295.387 323.131 295.387 329.699C295.387 335.073 296.373 340.224 298.182 344.971L298.08 344.677C290.104 353.219 285.216 364.705 285.216 377.335C285.216 377.588 285.216 377.852 285.226 378.105V378.064C285.216 378.459 285.216 378.914 285.216 379.38C285.216 387.567 286.436 395.481 288.712 402.93L288.559 402.353C290.48 408.86 293.396 414.518 297.196 419.487L297.105 419.355C300.702 423.758 305.05 427.381 309.978 430.103L310.202 430.214C314.592 432.765 319.682 434.92 325.037 436.428L325.504 436.54C330.239 437.805 335.909 438.837 341.711 439.414L342.179 439.454C337.799 443.786 334.883 449.575 334.212 456.031L334.202 456.153C332.099 457.175 329.65 458.005 327.1 458.541L326.886 458.582C324.285 459.098 321.308 459.391 318.249 459.391C318.026 459.391 317.802 459.391 317.579 459.391H317.609C313.606 459.31 309.928 458.015 306.89 455.869L306.95 455.91C303.181 453.289 300.133 449.888 297.999 445.931L297.928 445.779C295.916 442.379 293.264 439.566 290.124 437.41L290.033 437.349C287.746 435.639 285.054 434.303 282.148 433.503L281.985 433.463L278.734 432.977C278.5 432.957 278.225 432.947 277.951 432.947C276.529 432.947 275.177 433.23 273.948 433.726L274.019 433.696C273.152 434.182 272.881 434.802 273.206 435.558C273.602 436.428 274.09 437.177 274.679 437.835L274.669 437.825C275.289 438.554 275.99 439.191 276.752 439.748L276.783 439.768L277.921 440.578C280.796 442.075 283.164 444.16 284.962 446.68L285.003 446.741C286.944 449.139 288.651 451.852 290.022 454.756L290.124 454.999L291.75 458.723C293.121 462.792 295.611 466.192 298.862 468.651L298.913 468.692C301.961 471.06 305.64 472.76 309.653 473.529L309.816 473.55C313.169 474.197 317.071 474.602 321.054 474.683H321.125C321.582 474.703 322.111 474.703 322.649 474.703C325.301 474.703 327.902 474.491 330.443 474.076L330.168 474.116L333.908 473.469C333.908 477.578 333.935 482.361 333.989 487.819C334.043 493.278 334.07 496.223 334.07 496.655V496.796C334.07 498.668 333.257 500.348 331.957 501.512C330.747 502.413 329.223 502.96 327.567 502.96C326.805 502.96 326.073 502.848 325.393 502.636L325.443 502.646C275.36 485.552 240 439.06 240 384.339C240 361.386 246.219 339.88 257.081 321.4L256.755 321.987C267.871 303.052 283.265 287.72 301.687 276.962L302.276 276.648C319.946 266.184 341.244 260 363.984 260H364.98H364.929V260.01ZM287.299 438.796C287.624 438.041 287.245 437.393 286.161 436.853C285.077 436.529 284.373 436.637 284.048 437.177C283.723 437.933 284.102 438.581 285.186 439.12C286.161 439.768 286.866 439.66 287.299 438.796ZM292.349 444.312C293.108 443.772 293 442.909 292.024 441.721C290.94 440.75 290.073 440.588 289.423 441.235C288.664 441.775 288.773 442.639 289.748 443.826C290.825 444.886 291.692 445.044 292.349 444.302V444.312ZM297.226 451.599C298.202 450.843 298.202 449.817 297.226 448.522C296.359 447.119 295.438 446.795 294.463 447.551C293.487 448.09 293.487 449.062 294.463 450.465C295.438 451.869 296.359 452.246 297.226 451.599ZM304.055 458.41C304.922 457.546 304.705 456.521 303.404 455.333C302.104 454.038 301.02 453.876 300.153 454.847C299.177 455.711 299.394 456.736 300.803 457.924C302.104 459.219 303.188 459.368 304.055 458.369V458.41ZM313.332 462.458C313.657 461.27 312.952 460.407 311.218 459.867C309.592 459.435 308.563 459.813 308.129 461C307.696 462.188 308.4 462.998 310.243 463.429C311.868 464.084 312.898 463.76 313.332 462.458ZM323.584 463.267C323.584 461.864 322.663 461.27 320.82 461.486C319.086 461.486 318.219 462.08 318.219 463.267C318.219 464.671 319.14 465.265 320.983 465.049C322.717 465.055 323.584 464.455 323.584 463.267ZM333.024 461.648C332.807 460.461 331.831 459.975 330.097 460.191C328.363 460.515 327.604 461.324 327.821 462.62C328.038 463.915 329.013 464.347 330.747 463.915C332.482 463.483 333.233 462.728 333.024 461.648Z" fill="#406CFE"/>
<defs>
<linearGradient id="paint0_linear_33_80" x1="-206.988" y1="-100.778" x2="923.586" y2="802.552" gradientUnits="userSpaceOnUse">
<stop stop-color="#80B8FF"/>
<stop offset="1" stop-color="#3274FF"/>
</linearGradient>
<linearGradient id="paint1_linear_33_80" x1="0" y1="0.5" x2="575.22" y2="0.5" gradientUnits="userSpaceOnUse">
<stop stop-color="#4E8BFF"/>
<stop offset="1" stop-color="#6DA7FF"/>
</linearGradient>
<linearGradient id="paint2_linear_33_80" x1="-206.988" y1="-100.778" x2="923.586" y2="802.552" gradientUnits="userSpaceOnUse">
<stop stop-color="#80B8FF"/>
<stop offset="1" stop-color="#3274FF"/>
</linearGradient>
<linearGradient id="paint3_linear_33_80" x1="0" y1="0.5" x2="575.22" y2="0.5" gradientUnits="userSpaceOnUse">
<stop stop-color="#4E8BFF"/>
<stop offset="1" stop-color="#6DA7FF"/>
</linearGradient>
</defs>
</svg>