<svg xmlns="http://www.w3.org/2000/svg" width="730" height="609" viewBox="0 0 730 609" fill="none">
<path d="M657 76H328.5L255.5 0H73C32.85 0 0 34.2 0 76V228H730V152C730 110.2 697.15 76 657 76Z" fill="#7FB1FF"/>
<path d="M657 76H73C32.85 76 0 110.264 0 152.143V532.857C0 574.736 32.85 609 73 609H657C697.15 609 730 574.736 730 532.857V152.143C730 110.264 697.15 76 657 76Z" fill="url(#paint0_linear_32_71)"/>
<line x1="14.5" y1="-14.5" x2="560.72" y2="-14.5" transform="matrix(0.999976 0.00694526 -0.00716545 0.999974 55.7739 179.865)" stroke="url(#paint1_linear_32_71)" stroke-width="29" stroke-linecap="round"/>
<path d="M297.994 448C288.744 448 280.843 444.685 274.291 438.056C267.739 431.427 264.308 423.41 264 414.006C264 412.619 264.077 411.231 264.231 409.844C264.385 408.456 264.617 407.069 264.925 405.681L284.35 327.981C286.508 319.656 290.902 312.911 297.531 307.747C304.16 302.582 311.715 300 320.194 300H410.381C418.86 300 426.415 302.582 433.044 307.747C439.673 312.911 444.067 319.656 446.225 327.981L465.65 405.681C465.958 407.069 466.228 408.495 466.459 409.959C466.691 411.424 466.806 412.85 466.806 414.238C466.806 423.642 463.453 431.62 456.747 438.172C450.041 444.724 441.985 448 432.581 448C426.106 448 420.094 446.304 414.544 442.913C408.994 439.521 404.831 434.896 402.056 429.038L395.581 415.625C394.81 414.083 393.654 412.927 392.113 412.156C390.571 411.385 388.952 411 387.256 411H343.319C341.623 411 340.004 411.385 338.463 412.156C336.921 412.927 335.765 414.083 334.994 415.625L328.519 429.038C325.744 434.896 321.581 439.521 316.031 442.913C310.481 446.304 304.469 448 297.994 448ZM384.134 360.43C385.445 359.094 386.1 357.436 386.1 355.458C386.1 353.482 385.431 351.839 384.093 350.528C382.756 349.218 381.099 348.562 379.121 348.562C377.144 348.562 375.501 349.232 374.191 350.57C372.88 351.906 372.225 353.564 372.225 355.542C372.225 357.518 372.894 359.161 374.232 360.472C375.569 361.782 377.226 362.438 379.204 362.438C381.181 362.438 382.824 361.768 384.134 360.43ZM402.634 341.93C403.945 340.594 404.6 338.936 404.6 336.958C404.6 334.982 403.931 333.339 402.593 332.028C401.256 330.718 399.599 330.062 397.621 330.062C395.644 330.062 394.001 330.732 392.691 332.07C391.38 333.406 390.725 335.064 390.725 337.042C390.725 339.018 391.394 340.661 392.732 341.972C394.069 343.282 395.726 343.938 397.704 343.938C399.681 343.938 401.324 343.268 402.634 341.93ZM402.634 378.93C403.945 377.594 404.6 375.936 404.6 373.958C404.6 371.982 403.931 370.339 402.593 369.028C401.256 367.718 399.599 367.062 397.621 367.062C395.644 367.062 394.001 367.732 392.691 369.07C391.38 370.406 390.725 372.064 390.725 374.042C390.725 376.018 391.394 377.661 392.732 378.972C394.069 380.282 395.726 380.938 397.704 380.938C399.681 380.938 401.324 380.268 402.634 378.93ZM421.134 360.43C422.445 359.094 423.1 357.436 423.1 355.458C423.1 353.482 422.431 351.839 421.093 350.528C419.756 349.218 418.099 348.562 416.121 348.562C414.144 348.562 412.501 349.232 411.191 350.57C409.88 351.906 409.225 353.564 409.225 355.542C409.225 357.518 409.894 359.161 411.232 360.472C412.569 361.782 414.226 362.438 416.204 362.438C418.181 362.438 419.824 361.768 421.134 360.43ZM337.075 375.832C338.154 374.738 338.694 373.357 338.694 371.688V361.281H349.1C350.77 361.281 352.151 360.732 353.244 359.635C354.336 358.539 354.881 357.151 354.881 355.472C354.881 353.795 354.336 352.417 353.244 351.338C352.151 350.258 350.77 349.719 349.1 349.719H338.694V339.312C338.694 337.643 338.145 336.262 337.047 335.169C335.951 334.077 334.564 333.531 332.885 333.531C331.207 333.531 329.829 334.077 328.75 335.169C327.671 336.262 327.131 337.643 327.131 339.312V349.719H316.725C315.055 349.719 313.674 350.268 312.581 351.365C311.49 352.461 310.944 353.849 310.944 355.528C310.944 357.205 311.49 358.583 312.581 359.663C313.674 360.742 315.055 361.281 316.725 361.281H327.131V371.688C327.131 373.357 327.68 374.738 328.778 375.832C329.874 376.923 331.261 377.469 332.94 377.469C334.618 377.469 335.996 376.923 337.075 375.832Z" fill="#406CFE"/>
<defs>
<linearGradient id="paint0_linear_32_71" x1="-206.988" y1="-100.778" x2="923.586" y2="802.552" gradientUnits="userSpaceOnUse">
<stop stop-color="#80B8FF"/>
<stop offset="1" stop-color="#3274FF"/>
</linearGradient>
<linearGradient id="paint1_linear_32_71" x1="0" y1="0.5" x2="575.22" y2="0.5" gradientUnits="userSpaceOnUse">
<stop stop-color="#4E8BFF"/>
<stop offset="1" stop-color="#6DA7FF"/>
</linearGradient>
</defs>
</svg>