<svg width="730" height="609" viewBox="0 0 730 609" fill="none" xmlns="http://www.w3.org/2000/svg">
<path d="M657 76H328.5L255.5 0H73C32.85 0 0 34.2 0 76V228H730V152C730 110.2 697.15 76 657 76Z" fill="url(#paint0_linear_61_4)"/>
<path d="M657 76H73C32.85 76 0 110.264 0 152.143V532.857C0 574.736 32.85 609 73 609H657C697.15 609 730 574.736 730 532.857V152.143C730 110.264 697.15 76 657 76Z" fill="url(#paint1_linear_61_4)"/>
<line x1="14.5" y1="-14.5" x2="560.72" y2="-14.5" transform="matrix(0.999976 0.00694526 -0.00716545 0.999974 55.7738 179.865)" stroke="url(#paint2_linear_61_4)" stroke-width="29" stroke-linecap="round"/>
<g clip-path="url(#clip0_61_4)">
<path fill-rule="evenodd" clip-rule="evenodd" d="M365 228C440.663 228 502 289.337 502 365C502 440.663 440.663 502 365 502C289.337 502 228 440.663 228 365C228 289.337 289.337 228 365 228ZM363.596 419.612C351.541 419.612 341.735 429.419 341.735 441.474C341.735 453.528 351.541 463.336 363.596 463.336C375.651 463.336 385.458 453.529 385.458 441.474C385.458 429.419 375.651 419.612 363.596 419.612ZM392.637 273.667H334.556L348.701 401.908H378.492L392.637 273.667Z" fill="#E20909"/>
</g>
<defs>
<linearGradient id="paint0_linear_61_4" x1="0" y1="114" x2="730" y2="114" gradientUnits="userSpaceOnUse">
<stop stop-color="#FA434A"/>
<stop offset="1" stop-color="#CAE06A"/>
</linearGradient>
<linearGradient id="paint1_linear_61_4" x1="-206.988" y1="-100.778" x2="923.586" y2="802.552" gradientUnits="userSpaceOnUse">
<stop offset="0.524038" stop-color="#F83E5A"/>
<stop offset="1" stop-color="#FD4B30"/>
</linearGradient>
<linearGradient id="paint2_linear_61_4" x1="0" y1="0.5" x2="575.22" y2="0.5" gradientUnits="userSpaceOnUse">
<stop stop-color="#F83D5C"/>
<stop offset="0.504808" stop-color="#FD4B2F"/>
</linearGradient>
<clipPath id="clip0_61_4">
<rect width="274" height="274" fill="white" transform="translate(228 228)"/>
</clipPath>
</defs>
</svg>
