<svg width="730" height="609" viewBox="0 0 730 609" fill="none" xmlns="http://www.w3.org/2000/svg">
<path d="M657 76H328.5L255.5 0H73C32.85 0 0 34.2 0 76V228H730V152C730 110.2 697.15 76 657 76Z" fill="url(#paint0_linear_58_1089)"/>
<path d="M657 76H73C32.85 76 0 110.264 0 152.143V532.857C0 574.736 32.85 609 73 609H657C697.15 609 730 574.736 730 532.857V152.143C730 110.264 697.15 76 657 76Z" fill="url(#paint1_linear_58_1089)"/>
<line x1="14.5" y1="-14.5" x2="560.72" y2="-14.5" transform="matrix(0.999976 0.00694526 -0.00716545 0.999974 55.7739 179.865)" stroke="url(#paint2_linear_58_1089)" stroke-width="29" stroke-linecap="round"/>
<path d="M242.793 471.851C233.598 462.984 229 452.129 229 439.287C229 426.445 233.598 415.59 242.793 406.723C251.989 397.855 263.246 393.422 276.564 393.422C282.483 393.422 287.821 394.237 292.577 395.868C297.333 397.499 301.508 399.741 305.102 402.595V289.461L456.989 265V414.825C456.989 427.668 452.391 438.522 443.196 447.389C434 456.257 422.743 460.69 409.425 460.69C396.107 460.69 384.851 456.257 375.655 447.389C366.459 438.522 361.861 427.668 361.861 414.825C361.861 401.983 366.459 391.129 375.655 382.261C384.851 373.394 396.107 368.96 409.425 368.96C415.344 368.96 420.682 369.776 425.438 371.407C430.195 373.037 434.37 375.28 437.964 378.133V321.872L324.128 340.218V439.287C324.128 452.129 319.53 462.984 310.334 471.851C301.138 480.718 289.882 485.152 276.564 485.152C263.246 485.152 251.989 480.718 242.793 471.851Z" fill="#30C67C"/>
<defs>
<linearGradient id="paint0_linear_58_1089" x1="0" y1="114" x2="730" y2="114" gradientUnits="userSpaceOnUse">
<stop stop-color="#89C56E"/>
<stop offset="1" stop-color="#CAE06A"/>
</linearGradient>
<linearGradient id="paint1_linear_58_1089" x1="-206.988" y1="-100.778" x2="923.586" y2="802.552" gradientUnits="userSpaceOnUse">
<stop stop-color="#F4F269"/>
<stop offset="1" stop-color="#5CB270"/>
</linearGradient>
<linearGradient id="paint2_linear_58_1089" x1="0" y1="0.5" x2="575.22" y2="0.5" gradientUnits="userSpaceOnUse">
<stop stop-color="#5CB270"/>
<stop offset="1" stop-color="#F4F269"/>
</linearGradient>
</defs>
</svg>
