<svg width="730" height="609" viewBox="0 0 730 609" fill="none" xmlns="http://www.w3.org/2000/svg">
<path d="M657 76H328.5L255.5 0H73C32.85 0 0 34.2 0 76V228H730V152C730 110.2 697.15 76 657 76Z" fill="url(#paint0_linear_58_1140)"/>
<path d="M657 76H73C32.85 76 0 110.264 0 152.143V532.857C0 574.736 32.85 609 73 609H657C697.15 609 730 574.736 730 532.857V152.143C730 110.264 697.15 76 657 76Z" fill="url(#paint1_linear_58_1140)"/>
<line x1="14.5" y1="-14.5" x2="560.72" y2="-14.5" transform="matrix(0.999976 0.00694526 -0.00716545 0.999974 55.7734 179.865)" stroke="url(#paint2_linear_58_1140)" stroke-width="29" stroke-linecap="round"/>
<path d="M342.929 240.01H343.874C366.655 240.01 387.972 246.214 406.232 257.012L405.673 256.699C424.684 267.77 440.078 283.103 450.879 301.451L451.194 302.038C461.761 319.941 468 341.467 468 364.44C468 419.151 432.609 465.644 383.39 482.423L382.506 482.686C381.866 482.889 381.134 483 380.382 483C378.736 483 377.212 482.453 375.982 481.543L376.003 481.553C374.702 480.389 373.889 478.709 373.889 476.837C373.889 476.786 373.889 476.735 373.889 476.695V476.705C373.889 476.381 373.916 472.245 373.971 464.298C374.025 456.35 374.052 449.083 374.052 442.498C374.123 441.739 374.164 440.869 374.164 439.978C374.164 431.963 370.882 424.717 365.588 419.485C371.867 418.867 377.537 417.835 383.044 416.398L382.272 416.57C388.094 414.951 393.175 412.795 397.889 410.073L397.574 410.245C402.736 407.411 407.105 403.808 410.702 399.537L410.763 399.467C414.543 394.649 417.5 388.982 419.299 382.819L419.39 382.464C421.514 375.552 422.733 367.608 422.733 359.38C422.733 358.924 422.733 358.459 422.723 358.003V358.074C422.723 357.852 422.733 357.599 422.733 357.346C422.733 344.715 417.835 333.229 409.839 324.657L409.869 324.687C411.576 320.234 412.562 315.093 412.562 309.719C412.562 303.151 411.089 296.937 408.457 291.361L408.569 291.624C407.4 291.401 406.069 291.27 404.697 291.27C401.304 291.27 398.103 292.059 395.258 293.456L395.38 293.405C389.608 295.53 384.67 297.939 380.016 300.753L380.402 300.53L374.214 304.416C364.846 301.744 354.086 300.206 342.97 300.206C331.853 300.206 321.093 301.744 310.891 304.619L311.714 304.416C309.98 303.229 307.674 301.768 304.795 300.034C301.005 297.868 296.524 295.773 291.87 294.012L291.199 293.79C288.222 292.231 284.696 291.32 280.947 291.32C279.687 291.32 278.447 291.422 277.248 291.624L277.381 291.604C274.861 296.907 273.387 303.131 273.387 309.699C273.387 315.073 274.373 320.224 276.182 324.971L276.08 324.677C268.104 333.219 263.216 344.705 263.216 357.335C263.216 357.588 263.216 357.852 263.226 358.105V358.064C263.216 358.459 263.216 358.914 263.216 359.38C263.216 367.567 264.436 375.481 266.712 382.93L266.559 382.353C268.48 388.86 271.396 394.518 275.196 399.487L275.105 399.355C278.702 403.758 283.05 407.381 287.978 410.103L288.202 410.214C292.592 412.765 297.682 414.92 303.037 416.428L303.504 416.54C308.239 417.805 313.909 418.837 319.711 419.414L320.179 419.454C315.799 423.786 312.883 429.575 312.212 436.031L312.202 436.153C310.099 437.175 307.65 438.005 305.1 438.541L304.886 438.582C302.285 439.098 299.308 439.391 296.249 439.391C296.026 439.391 295.802 439.391 295.579 439.391H295.609C291.606 439.31 287.928 438.015 284.89 435.869L284.95 435.91C281.181 433.289 278.133 429.888 275.999 425.931L275.928 425.779C273.916 422.379 271.264 419.566 268.124 417.41L268.033 417.349C265.746 415.639 263.054 414.303 260.148 413.503L259.985 413.463L256.734 412.977C256.5 412.957 256.225 412.947 255.951 412.947C254.529 412.947 253.177 413.23 251.948 413.726L252.019 413.696C251.152 414.182 250.881 414.802 251.206 415.558C251.602 416.428 252.09 417.177 252.679 417.835L252.669 417.825C253.289 418.554 253.99 419.191 254.752 419.748L254.783 419.768L255.921 420.578C258.796 422.075 261.164 424.16 262.962 426.68L263.003 426.741C264.944 429.139 266.651 431.852 268.022 434.756L268.124 434.999L269.75 438.723C271.121 442.792 273.611 446.192 276.862 448.651L276.913 448.692C279.961 451.06 283.64 452.76 287.653 453.529L287.816 453.55C291.169 454.197 295.071 454.602 299.054 454.683H299.125C299.582 454.703 300.111 454.703 300.649 454.703C303.301 454.703 305.902 454.491 308.443 454.076L308.168 454.116L311.908 453.469C311.908 457.578 311.935 462.361 311.989 467.819C312.043 473.278 312.07 476.223 312.07 476.655V476.796C312.07 478.668 311.257 480.348 309.957 481.512C308.747 482.413 307.223 482.96 305.567 482.96C304.805 482.96 304.073 482.848 303.393 482.636L303.443 482.646C253.36 465.552 218 419.06 218 364.339C218 341.386 224.219 319.88 235.081 301.4L234.755 301.987C245.871 283.052 261.265 267.72 279.687 256.962L280.276 256.648C297.946 246.184 319.244 240 341.984 240H342.98H342.929V240.01ZM265.299 418.796C265.624 418.041 265.245 417.393 264.161 416.853C263.077 416.529 262.373 416.637 262.048 417.177C261.723 417.933 262.102 418.581 263.186 419.12C264.161 419.768 264.866 419.66 265.299 418.796ZM270.349 424.312C271.108 423.772 271 422.909 270.024 421.721C268.94 420.75 268.073 420.588 267.423 421.235C266.664 421.775 266.773 422.639 267.748 423.826C268.825 424.885 269.692 425.044 270.349 424.302V424.312ZM275.226 431.599C276.202 430.843 276.202 429.818 275.226 428.522C274.359 427.119 273.438 426.795 272.463 427.551C271.487 428.09 271.487 429.062 272.463 430.465C273.438 431.869 274.359 432.246 275.226 431.599ZM282.055 438.41C282.922 437.546 282.705 436.521 281.404 435.333C280.104 434.038 279.02 433.876 278.153 434.847C277.177 435.711 277.394 436.736 278.803 437.924C280.104 439.219 281.188 439.368 282.055 438.369V438.41ZM291.332 442.458C291.657 441.27 290.952 440.407 289.218 439.867C287.592 439.435 286.563 439.813 286.129 441.001C285.696 442.188 286.4 442.998 288.243 443.429C289.868 444.084 290.898 443.76 291.332 442.458ZM301.584 443.267C301.584 441.864 300.663 441.27 298.82 441.486C297.086 441.486 296.219 442.08 296.219 443.267C296.219 444.671 297.14 445.265 298.983 445.049C300.717 445.055 301.584 444.455 301.584 443.267ZM311.023 441.648C310.807 440.461 309.831 439.975 308.097 440.191C306.363 440.515 305.604 441.324 305.821 442.62C306.038 443.915 307.013 444.347 308.747 443.915C310.482 443.483 311.233 442.728 311.023 441.648Z" fill="#30C67C"/>
<defs>
<linearGradient id="paint0_linear_58_1140" x1="0" y1="114" x2="730" y2="114" gradientUnits="userSpaceOnUse">
<stop stop-color="#89C56E"/>
<stop offset="1" stop-color="#CAE06A"/>
</linearGradient>
<linearGradient id="paint1_linear_58_1140" x1="-206.988" y1="-100.778" x2="923.586" y2="802.552" gradientUnits="userSpaceOnUse">
<stop stop-color="#F4F269"/>
<stop offset="1" stop-color="#5CB270"/>
</linearGradient>
<linearGradient id="paint2_linear_58_1140" x1="0" y1="0.5" x2="575.22" y2="0.5" gradientUnits="userSpaceOnUse">
<stop stop-color="#5CB270"/>
<stop offset="1" stop-color="#F4F269"/>
</linearGradient>
</defs>
</svg>
