<svg width="730" height="609" viewBox="0 0 730 609" fill="none" xmlns="http://www.w3.org/2000/svg">
<path d="M657 76H328.5L255.5 0H73C32.85 0 0 34.2 0 76V228H730V152C730 110.2 697.15 76 657 76Z" fill="url(#paint0_linear_57_966)"/>
<path d="M657 76H73C32.85 76 0 110.264 0 152.143V532.857C0 574.736 32.85 609 73 609H657C697.15 609 730 574.736 730 532.857V152.143C730 110.264 697.15 76 657 76Z" fill="url(#paint1_linear_57_966)"/>
<line x1="14.5" y1="-14.5" x2="560.72" y2="-14.5" transform="matrix(0.999976 0.00694526 -0.00716545 0.999974 55.7739 179.865)" stroke="url(#paint2_linear_57_966)" stroke-width="29" stroke-linecap="round"/>
<path d="M348.34 414.833L425.69 365.15L348.34 315.468V414.833ZM299.55 466.3C294.79 466.3 290.625 464.515 287.055 460.945C283.485 457.375 281.7 453.21 281.7 448.45V281.85C281.7 277.09 283.485 272.925 287.055 269.355C290.625 265.785 294.79 264 299.55 264H466.15C470.91 264 475.075 265.785 478.645 269.355C482.215 272.925 484 277.09 484 281.85V448.45C484 453.21 482.215 457.375 478.645 460.945C475.075 464.515 470.91 466.3 466.15 466.3H299.55ZM263.85 502C259.09 502 254.925 500.215 251.355 496.645C247.785 493.075 246 488.91 246 484.15V299.7H263.85V484.15H448.3V502H263.85Z" fill="#30C67C"/>
<defs>
<linearGradient id="paint0_linear_57_966" x1="0" y1="114" x2="730" y2="114" gradientUnits="userSpaceOnUse">
<stop stop-color="#89C56E"/>
<stop offset="1" stop-color="#CAE06A"/>
</linearGradient>
<linearGradient id="paint1_linear_57_966" x1="-206.988" y1="-100.778" x2="923.586" y2="802.552" gradientUnits="userSpaceOnUse">
<stop stop-color="#F4F269"/>
<stop offset="1" stop-color="#5CB270"/>
</linearGradient>
<linearGradient id="paint2_linear_57_966" x1="0" y1="0.5" x2="575.22" y2="0.5" gradientUnits="userSpaceOnUse">
<stop stop-color="#5CB270"/>
<stop offset="1" stop-color="#F4F269"/>
</linearGradient>
</defs>
</svg>
