<svg width="730" height="609" viewBox="0 0 730 609" fill="none" xmlns="http://www.w3.org/2000/svg">
<path d="M657 76H328.5L255.5 0H73C32.85 0 0 34.2 0 76V228H730V152C730 110.2 697.15 76 657 76Z" fill="url(#paint0_linear_57_1052)"/>
<path d="M657 76H73C32.85 76 0 110.264 0 152.143V532.857C0 574.736 32.85 609 73 609H657C697.15 609 730 574.736 730 532.857V152.143C730 110.264 697.15 76 657 76Z" fill="url(#paint1_linear_57_1052)"/>
<line x1="14.5" y1="-14.5" x2="560.72" y2="-14.5" transform="matrix(0.999976 0.00694526 -0.00716545 0.999974 55.7739 179.865)" stroke="url(#paint2_linear_57_1052)" stroke-width="29" stroke-linecap="round"/>
<path d="M351.645 484.289C335.759 482.617 320.97 478.175 307.279 470.964C293.587 463.752 281.725 454.555 271.692 443.372C261.658 432.189 253.768 419.386 248.019 404.963C242.271 390.54 239.397 375.281 239.397 359.186C239.397 326.787 250.11 298.725 271.535 275C292.96 251.276 319.768 237.636 351.958 234.083V259.166C326.666 262.72 305.763 273.955 289.25 292.872C272.737 311.789 264.48 333.894 264.48 359.186C264.48 384.479 272.737 406.583 289.25 425.5C305.763 444.417 326.562 455.652 351.645 459.206V484.289ZM364.187 422.208L301.165 358.873L319.037 341.001L351.645 373.609V296.791H376.728V373.609L409.023 341.314L426.895 359.5L364.187 422.208ZM376.728 484.289V459.206C385.716 457.952 394.339 455.548 402.595 451.994C410.852 448.441 418.534 443.947 425.641 438.512L443.826 456.698C434.002 464.432 423.446 470.65 412.158 475.353C400.871 480.056 389.061 483.035 376.728 484.289ZM426.268 279.86C418.952 274.425 411.166 269.931 402.909 266.378C394.652 262.824 386.03 260.421 377.042 259.166V234.083C389.374 235.337 401.184 238.316 412.472 243.019C423.759 247.722 434.211 253.941 443.826 261.675L426.268 279.86ZM461.384 438.512L443.826 420.64C449.261 413.533 453.65 405.852 456.995 397.595C460.339 389.338 462.639 380.716 463.893 371.728H489.603C487.931 384.06 484.796 395.923 480.197 407.315C475.598 418.707 469.328 429.106 461.384 438.512ZM463.893 346.644C462.639 337.656 460.339 329.034 456.995 320.777C453.65 312.521 449.261 304.839 443.826 297.732L461.384 279.86C469.328 289.266 475.703 299.665 480.511 311.057C485.318 322.45 488.349 334.312 489.603 346.644H463.893Z" fill="#30C67C"/>
<defs>
<linearGradient id="paint0_linear_57_1052" x1="0" y1="114" x2="730" y2="114" gradientUnits="userSpaceOnUse">
<stop stop-color="#89C56E"/>
<stop offset="1" stop-color="#CAE06A"/>
</linearGradient>
<linearGradient id="paint1_linear_57_1052" x1="-206.988" y1="-100.778" x2="923.586" y2="802.552" gradientUnits="userSpaceOnUse">
<stop stop-color="#F4F269"/>
<stop offset="1" stop-color="#5CB270"/>
</linearGradient>
<linearGradient id="paint2_linear_57_1052" x1="0" y1="0.5" x2="575.22" y2="0.5" gradientUnits="userSpaceOnUse">
<stop stop-color="#5CB270"/>
<stop offset="1" stop-color="#F4F269"/>
</linearGradient>
</defs>
</svg>
