<svg width="730" height="609" viewBox="0 0 730 609" fill="none" xmlns="http://www.w3.org/2000/svg">
<path d="M657 76H328.5L255.5 0H73C32.85 0 0 34.2 0 76V228H730V152C730 110.2 697.15 76 657 76Z" fill="url(#paint0_linear_57_1048)"/>
<path d="M657 76H73C32.85 76 0 110.264 0 152.143V532.857C0 574.736 32.85 609 73 609H657C697.15 609 730 574.736 730 532.857V152.143C730 110.264 697.15 76 657 76Z" fill="url(#paint1_linear_57_1048)"/>
<line x1="14.5" y1="-14.5" x2="560.72" y2="-14.5" transform="matrix(0.999976 0.00694526 -0.00716545 0.999974 55.7739 179.865)" stroke="url(#paint2_linear_57_1048)" stroke-width="29" stroke-linecap="round"/>
<path d="M318.366 366.729H411.099V349.339H318.366V366.729ZM318.366 401.509H411.099V384.119H318.366V401.509ZM318.366 436.289H376.325V418.899H318.366V436.289ZM289.387 476.865C284.751 476.865 280.694 475.126 277.216 471.648C273.739 468.17 272 464.113 272 459.475V262.39C272 257.753 273.739 253.695 277.216 250.217C280.694 246.739 284.751 245 289.387 245H394.002L457.466 308.473V459.475C457.466 464.113 455.727 468.17 452.25 471.648C448.772 475.126 444.715 476.865 440.079 476.865H289.387ZM385.308 316.299H440.079L385.308 262.39V316.299Z" fill="#30C67C"/>
<defs>
<linearGradient id="paint0_linear_57_1048" x1="0" y1="114" x2="730" y2="114" gradientUnits="userSpaceOnUse">
<stop stop-color="#89C56E"/>
<stop offset="1" stop-color="#CAE06A"/>
</linearGradient>
<linearGradient id="paint1_linear_57_1048" x1="-206.988" y1="-100.778" x2="923.586" y2="802.552" gradientUnits="userSpaceOnUse">
<stop stop-color="#F4F269"/>
<stop offset="1" stop-color="#5CB270"/>
</linearGradient>
<linearGradient id="paint2_linear_57_1048" x1="0" y1="0.5" x2="575.22" y2="0.5" gradientUnits="userSpaceOnUse">
<stop stop-color="#5CB270"/>
<stop offset="1" stop-color="#F4F269"/>
</linearGradient>
</defs>
</svg>
