<svg width="656" height="828" viewBox="0 0 656 828" fill="none" xmlns="http://www.w3.org/2000/svg">
<path opacity="0.542" d="M327.765 0C146.76 0 0.0136719 36.6867 0.0136719 81.952L0.581796 86.6391C10.3535 129.703 153.081 163.876 327.765 163.876C502.463 163.876 645.233 129.689 654.948 86.6249L655.516 81.9378C655.516 36.6867 508.784 0 327.765 0Z" fill="#444444"/>
<path opacity="0.915" d="M0 81.9236L78.4723 720.752C78.4723 779.837 190.237 827.744 328.092 827.744C465.962 827.744 577.726 779.851 577.726 720.752L655.503 81.9236C655.488 127.175 508.756 163.861 327.751 163.861C146.747 163.861 0.0142031 127.175 0 81.9236Z" fill="#464646"/>
</svg>
