<svg xmlns="http://www.w3.org/2000/svg" width="800" height="800" viewBox="0 0 800 800" fill="none">
<path d="M796.879 436.941C792.194 403.977 780.777 372.716 762.935 344.036C747.373 319.006 727.405 296.745 703.573 277.825L703.637 277.766L453.332 85.5172C453.124 85.3359 452.91 85.1672 452.768 85.0687C444.444 78.6937 433.177 75.1859 421.052 75.1859C408.913 75.1859 397.205 78.7015 388.102 85.0875C378.316 91.9234 372.723 100.994 372.332 110.65C371.974 119.656 376.271 128.323 384.463 135.081C400.573 147.791 416.648 160.78 432.741 173.781C448.362 186.406 464.457 199.408 480.474 212.066L173.891 211.858C138.83 211.858 114.957 228.322 110.046 255.886C107.888 267.959 111.696 281.234 120.208 291.402C129.24 302.181 142.352 308.127 157.129 308.127L180.501 308.141C212.788 308.141 245.218 308.062 277.604 307.984L308.488 307.912L30.2397 513.769L29.135 514.575C13.5929 526.491 3.41786 543.191 1.22255 560.395C-0.441513 573.43 2.59911 585.341 10.0194 594.853C18.8632 606.192 32.671 612.43 48.9022 612.43C64.8475 612.43 81.1179 606.387 94.7366 595.386L244.996 472.417C244.354 478.422 243.574 487.231 243.663 493.625C243.832 503.748 247.082 524.061 252.227 540.552C262.858 574.444 280.766 605.452 305.451 632.683C331.135 661.012 362.416 683.477 398.419 699.434C436.483 716.269 477.399 724.814 520.038 724.814H520.433C563.208 724.711 604.255 716.03 642.441 699.005C678.504 682.858 709.771 660.303 735.358 631.975C760.012 604.606 777.893 573.547 788.504 539.683C793.748 522.931 797.127 505.589 798.53 488.116C799.841 471.195 799.277 453.977 796.879 436.941ZM523.157 599.377C429.185 599.377 352.982 531.209 352.982 447.116C352.982 363.03 429.187 294.862 523.157 294.862C617.127 294.862 693.324 363.03 693.324 447.116C693.326 531.209 617.127 599.377 523.157 599.377ZM621.291 433.736C622.676 458.836 612.651 482.139 595.048 499.391C577.14 516.966 551.585 528.005 523.013 528.005C494.449 528.005 468.893 516.966 450.979 499.391C433.382 482.139 423.377 458.837 424.754 433.756C426.105 409.377 437.998 387.856 455.91 372.619C473.524 357.636 497.177 348.494 523.012 348.494C548.852 348.494 572.498 357.637 590.113 372.619C608.03 387.856 619.927 409.362 621.291 433.736Z" fill="#EA7600"/>
</svg>