<svg xmlns="http://www.w3.org/2000/svg" width="1024" height="1024" viewBox="0 0 1024 1024" fill="none">
<path d="M789.333 0H234.667C105.064 0 0 105.064 0 234.667V789.333C0 918.936 105.064 1024 234.667 1024H789.333C918.936 1024 1024 918.936 1024 789.333V234.667C1024 105.064 918.936 0 789.333 0Z" fill="url(#paint0_radial_48_513)"/>
<path fill-rule="evenodd" clip-rule="evenodd" d="M747.89 207.056H642.723V172H747.89C786.611 172 818 203.39 818 242.111V347.278H782.943V242.111C782.943 222.75 767.251 207.056 747.89 207.056ZM362.278 172V207.056H257.111C237.75 207.056 222.056 222.75 222.056 242.111V347.278H187V242.111C187 203.39 218.39 172 257.111 172H362.278ZM187 627.723H222.056V732.89C222.056 752.251 237.75 767.943 257.111 767.943H362.278V803H257.111C218.39 803 187 771.611 187 732.89V627.723Z" fill="white"/>
<path fill-rule="evenodd" clip-rule="evenodd" d="M467.667 666H566.333C635.621 666 670.264 666 695.151 649.699C705.922 642.641 715.173 633.572 722.372 623.012C739 598.616 739 564.652 739 496.726C739 428.803 739 394.84 722.372 370.443C715.173 359.881 705.922 350.813 695.151 343.756C679.158 333.281 659.14 329.537 628.488 328.199C613.861 328.199 601.269 317.333 598.401 303.273C594.096 282.182 575.206 267 553.268 267H480.732C458.793 267 439.903 282.182 435.6 303.273C432.731 317.333 420.138 328.199 405.512 328.199C374.861 329.537 354.841 333.281 338.85 343.756C328.077 350.813 318.827 359.881 311.628 370.443C295 394.84 295 428.803 295 496.726C295 564.652 295 598.616 311.628 623.012C318.827 633.572 328.077 642.641 338.85 649.699C363.737 666 398.38 666 467.667 666ZM517 406.046C465.914 406.046 424.5 446.645 424.5 496.726C424.5 546.81 465.914 587.408 517 587.408C568.087 587.408 609.501 546.81 609.501 496.726C609.501 446.645 568.087 406.046 517 406.046ZM517 442.318C486.348 442.318 461.5 466.677 461.5 496.726C461.5 526.776 486.348 551.137 517 551.137C547.652 551.137 572.5 526.776 572.5 496.726C572.5 466.677 547.652 442.318 517 442.318ZM621.833 424.182C621.833 414.165 630.116 406.046 640.334 406.046H665.001C675.217 406.046 683.5 414.165 683.5 424.182C683.5 434.199 675.217 442.318 665.001 442.318H640.334C630.116 442.318 621.833 434.199 621.833 424.182Z" fill="white"/>
<path d="M760.5 828C838.648 828 902 764.648 902 686.5C902 608.352 838.648 545 760.5 545C682.352 545 619 608.352 619 686.5C619 764.648 682.352 828 760.5 828Z" fill="url(#paint1_radial_48_513)"/>
<path d="M760.5 815.872C831.95 815.872 889.872 757.95 889.872 686.5C889.872 615.05 831.95 557.129 760.5 557.129C689.05 557.129 631.129 615.05 631.129 686.5C631.129 757.95 689.05 815.872 760.5 815.872Z" stroke="#444444" stroke-width="6"/>
<path d="M760.5 805.091C825.996 805.091 879.091 751.996 879.091 686.5C879.091 621.004 825.996 567.91 760.5 567.91C695.004 567.91 641.91 621.004 641.91 686.5C641.91 751.996 695.004 805.091 760.5 805.091Z" fill="url(#paint2_radial_48_513)"/>
<path d="M760.5 770.053C806.645 770.053 844.053 732.645 844.053 686.5C844.053 640.355 806.645 602.948 760.5 602.948C714.355 602.948 676.948 640.355 676.948 686.5C676.948 732.645 714.355 770.053 760.5 770.053Z" fill="url(#paint3_radial_48_513)"/>
<path d="M760.5 767.357C805.156 767.357 841.357 731.156 841.357 686.5C841.357 641.844 805.156 605.643 760.5 605.643C715.844 605.643 679.643 641.844 679.643 686.5C679.643 731.156 715.844 767.357 760.5 767.357Z" stroke="#555555" stroke-width="3"/>
<path d="M760.5 756.576C799.202 756.576 830.576 725.202 830.576 686.5C830.576 647.798 799.202 616.424 760.5 616.424C721.798 616.424 690.424 647.798 690.424 686.5C690.424 725.202 721.798 756.576 760.5 756.576Z" fill="url(#paint4_radial_48_513)"/>
<path d="M760.5 726.929C782.828 726.929 800.929 708.828 800.929 686.5C800.929 664.172 782.828 646.072 760.5 646.072C738.172 646.072 720.072 664.172 720.072 686.5C720.072 708.828 738.172 726.929 760.5 726.929Z" fill="#050508"/>
<path opacity="0.25" d="M740.286 679.762C747.728 679.762 753.762 673.728 753.762 666.286C753.762 658.843 747.728 652.81 740.286 652.81C732.843 652.81 726.81 658.843 726.81 666.286C726.81 673.728 732.843 679.762 740.286 679.762Z" fill="white"/>
<path opacity="0.5" d="M736.243 668.981C739.964 668.981 742.981 665.964 742.981 662.243C742.981 658.521 739.964 655.505 736.243 655.505C732.522 655.505 729.505 658.521 729.505 662.243C729.505 665.964 732.522 668.981 736.243 668.981Z" fill="white"/>
<circle cx="760.5" cy="686.5" r="122.5" fill="#D9D9D9" fill-opacity="0.2"/>
<defs>
<radialGradient id="paint0_radial_48_513" cx="0" cy="0" r="1" gradientUnits="userSpaceOnUse" gradientTransform="translate(512 409.6) scale(819.2)">
<stop stop-color="#2F3242"/>
<stop offset="1" stop-color="#1C1E2B"/>
</radialGradient>
<radialGradient id="paint1_radial_48_513" cx="0" cy="0" r="1" gradientUnits="userSpaceOnUse" gradientTransform="translate(737.86 652.54) scale(164.14)">
<stop stop-color="#555555"/>
<stop offset="0.6" stop-color="#222222"/>
<stop offset="1" stop-color="#111111"/>
</radialGradient>
<radialGradient id="paint2_radial_48_513" cx="0" cy="0" r="1" gradientUnits="userSpaceOnUse" gradientTransform="translate(732.038 650.923) scale(147.052)">
<stop stop-color="white" stop-opacity="0.9"/>
<stop offset="0.15" stop-color="#88CCFF"/>
<stop offset="0.3" stop-color="#6644FF"/>
<stop offset="0.45" stop-color="#00CC88"/>
<stop offset="0.6" stop-color="#FFCC00"/>
<stop offset="0.75" stop-color="#FF6600"/>
<stop offset="0.9" stop-color="#FF2244"/>
<stop offset="1" stop-color="#220011"/>
</radialGradient>
<radialGradient id="paint3_radial_48_513" cx="0" cy="0" r="1" gradientUnits="userSpaceOnUse" gradientTransform="translate(743.79 666.448) scale(100.263)">
<stop stop-color="#444444"/>
<stop offset="1" stop-color="#111111"/>
</radialGradient>
<radialGradient id="paint4_radial_48_513" cx="0" cy="0" r="1" gradientUnits="userSpaceOnUse" gradientTransform="translate(739.477 658.47) scale(91.099)">
<stop stop-color="white" stop-opacity="0.6"/>
<stop offset="0.4" stop-color="#AADDFF" stop-opacity="0.3"/>
<stop offset="1" stop-opacity="0.8"/>
</radialGradient>
</defs>
</svg>