<svg xmlns="http://www.w3.org/2000/svg" width="1024" height="1024" viewBox="0 0 1024 1024" fill="none">
<path d="M789.333 0H234.667C105.064 0 0 105.064 0 234.667V789.333C0 918.936 105.064 1024 234.667 1024H789.333C918.936 1024 1024 918.936 1024 789.333V234.667C1024 105.064 918.936 0 789.333 0Z" fill="url(#paint0_radial_51_22)"/>
<path fill-rule="evenodd" clip-rule="evenodd" d="M546.896 534.208C538.484 551.008 524.059 561.824 508.45 565.472C506.083 565.472 502.469 566.656 498.854 566.656C472.467 566.656 456.858 546.24 456.858 516.224C456.858 477.76 479.663 459.776 508.45 451.328C524.059 447.744 542.098 446.528 560.106 446.528V460.96C560.106 488.576 561.289 510.176 546.896 534.208ZM560.106 391.328C544.497 392.512 526.457 393.696 508.45 396.064C480.847 399.712 453.244 404.512 430.471 415.328C386.044 433.344 356.01 471.776 356.01 528.192C356.01 599.104 401.62 635.104 459.289 635.104C478.48 635.104 494.089 632.672 508.45 629.12C531.319 621.888 550.478 608.672 573.283 584.64C586.493 602.656 590.139 611.104 612.913 630.304C618.926 632.672 624.939 632.672 629.705 629.12C644.13 617.088 669.366 595.456 682.544 583.456C688.557 578.656 687.373 571.424 683.727 565.472C670.549 548.64 657.308 534.208 657.308 501.792V393.696C657.308 348.064 660.954 306.016 627.338 274.816C599.735 249.632 556.491 240 522.875 240H508.45C447.263 243.552 382.461 269.984 368.004 345.664C365.605 355.296 372.834 358.88 377.632 360.064L444.864 368.48C452.06 367.264 455.675 361.248 456.858 355.296C462.839 328.864 484.461 315.648 508.45 313.216H513.28C527.705 313.216 543.313 319.232 551.693 331.264C561.289 345.664 560.106 364.896 560.106 381.728V391.328Z" fill="white"/>
<path fill-rule="evenodd" clip-rule="evenodd" d="M802.936 647.392V647.36C802.68 641.696 801.497 637.376 799.13 633.792L798.874 633.44L798.586 633.088C796.187 630.464 793.884 629.472 791.389 628.384C783.937 625.504 773.094 623.968 760.044 623.936C750.673 623.936 740.342 624.832 729.946 627.104L729.914 626.4L719.455 629.888L719.263 629.984L713.346 631.904V632.16C706.406 635.04 700.104 638.624 694.251 642.88C690.605 645.6 687.598 649.216 687.438 654.752C687.342 657.76 688.878 661.216 691.405 663.264C693.931 665.312 696.874 666.016 699.465 666.016C700.072 666.016 700.648 665.984 701.16 665.888L701.672 665.856L702.056 665.792C707.173 664.704 714.626 663.968 723.357 662.752C730.842 661.92 738.774 661.312 745.651 661.312C750.513 661.28 754.895 661.632 757.901 662.272C759.404 662.592 760.524 662.976 761.132 663.296C761.356 663.36 761.516 663.456 761.611 663.52C761.739 663.936 761.931 665.024 761.899 666.528C761.963 672.288 759.532 682.976 756.174 693.408C752.912 703.84 748.945 714.304 746.323 721.248C745.683 722.848 745.267 724.608 745.267 726.528C745.203 729.312 746.355 732.704 748.786 734.944C751.152 737.184 754.223 738.08 756.782 738.08H756.91C760.748 738.048 764.01 736.512 766.825 734.304C793.372 710.432 802.616 672.288 803 650.816L802.936 647.392ZM724.221 680.48C721.502 680.448 718.72 681.088 716.129 682.304C713.218 683.456 710.244 684.8 707.429 685.984L703.303 687.712L697.929 689.856V689.92C639.557 713.6 578.242 727.488 521.501 728.704C519.422 728.768 517.311 728.768 515.296 728.768C426.058 728.832 353.26 687.424 279.823 646.624C277.264 645.28 274.609 644.576 272.05 644.576C268.756 644.576 265.366 645.824 262.903 648.128C260.44 650.464 258.969 653.824 259.001 657.248C258.969 661.696 261.367 665.792 264.726 668.448C333.653 728.32 409.202 783.936 510.818 784C512.801 784 514.816 783.936 516.831 783.904C581.472 782.464 654.558 760.608 711.299 724.96L711.651 724.736C719.072 720.288 726.492 715.232 733.497 709.632C737.847 706.4 740.853 701.344 740.853 696.096C740.661 686.784 732.761 680.48 724.221 680.48Z" fill="#FF9A00"/>
<defs>
<radialGradient id="paint0_radial_51_22" cx="0" cy="0" r="1" gradientUnits="userSpaceOnUse" gradientTransform="translate(512 409.6) scale(819.2)">
<stop stop-color="#2F3242"/>
<stop offset="1" stop-color="#1C1E2B"/>
</radialGradient>
</defs>
</svg>