<svg xmlns="http://www.w3.org/2000/svg" width="1024" height="1024" viewBox="0 0 1024 1024" fill="none">
<path d="M789.333 0H234.667C105.064 0 0 105.064 0 234.667V789.333C0 918.936 105.064 1024 234.667 1024H789.333C918.936 1024 1024 918.936 1024 789.333V234.667C1024 105.064 918.936 0 789.333 0Z" fill="url(#paint0_radial_49_611)"/>
<path d="M588.891 267.814H560.756V192H459.67V267.814H431.096C405.219 267.814 383.839 289.211 383.839 314.802V438.514H384.26C383.839 442.575 386.315 447.056 391.656 452.329L486.576 536.062C493.146 542.548 501.772 545.8 509.994 545.8V545.396L510.398 545.8C514.76 545.856 519.088 545.019 523.115 543.342C527.142 541.664 530.784 539.181 533.816 536.045L628.753 452.313C634.093 447.056 636.149 442.17 636.149 438.514H636.553V315.19C636.149 289.211 615.19 267.814 588.874 267.814H588.891Z" fill="url(#paint1_linear_49_611)"/>
<path d="M510.365 419.443H510.028C496.697 419.443 483.909 414.159 474.467 404.748C465.025 395.338 459.698 382.568 459.653 369.237C459.698 355.906 465.025 343.136 474.467 333.726C483.909 324.315 496.697 319.031 510.028 319.031V318.357L510.365 319.031C538.028 319.368 560.739 341.523 560.739 369.237C560.739 396.951 538.028 419.106 510.365 419.443Z" fill="url(#paint2_radial_49_611)"/>
<path d="M736.36 840.785C737.295 843.709 737.104 846.878 735.824 849.668C734.545 852.459 732.269 854.672 729.443 855.871C726.617 857.071 723.445 857.173 720.548 856.155C717.651 855.138 715.239 853.075 713.784 850.371L684.116 795.28C682.912 793.059 682.187 790.611 681.985 788.093C681.783 785.576 682.109 783.044 682.943 780.66C683.777 778.276 685.1 776.092 686.827 774.249C688.554 772.406 690.647 770.944 692.972 769.957C695.297 768.971 697.803 768.48 700.328 768.518C702.853 768.557 705.343 769.122 707.637 770.178C709.931 771.235 711.98 772.759 713.65 774.653C715.321 776.548 716.577 778.77 717.339 781.178L736.36 840.785Z" fill="url(#paint3_linear_49_611)"/>
<path d="M749.981 443.493C747.447 443.715 745.106 444.933 743.469 446.879L737.707 453.627L729.679 463.036L721.449 472.639L721.382 472.749C706.586 460.9 688.886 453.23 670.123 450.535C657.16 448.693 643.968 449.284 631.222 452.279L701.055 649.91C705.239 647.898 709.291 645.622 713.185 643.095C724.349 635.806 734.014 626.447 741.658 615.524C746.532 608.605 750.554 601.124 753.637 593.243C755.608 588.189 757.186 583.002 758.371 577.684L758.607 577.718L771.04 580.051L791.931 584.002C793.525 584.299 795.168 584.189 796.708 583.683C798.248 583.177 799.636 582.292 800.744 581.109C801.852 579.925 802.644 578.482 803.047 576.912C803.45 575.342 803.451 573.695 803.051 572.124C802.764 571.045 802.3 570.02 801.678 569.092C800.24 566.994 798.028 565.552 795.528 565.082L786.767 563.431L774.629 561.131L762.161 558.798L760.814 558.528L760.839 557.518C761.143 544.696 759.102 531.926 754.816 519.838L754.454 518.844C750.101 506.875 743.614 495.795 735.306 486.143L736.157 485.149L744.353 475.512L752.381 466.136L758.177 459.355C759.002 458.387 759.627 457.264 760.014 456.053C760.402 454.841 760.545 453.565 760.435 452.298C760.326 451.03 759.965 449.798 759.375 448.671C758.785 447.544 757.977 446.545 756.998 445.734C756.033 444.917 754.917 444.298 753.713 443.914C752.508 443.529 751.24 443.386 749.981 443.493Z" fill="url(#paint4_linear_49_611)"/>
<g filter="url(#filter0_d_49_611)">
<path d="M680.888 500.354C687.796 502.097 694.543 498.98 695.967 493.387C697.382 487.794 692.934 481.846 686.027 480.103C679.119 478.359 672.363 481.476 670.948 487.069C669.533 492.663 673.981 498.61 680.888 500.354Z" fill="black"/>
</g>
<g filter="url(#filter1_d_49_611)">
<path d="M709.32 581.18C713.599 575.494 720.81 573.691 725.426 577.153C730.042 580.616 730.312 588.037 726.032 593.723C721.762 599.409 714.551 601.212 709.935 597.75C705.318 594.287 705.049 586.866 709.32 581.18Z" fill="black"/>
</g>
<g opacity="0.8" filter="url(#filter2_f_49_611)">
<path d="M690.119 485.435C688.973 483.514 686.252 482.731 685.039 482.571L683.852 484.155C684.256 484.205 685.351 484.441 686.463 484.98C687.583 485.519 688.923 486.437 689.445 486.833L690.119 485.435Z" fill="#E2DCE1"/>
</g>
<g opacity="0.8" filter="url(#filter3_f_49_611)">
<path d="M725.873 587.11C726.193 589.301 724.651 591.567 723.843 592.426L721.989 591.929C722.259 591.642 722.933 590.792 723.438 589.697C723.944 588.601 724.365 587.068 724.516 586.437L725.873 587.11Z" fill="#E2DCE1"/>
</g>
<path d="M303.239 505.147C300.459 500.295 296.703 496.073 292.208 492.747C287.714 489.421 282.578 487.063 277.125 485.822C265.905 483.127 253.758 484.93 243.363 490.826C232.968 496.723 225.167 506.191 221.714 517.21C218.226 528.228 220.298 541.521 225.791 551.208L265.837 530.536L303.239 505.147Z" fill="#4386F5"/>
<path d="M302.888 504.557C360.861 600.538 482.214 641.596 588.287 596.275L623.701 679.132C475.745 742.361 306.628 685.029 225.76 551.158L302.888 504.557Z" fill="url(#paint5_linear_49_611)"/>
<path d="M285.938 840.785C285.004 843.709 285.195 846.878 286.474 849.668C287.754 852.459 290.03 854.672 292.856 855.871C295.682 857.071 298.854 857.173 301.751 856.155C304.647 855.138 307.059 853.075 308.514 850.371L338.183 795.28C339.386 793.059 340.112 790.611 340.314 788.093C340.516 785.576 340.189 783.044 339.355 780.66C338.521 778.276 337.199 776.092 335.472 774.249C333.745 772.406 331.651 770.944 329.326 769.957C327.001 768.971 324.496 768.48 321.97 768.518C319.445 768.557 316.955 769.122 314.661 770.178C312.367 771.235 310.319 772.759 308.648 774.653C306.977 776.548 305.721 778.77 304.959 781.178L285.938 840.785Z" fill="url(#paint6_linear_49_611)"/>
<path d="M437.312 321.474C439.522 315.075 442.984 309.179 447.496 304.132C452.008 299.084 457.479 294.985 463.591 292.073C469.703 289.161 476.334 287.495 483.096 287.172C489.858 286.849 496.618 287.875 502.98 290.19C509.341 292.506 515.179 296.065 520.151 300.659C525.124 305.253 529.132 310.792 531.943 316.951C534.753 323.11 536.31 329.767 536.521 336.534C536.733 343.301 535.595 350.043 533.175 356.365L383.484 767.616C381.29 774.035 377.839 779.952 373.33 785.021C368.822 790.09 363.349 794.209 357.23 797.137C351.11 800.065 344.469 801.744 337.693 802.074C330.918 802.404 324.144 801.38 317.769 799.06C311.394 796.741 305.546 793.174 300.567 788.567C295.587 783.961 291.576 778.407 288.769 772.232C285.961 766.056 284.414 759.383 284.217 752.602C284.02 745.821 285.177 739.069 287.621 732.741L437.312 321.474Z" fill="url(#paint7_linear_49_611)"/>
<path d="M543.251 228.644C543.39 224.344 542.664 220.059 541.114 216.046C539.565 212.032 537.224 208.371 534.232 205.28C531.239 202.189 527.656 199.731 523.695 198.053C519.733 196.374 515.475 195.509 511.173 195.509C506.871 195.509 502.612 196.374 498.651 198.053C494.69 199.731 491.106 202.189 488.114 205.28C485.121 208.371 482.781 212.032 481.232 216.046C479.682 220.059 478.956 224.344 479.095 228.644V289.531C478.956 293.831 479.682 298.115 481.232 302.129C482.781 306.142 485.121 309.803 488.114 312.894C491.106 315.985 494.69 318.443 498.651 320.122C502.612 321.8 506.871 322.665 511.173 322.665C515.475 322.665 519.733 321.8 523.695 320.122C527.656 318.443 531.239 315.985 534.232 312.894C537.224 309.803 539.565 306.142 541.114 302.129C542.664 298.115 543.39 293.831 543.251 289.531V228.644Z" fill="url(#paint8_linear_49_611)"/>
<g opacity="0.5" filter="url(#filter4_f_49_611)">
<path d="M574.74 693.107C562.188 694.185 582.405 678.669 579.314 642.581C577.233 618.236 585.716 597.64 598.259 596.57C610.802 595.492 622.663 614.345 624.744 638.689C635.13 677.675 587.283 692.029 574.74 693.107Z" fill="#044FCB"/>
</g>
<path d="M488.143 355.894C483.709 343.377 484.39 329.616 490.04 317.599C495.689 305.582 505.851 296.278 518.319 291.708C530.787 287.138 544.554 287.671 556.632 293.19C568.709 298.709 578.122 308.77 582.827 321.188L733.799 733.213C736.194 739.456 737.324 746.113 737.123 752.796C736.922 759.48 735.394 766.056 732.627 772.144C729.86 778.231 725.91 783.707 721.007 788.254C716.104 792.8 710.346 796.326 704.068 798.626C697.789 800.926 691.116 801.955 684.436 801.652C677.757 801.349 671.204 799.721 665.16 796.862C659.115 794.002 653.7 789.97 649.228 784.998C644.757 780.026 641.319 774.215 639.115 767.902L488.143 355.894Z" fill="url(#paint9_linear_49_611)"/>
<path opacity="0.3" d="M484.925 233.664C492.119 240.858 505.075 239.561 513.886 230.749C522.664 221.955 523.995 208.982 516.784 201.805C509.607 194.594 496.634 195.909 487.84 204.703C479.045 213.514 477.731 226.487 484.925 233.664Z" fill="url(#paint10_radial_49_611)"/>
<path d="M510.35 412.097C526.931 412.097 542.834 405.51 554.559 393.785C566.284 382.06 572.871 366.158 572.871 349.576C572.871 332.994 566.284 317.091 554.559 305.366C542.834 293.641 526.931 287.054 510.35 287.054C493.768 287.054 477.865 293.641 466.14 305.366C454.415 317.091 447.828 332.994 447.828 349.576C447.828 366.158 454.415 382.06 466.14 393.785C477.865 405.51 493.768 412.097 510.35 412.097Z" fill="white"/>
<path d="M510.349 303.498C504.225 303.38 498.139 304.486 492.447 306.748C486.755 309.011 481.571 312.386 477.199 316.675C472.826 320.965 469.353 326.083 466.982 331.731C464.611 337.378 463.39 343.442 463.39 349.567C463.39 355.693 464.611 361.756 466.982 367.404C469.353 373.052 472.826 378.17 477.199 382.46C481.571 386.749 486.755 390.124 492.447 392.387C498.139 394.649 504.225 395.754 510.349 395.637C522.415 395.406 533.909 390.451 542.36 381.837C550.812 373.222 555.546 361.636 555.546 349.567C555.546 337.499 550.812 325.913 542.36 317.298C533.909 308.684 522.415 303.728 510.349 303.498ZM431.384 349.576C431.231 339.108 433.161 328.714 437.061 318.998C440.961 309.283 446.754 300.44 454.102 292.983C461.451 285.527 470.209 279.605 479.866 275.564C489.524 271.522 499.888 269.441 510.357 269.441C520.826 269.441 531.191 271.522 540.848 275.564C550.506 279.605 559.264 285.527 566.612 292.983C573.961 300.44 579.753 309.283 583.654 318.998C587.554 328.714 589.483 339.108 589.33 349.576C589.33 370.523 581.009 390.612 566.197 405.424C551.385 420.236 531.296 428.557 510.349 428.557C489.402 428.557 469.312 420.236 454.5 405.424C439.688 390.612 431.367 370.523 431.367 349.576" fill="#202124"/>
<defs>
<filter id="filter0_d_49_611" x="670.668" y="479.618" width="25.5679" height="21.2427" filterUnits="userSpaceOnUse" color-interpolation-filters="sRGB">
<feFlood flood-opacity="0" result="BackgroundImageFix"/>
<feColorMatrix in="SourceAlpha" type="matrix" values="0 0 0 0 0 0 0 0 0 0 0 0 0 0 0 0 0 0 127 0" result="hardAlpha"/>
<feOffset dx="-0.006" dy="0.0115"/>
<feGaussianBlur stdDeviation="0.006"/>
<feComposite in2="hardAlpha" operator="out"/>
<feColorMatrix type="matrix" values="0 0 0 0 0.0156863 0 0 0 0 0.231373 0 0 0 0 0.0666667 0 0 0 0.7 0"/>
<feBlend mode="normal" in2="BackgroundImageFix" result="effect1_dropShadow_49_611"/>
<feBlend mode="normal" in="SourceGraphic" in2="effect1_dropShadow_49_611" result="shape"/>
</filter>
<filter id="filter1_d_49_611" x="706.268" y="575.393" width="22.8111" height="24.1405" filterUnits="userSpaceOnUse" color-interpolation-filters="sRGB">
<feFlood flood-opacity="0" result="BackgroundImageFix"/>
<feColorMatrix in="SourceAlpha" type="matrix" values="0 0 0 0 0 0 0 0 0 0 0 0 0 0 0 0 0 0 127 0" result="hardAlpha"/>
<feOffset dx="-0.006" dy="0.0115"/>
<feGaussianBlur stdDeviation="0.006"/>
<feComposite in2="hardAlpha" operator="out"/>
<feColorMatrix type="matrix" values="0 0 0 0 0.0156863 0 0 0 0 0.231373 0 0 0 0 0.0666667 0 0 0 0.7 0"/>
<feBlend mode="normal" in2="BackgroundImageFix" result="effect1_dropShadow_49_611"/>
<feBlend mode="normal" in="SourceGraphic" in2="effect1_dropShadow_49_611" result="shape"/>
</filter>
<filter id="filter2_f_49_611" x="683.84" y="482.559" width="6.29158" height="4.28645" filterUnits="userSpaceOnUse" color-interpolation-filters="sRGB">
<feFlood flood-opacity="0" result="BackgroundImageFix"/>
<feBlend mode="normal" in="SourceGraphic" in2="BackgroundImageFix" result="shape"/>
<feGaussianBlur stdDeviation="0.006" result="effect1_foregroundBlur_49_611"/>
</filter>
<filter id="filter3_f_49_611" x="721.977" y="586.425" width="3.95076" height="6.01338" filterUnits="userSpaceOnUse" color-interpolation-filters="sRGB">
<feFlood flood-opacity="0" result="BackgroundImageFix"/>
<feBlend mode="normal" in="SourceGraphic" in2="BackgroundImageFix" result="shape"/>
<feGaussianBlur stdDeviation="0.006" result="effect1_foregroundBlur_49_611"/>
</filter>
<filter id="filter4_f_49_611" x="570.297" y="596.233" width="56.2042" height="97.2193" filterUnits="userSpaceOnUse" color-interpolation-filters="sRGB">
<feFlood flood-opacity="0" result="BackgroundImageFix"/>
<feBlend mode="normal" in="SourceGraphic" in2="BackgroundImageFix" result="shape"/>
<feGaussianBlur stdDeviation="0.1465" result="effect1_foregroundBlur_49_611"/>
</filter>
<radialGradient id="paint0_radial_49_611" cx="0" cy="0" r="1" gradientUnits="userSpaceOnUse" gradientTransform="translate(512 409.6) scale(819.2)">
<stop stop-color="#2F3242"/>
<stop offset="1" stop-color="#1C1E2B"/>
</radialGradient>
<linearGradient id="paint1_linear_49_611" x1="510.196" y1="547.485" x2="510.196" y2="193.685" gradientUnits="userSpaceOnUse">
<stop stop-color="#272B2D"/>
<stop offset="1" stop-color="#3E4447"/>
</linearGradient>
<radialGradient id="paint2_radial_49_611" cx="0" cy="0" r="1" gradientUnits="userSpaceOnUse" gradientTransform="translate(510.196 368.814) scale(50.5429 50.5361)">
<stop stop-color="#ACACAC"/>
<stop offset="1" stop-color="#CBCBCB"/>
</radialGradient>
<linearGradient id="paint3_linear_49_611" x1="728.349" y1="853.775" x2="695.858" y2="835.36" gradientUnits="userSpaceOnUse">
<stop stop-color="#4285F4"/>
<stop offset="1" stop-color="#034ECA"/>
</linearGradient>
<linearGradient id="paint4_linear_49_611" x1="659.627" y1="446.374" x2="742.5" y2="638.369" gradientUnits="userSpaceOnUse">
<stop stop-color="#6FBE72"/>
<stop offset="1" stop-color="#469B4A"/>
</linearGradient>
<linearGradient id="paint5_linear_49_611" x1="478.263" y1="639.144" x2="634.567" y2="626.803" gradientUnits="userSpaceOnUse">
<stop stop-color="#4285F4"/>
<stop offset="0.703" stop-color="#044FCB"/>
</linearGradient>
<linearGradient id="paint6_linear_49_611" x1="299.754" y1="845.561" x2="333.449" y2="825.664" gradientUnits="userSpaceOnUse">
<stop stop-color="#4285F4"/>
<stop offset="1" stop-color="#034ECA"/>
</linearGradient>
<linearGradient id="paint7_linear_49_611" x1="359.341" y1="506.949" x2="471.513" y2="545.817" gradientUnits="userSpaceOnUse">
<stop stop-color="#75A5F7"/>
<stop offset="0.279" stop-color="#4285F4"/>
<stop offset="0.757" stop-color="#4285F4"/>
<stop offset="1" stop-color="#76A6F7"/>
</linearGradient>
<linearGradient id="paint8_linear_49_611" x1="491.192" y1="215.098" x2="538.517" y2="310.085" gradientUnits="userSpaceOnUse">
<stop stop-color="#4285F4"/>
<stop offset="1" stop-color="#2660C5"/>
</linearGradient>
<linearGradient id="paint9_linear_49_611" x1="542.763" y1="398.645" x2="628.164" y2="577.137" gradientUnits="userSpaceOnUse">
<stop stop-color="#034DC9"/>
<stop offset="1" stop-color="#4285F4"/>
</linearGradient>
<radialGradient id="paint10_radial_49_611" cx="0" cy="0" r="1" gradientUnits="userSpaceOnUse" gradientTransform="translate(500.841 217.723) rotate(134.502) scale(14.166 9.86917)">
<stop stop-color="white"/>
<stop offset="0.948" stop-color="white" stop-opacity="0"/>
</radialGradient>
</defs>
</svg>