<svg xmlns="http://www.w3.org/2000/svg" width="1024" height="1024" viewBox="0 0 1024 1024" fill="none">
<path d="M789.333 0H234.667C105.064 0 0 105.064 0 234.667V789.333C0 918.936 105.064 1024 234.667 1024H789.333C918.936 1024 1024 918.936 1024 789.333V234.667C1024 105.064 918.936 0 789.333 0Z" fill="url(#paint0_radial_49_610)"/>
<path d="M215.049 839.835C206.143 836.348 203 832.265 203 824.208C203 813.442 208.853 803.795 227.316 784.23C265.975 743.241 292.115 694.212 319.556 611.276C328.191 585.154 334.225 564.559 362.677 463.811C379.441 404.449 394.598 361.201 409.483 330.129C435.714 275.392 466.858 244.772 506.384 234.854C515.832 232.488 520.475 232 534.15 232C569.793 232 593.404 242.297 619.255 269.142C632.984 283.395 644.275 300.123 656.18 323.752C673.305 357.769 687.974 399.264 707.954 470.115C714.367 492.841 723.978 526.93 729.343 545.862C755.754 639.349 779.401 698.024 808.468 742.229C819.126 758.488 827.147 768.514 843.189 785.639C858.725 802.205 864 811.418 864 821.914C864 827.406 863.458 829.176 860.983 832.139C852.294 842.472 833.308 843.719 815.098 835.138C792.77 824.624 755.989 792.215 731.385 761.342C716.932 743.223 698.018 714.228 676.918 677.827C635.73 606.832 616.906 584.792 584.624 569.889C568.51 562.428 559.658 560.838 534.638 560.82C511.334 560.82 506.692 561.506 491.318 567.143C470.85 574.658 453.436 587.972 436.581 608.981C424.604 623.939 416.89 635.826 394.634 673.817C372.793 711.031 353.446 741.109 341.071 757.006C309.62 797.472 267.004 833.006 242.02 839.654C234.542 841.641 219.909 841.731 215.049 839.835Z" fill="#3387FF"/>
<path d="M215.049 839.835C206.143 836.348 203 832.265 203 824.208C203 813.442 208.853 803.795 227.316 784.23C265.975 743.241 292.115 694.212 319.556 611.276C328.191 585.154 334.225 564.559 362.677 463.811C379.441 404.449 394.598 361.201 409.483 330.129C435.714 275.392 466.858 244.772 506.384 234.854C515.832 232.488 520.475 232 534.15 232C569.793 232 593.404 242.297 619.255 269.142C632.984 283.395 644.275 300.123 656.18 323.752C673.305 357.769 687.974 399.264 707.954 470.115C714.367 492.841 723.978 526.93 729.343 545.862C755.754 639.349 779.401 698.024 808.468 742.229C819.126 758.488 827.147 768.514 843.189 785.639C858.725 802.205 864 811.418 864 821.914C864 827.406 863.458 829.176 860.983 832.139C852.294 842.472 833.308 843.719 815.098 835.138C792.77 824.624 755.989 792.215 731.385 761.342C716.932 743.223 698.018 714.228 676.918 677.827C635.73 606.832 616.906 584.792 584.624 569.889C568.51 562.428 559.658 560.838 534.638 560.82C511.334 560.82 506.692 561.506 491.318 567.143C470.85 574.658 453.436 587.972 436.581 608.981C424.604 623.939 416.89 635.826 394.634 673.817C372.793 711.031 353.446 741.109 341.071 757.006C309.62 797.472 267.004 833.006 242.02 839.654C234.542 841.641 219.909 841.731 215.049 839.835Z" fill="url(#paint1_linear_49_610)"/>
<path d="M215.049 839.835C206.143 836.348 203 832.265 203 824.208C203 813.442 208.853 803.795 227.316 784.23C265.975 743.241 292.115 694.212 319.556 611.276C328.191 585.154 334.225 564.559 362.677 463.811C379.441 404.449 394.598 361.201 409.483 330.129C435.714 275.392 466.858 244.772 506.384 234.854C515.832 232.488 520.475 232 534.15 232C569.793 232 593.404 242.297 619.255 269.142C632.984 283.395 644.275 300.123 656.18 323.752C673.305 357.769 687.974 399.264 707.954 470.115C714.367 492.841 723.978 526.93 729.343 545.862C755.754 639.349 779.401 698.024 808.468 742.229C819.126 758.488 827.147 768.514 843.189 785.639C858.725 802.205 864 811.418 864 821.914C864 827.406 863.458 829.176 860.983 832.139C852.294 842.472 833.308 843.719 815.098 835.138C792.77 824.624 755.989 792.215 731.385 761.342C716.932 743.223 698.018 714.228 676.918 677.827C635.73 606.832 616.906 584.792 584.624 569.889C568.51 562.428 559.658 560.838 534.638 560.82C511.334 560.82 506.692 561.506 491.318 567.143C470.85 574.658 453.436 587.972 436.581 608.981C424.604 623.939 416.89 635.826 394.634 673.817C372.793 711.031 353.446 741.109 341.071 757.006C309.62 797.472 267.004 833.006 242.02 839.654C234.542 841.641 219.909 841.731 215.049 839.835Z" fill="url(#paint2_linear_49_610)"/>
<path d="M215.049 839.835C206.143 836.348 203 832.265 203 824.208C203 813.442 208.853 803.795 227.316 784.23C265.975 743.241 292.115 694.212 319.556 611.276C328.191 585.154 334.225 564.559 362.677 463.811C379.441 404.449 394.598 361.201 409.483 330.129C435.714 275.392 466.858 244.772 506.384 234.854C515.832 232.488 520.475 232 534.15 232C569.793 232 593.404 242.297 619.255 269.142C632.984 283.395 644.275 300.123 656.18 323.752C673.305 357.769 687.974 399.264 707.954 470.115C714.367 492.841 723.978 526.93 729.343 545.862C755.754 639.349 779.401 698.024 808.468 742.229C819.126 758.488 827.147 768.514 843.189 785.639C858.725 802.205 864 811.418 864 821.914C864 827.406 863.458 829.176 860.983 832.139C852.294 842.472 833.308 843.719 815.098 835.138C792.77 824.624 755.989 792.215 731.385 761.342C716.932 743.223 698.018 714.228 676.918 677.827C635.73 606.832 616.906 584.792 584.624 569.889C568.51 562.428 559.658 560.838 534.638 560.82C511.334 560.82 506.692 561.506 491.318 567.143C470.85 574.658 453.436 587.972 436.581 608.981C424.604 623.939 416.89 635.826 394.634 673.817C372.793 711.031 353.446 741.109 341.071 757.006C309.62 797.472 267.004 833.006 242.02 839.654C234.542 841.641 219.909 841.731 215.049 839.835Z" fill="url(#paint3_linear_49_610)"/>
<defs>
<radialGradient id="paint0_radial_49_610" cx="0" cy="0" r="1" gradientUnits="userSpaceOnUse" gradientTransform="translate(512 409.6) scale(819.2)">
<stop stop-color="#2F3242"/>
<stop offset="1" stop-color="#1C1E2B"/>
</radialGradient>
<linearGradient id="paint1_linear_49_610" x1="388.347" y1="381.94" x2="482.412" y2="466.846" gradientUnits="userSpaceOnUse">
<stop stop-color="#82C55C"/>
<stop offset="1" stop-color="#82C55C" stop-opacity="0"/>
</linearGradient>
<linearGradient id="paint2_linear_49_610" x1="693.954" y1="422.478" x2="617.81" y2="477.107" gradientUnits="userSpaceOnUse">
<stop stop-color="#E55052"/>
<stop offset="1" stop-color="#E55052" stop-opacity="0"/>
</linearGradient>
<linearGradient id="paint3_linear_49_610" x1="534.15" y1="232" x2="534.15" y2="379.917" gradientUnits="userSpaceOnUse">
<stop stop-color="#F2A41E"/>
<stop offset="1" stop-color="#F2A41E" stop-opacity="0"/>
</linearGradient>
</defs>
</svg>