<svg xmlns="http://www.w3.org/2000/svg" width="960" height="960" viewBox="0 0 960 960" fill="none">
<path d="M740 0H220C98.4974 0 0 98.4974 0 220V740C0 861.503 98.4974 960 220 960H740C861.503 960 960 861.503 960 740V220C960 98.4974 861.503 0 740 0Z" fill="url(#paint0_radial_8_29)"/>
<g filter="url(#filter0_i_8_29)">
<path fill-rule="evenodd" clip-rule="evenodd" d="M473.49 160.794C467.243 162.694 461.902 167.174 458.868 173.059C457.57 175.575 456.878 179.01 456.428 185.159C455.536 197.362 451.979 203.76 443.714 208.033C440.648 209.618 420.675 213.536 415.695 213.529C410.927 213.523 404.286 210.474 400.674 206.634C399.192 205.058 396.585 200.815 394.882 197.205C389.975 186.811 382.075 181.247 372.221 181.247C364.489 181.247 355.439 187.163 351.423 194.844C349.008 199.464 349.252 209.207 351.944 215.666C355.074 223.178 354.914 231.051 351.504 237.337C349.293 241.412 347.661 242.907 338.768 249C332.672 253.176 326.721 256.549 323.976 257.384C315.753 259.884 307.564 257.456 299.879 250.239C293.493 244.241 288.981 242.153 282.242 242.075C265.549 241.883 254.121 258.955 260.574 274.445C261.19 275.924 263.87 279.5 266.529 282.392C274.207 290.743 276.848 299.056 274.365 307.058C272.557 312.882 260.178 330.86 256.133 333.536C248.936 338.298 242.491 338.705 232.132 335.054C228.181 333.661 223.319 332.521 221.327 332.521C215.788 332.521 209.149 335.399 205.168 339.524C200.586 344.275 198.851 347.885 198.316 353.788C197.366 364.255 202.872 372.725 214.053 378.001C221.925 381.715 225.667 385.046 228.363 390.736C230.931 396.16 230.913 399.939 228.251 413.528C225.893 425.563 224.152 429.767 220.115 433.163C214.934 437.522 211.102 438.87 202.012 439.535C192.54 440.228 188.366 441.808 183.706 446.467C175.152 455.02 174.728 468.91 182.742 478.015C187.352 483.251 192.786 485.457 203.071 486.268C212.596 487.019 216.582 488.7 221.35 493.977C225.287 498.335 225.785 499.638 228.323 512.266C230.709 524.141 230.863 528.137 229.127 533.057C226.985 539.13 223.321 542.851 215.703 546.697C206.369 551.408 204.009 553.327 201.194 558.499C194.738 570.358 199.238 584.605 211.301 590.507C217.686 593.629 224.505 593.627 232.092 590.5C241.618 586.573 250.953 587.547 257.631 593.165C261.222 596.185 273.403 614.588 274.553 618.73C276.788 626.776 274.731 633.6 267.683 641.523C260.849 649.205 258.903 653.458 258.968 660.565C259.029 667.123 260.538 671.016 264.889 675.831C269.897 681.372 273.792 683.036 281.817 683.064C290.018 683.092 293.086 681.787 300.104 675.292C302.787 672.807 306.657 670.015 308.701 669.088C313.116 667.086 321.754 666.797 325.833 668.517C329.505 670.066 344.879 680.489 348.333 683.771C354.503 689.635 356.052 700.924 351.971 710.282C348.079 719.205 348.903 727.752 354.35 734.957C361.024 743.787 373.023 746.629 383.005 741.746C388.62 738.999 391.356 735.851 394.942 728.008C399.192 718.716 405.301 713.592 414.051 711.983C417.508 711.348 437.983 715.064 443.126 717.261C446.992 718.912 452.731 724.934 454.544 729.242C455.27 730.967 456.15 736.279 456.499 741.048C457.017 748.112 457.542 750.411 459.333 753.467C464.149 761.682 471.361 765.523 480.889 764.943C487.567 764.536 491.642 762.809 496.076 758.502C500.735 753.978 502.445 749.329 503.167 739.223C503.684 731.987 504.178 729.839 506.067 726.615C510.665 718.772 514.897 716.607 532.146 713.279C542.82 711.218 543.396 711.203 548.868 712.827C555.231 714.717 560.319 719.644 564.035 727.515C565.738 731.125 568.345 735.368 569.827 736.944C578.482 746.148 594.559 746.148 603.292 736.944C609.899 729.979 611.335 720.666 607.404 710.282C603.753 700.639 604.47 692.27 609.56 685.124C611.387 682.559 625.606 672.551 632.202 669.189C634.838 667.844 637.299 667.369 641.552 667.383C648.886 667.407 652.638 669.085 659.45 675.39C665.193 680.707 671.153 683.512 676.706 683.512C686.318 683.512 693.733 678.928 697.937 670.391C700.418 665.353 700.639 664.277 700.267 659.076C699.774 652.192 698.198 648.851 692.659 642.95C687.083 637.009 684.318 630.945 684.307 624.632C684.296 618.36 685.458 615.676 693.312 603.836C700.464 593.052 704.209 589.929 711.899 588.333C716.814 587.313 721.131 587.973 728.479 590.87C747.367 598.313 765.743 581.517 759.904 562.144C758.192 556.462 752.893 551.097 745.722 547.784C738.178 544.3 734.11 540.841 731.523 535.713C728.276 529.276 728.204 526.257 730.966 512.464C733.595 499.332 735.128 495.72 739.698 491.874C744.43 487.894 747.313 486.923 756.355 486.265C766.249 485.545 770.622 483.89 775.492 479.022C779.857 474.657 781.504 470.691 781.896 463.599C782.193 458.224 781.943 456.824 779.967 452.785C775.779 444.226 768.014 439.603 757.828 439.603C747.383 439.603 739.097 435.354 735.124 427.961C732.268 422.647 728.147 401.738 728.975 396.763C730.374 388.357 734.947 382.868 744.225 378.462C755.996 372.871 760.084 367.351 760.628 356.317C760.911 350.603 760.689 349.46 758.491 345.272C756.949 342.334 754.528 339.458 751.963 337.522C744.314 331.741 737.889 331.151 726.361 335.171C720.18 337.326 717.873 337.741 714.006 337.39C705.06 336.579 701.081 333.405 692.001 319.843C685.206 309.693 684.295 307.445 684.317 300.891C684.341 294.152 686.415 289.425 691.887 283.641C698.348 276.81 699.994 273.016 699.994 264.958C699.994 256.978 698.34 253.067 692.88 248.135C688.117 243.833 684 242.227 677.499 242.138C670.325 242.039 665.896 244.056 658.422 250.829C651.759 256.866 645.967 259.113 639.152 258.306C634.252 257.725 631.921 256.578 621.212 249.476C608.403 240.98 605.091 236.23 605.045 226.289C605.027 222.185 605.596 219.406 607.259 215.479C611.553 205.341 609.54 193.508 602.518 187.6C597.219 183.142 593.354 181.712 586.547 181.691C581.057 181.675 579.544 182.02 575.647 184.178C570.196 187.197 567.437 190.576 563.244 199.367C560.762 204.573 559.247 206.6 556.254 208.715C548.461 214.227 545.198 214.527 528.411 211.28C514.386 208.566 510.469 206.414 506.378 199.174C504.222 195.358 503.704 193.288 503.165 186.328C502.364 176 500.17 170.527 495.005 165.981C489.154 160.832 480.347 158.709 473.49 160.794ZM496.871 277.311C570.887 284.267 633.043 334.08 656.686 405.388C659.697 414.469 663.899 433.101 663.899 437.373V439.603H591.704C519.918 439.603 519.508 439.594 518.964 437.879C518.663 436.931 515.856 433.56 512.726 430.387C506.3 423.871 497.849 419.105 489.872 417.496C487.176 416.953 483.662 416.247 482.064 415.929C479.236 415.366 478.202 413.697 443.314 353.327L407.471 291.303L411.683 289.363C422.104 284.565 444.909 279.001 460.745 277.391C471.168 276.331 486.099 276.298 496.871 277.311ZM403.086 376.714C426.159 416.627 438.17 438.207 438.091 439.603C438.024 440.771 436.919 444.596 435.634 448.101C431.71 458.812 432.57 472.705 437.79 482.935L439.328 485.951L403.848 547.371C384.333 581.152 367.942 609.216 367.421 609.737C365.185 611.972 341.278 588.725 329.924 573.275C275.482 499.192 282.577 397.869 346.775 332.602C356.24 322.981 366.459 314.389 367.346 315.31C367.684 315.661 383.767 343.293 403.086 376.714ZM663.899 488.378C663.899 489.496 663.128 494.25 662.187 498.943C646.432 577.524 582.896 637.076 503.84 647.362C490.833 649.055 468.826 649.032 455.511 647.313C439.009 645.182 408.044 636.567 408.044 634.107C408.044 633.666 424.147 605.401 443.827 571.297C479.244 509.927 479.638 509.291 482.291 509.278C486.774 509.257 495.331 506.9 500.627 504.227C506.054 501.488 514.508 494.157 517.78 489.353L519.821 486.357L591.86 486.351L663.899 486.345V488.378Z" fill="url(#paint1_linear_8_29)"/>
</g>
<defs>
<filter id="filter0_i_8_29" x="177" y="160" width="605" height="609" filterUnits="userSpaceOnUse" color-interpolation-filters="sRGB">
<feFlood flood-opacity="0" result="BackgroundImageFix"/>
<feBlend mode="normal" in="SourceGraphic" in2="BackgroundImageFix" result="shape"/>
<feColorMatrix in="SourceAlpha" type="matrix" values="0 0 0 0 0 0 0 0 0 0 0 0 0 0 0 0 0 0 127 0" result="hardAlpha"/>
<feOffset dy="4"/>
<feGaussianBlur stdDeviation="2"/>
<feComposite in2="hardAlpha" operator="arithmetic" k2="-1" k3="1"/>
<feColorMatrix type="matrix" values="0 0 0 0 0 0 0 0 0 0 0 0 0 0 0 0 0 0 0.25 0"/>
<feBlend mode="normal" in2="shape" result="effect1_innerShadow_8_29"/>
</filter>
<radialGradient id="paint0_radial_8_29" cx="0" cy="0" r="1" gradientUnits="userSpaceOnUse" gradientTransform="translate(480 384) scale(768)">
<stop stop-color="#2F3242"/>
<stop offset="1" stop-color="#1C1E2B"/>
</radialGradient>
<linearGradient id="paint1_linear_8_29" x1="479.5" y1="160" x2="479.5" y2="765" gradientUnits="userSpaceOnUse">
<stop stop-color="white"/>
<stop offset="0.25" stop-color="#F8FAFC"/>
<stop offset="0.55" stop-color="#D1D5DB"/>
<stop offset="0.85" stop-color="#9CA3AF"/>
<stop offset="1" stop-color="#4B5563"/>
</linearGradient>
</defs>
</svg>