<svg xmlns="http://www.w3.org/2000/svg" width="1032" height="1034" viewBox="0 0 1032 1034" fill="none">
<g filter="url(#filter0_d_70_94)">
<path d="M793.333 2H238.667C109.064 2 4 107.064 4 236.667V791.333C4 920.936 109.064 1026 238.667 1026H793.333C922.936 1026 1028 920.936 1028 791.333V236.667C1028 107.064 922.936 2 793.333 2Z" fill="url(#paint0_radial_70_94)"/>
<path d="M619.906 368.179C674.946 368.179 725.432 387.594 762.963 419.348C800.879 451.425 826.118 496.56 829.369 547.747L829.441 548.957C832.296 601.287 811.637 649.967 775.221 686.41L773.475 688.136C735.234 725.391 680.834 748.776 619.906 748.776C558.978 748.776 504.469 725.391 466.256 688.136C428.728 651.512 407.415 602.118 410.343 549.011C413.243 497.271 438.58 451.677 476.821 419.348C514.325 387.594 564.812 368.179 619.906 368.179Z" fill="white" stroke="white"/>
<path d="M619.934 461.084C648.118 461.084 673.968 471.027 693.181 487.283C712.743 503.832 725.707 527.167 727.205 553.613C728.689 580.814 717.757 606.091 698.561 624.839C678.985 643.91 651.133 655.885 619.934 655.885C589.221 655.885 561.699 644.281 542.188 625.728L541.265 624.839C522.055 606.092 511.151 580.814 512.648 553.641C514.132 527.167 527.096 503.832 546.673 487.283V487.282C565.872 471.026 591.721 461.085 619.934 461.084Z" fill="#265787" stroke="white"/>
<path d="M517.168 189.5C528.278 189.486 539.156 192.599 547.25 198.812L547.266 198.824L547.283 198.835C547.377 198.896 547.464 198.965 547.564 199.049C547.658 199.127 547.775 199.225 547.898 199.318V199.319L797.287 390.807L797.233 390.848L797.751 391.249C822.47 410.419 843.256 433.191 859.38 459.2V459.201C877.01 487.505 888.457 518.552 893.16 551.642C895.568 568.623 896.117 585.618 894.808 602.585C893.47 619.803 890.134 636.966 884.854 653.878C874.349 687.348 856.607 718.37 831.89 745.777C806.949 773.408 776.302 795.773 740.913 811.877L739.225 812.639C701.276 829.57 660.157 838.305 617.514 838.361H617.513C574.798 838.431 533.679 829.866 495.731 813.062C459.629 797.06 428.376 774.523 402.997 746.469H402.996C378.265 719.175 360.495 688.209 350.02 654.739V654.738L349.557 653.243C344.831 637.673 341.71 618.361 341.533 608.301C341.442 603.132 341.965 596.224 342.514 590.595C342.788 587.783 343.067 585.296 343.278 583.512C343.384 582.62 343.472 581.903 343.534 581.41C343.565 581.164 343.59 580.973 343.606 580.844C343.615 580.779 343.621 580.73 343.625 580.697C343.627 580.681 343.629 580.668 343.63 580.66C343.63 580.656 343.632 580.653 343.632 580.651V580.648L343.797 579.396L342.819 580.196L185.998 708.543C158.952 730.391 122.812 730.408 105.553 709.007L105.148 708.497L104.758 707.989C88.4438 686.42 97.0876 652.584 123.854 632.088L123.859 632.083C124.188 631.823 124.571 631.549 124.944 631.276L124.649 630.873L124.945 631.276L124.954 631.27L412.3 410.709L413.472 409.81L411.994 409.812L251.725 410.12L251.766 410.026L251.011 410.023C237.468 409.974 226.319 405.387 219.199 398.114C212.087 390.849 208.964 380.878 211.493 369.956V369.955C213.956 359.219 221.423 349.566 231.564 342.586C241.386 335.826 253.685 331.598 266.284 331.327L267.505 331.313H267.928L585.625 330.975L587.03 330.974L585.939 330.087L482.136 245.675L482.205 245.606L481.778 245.256C473.78 238.697 470.327 230.254 471.083 221.903C471.816 213.806 476.515 205.726 485.006 199.493L485.84 198.896C494.762 192.655 506.059 189.514 517.168 189.5ZM617.442 409.656C575.51 409.713 535.408 423.606 503.905 449.278L503.904 449.279C488.33 462.002 475.621 476.972 466.243 493.522L465.346 495.129C455.718 512.614 449.686 531.942 447.973 552.205C446.16 572.936 448.893 593.483 455.931 612.841V612.842C463.11 632.538 474.749 651.027 490.587 667.092C522.999 700.056 568.368 718.604 617.515 718.52C666.591 718.42 711.96 699.703 744.371 666.683C759.714 651.051 771.076 633.211 778.311 614.153L778.998 612.305C786.036 592.933 788.77 572.414 786.985 551.712H786.984C785.256 532.028 779.581 513.34 770.436 496.306L769.54 494.662C760.082 477.502 747.072 462.03 731.023 448.954V448.953C699.492 423.366 659.418 409.6 617.442 409.656Z" fill="#EA7600" stroke="white"/>
</g>
<path d="M578 0.000625692C686 0.000625692 1028.05 342.541 1028.05 450.541V234.019C1028.12 203.265 1022.11 172.802 1010.37 144.377C998.633 115.952 981.395 90.1263 959.647 68.382C937.899 46.6377 912.071 29.4033 883.644 17.6685C855.218 5.93364 824.753 -0.0705633 794 0.000625692H578Z" fill="url(#paint1_linear_70_94)"/>
<path d="M578 1C650 19 668 127 686 199C703.46 268.84 743.24 316.81 848 343C920 361 992 354.52 1028 451L1027.95 449.704C1025.97 323.776 729.056 22.42 592.166 1.63C587.414 1.27 582.68 1 578 1Z" fill="url(#paint2_linear_70_94)"/>
<defs>
<filter id="filter0_d_70_94" x="0" y="2" width="1032" height="1032" filterUnits="userSpaceOnUse" color-interpolation-filters="sRGB">
<feFlood flood-opacity="0" result="BackgroundImageFix"/>
<feColorMatrix in="SourceAlpha" type="matrix" values="0 0 0 0 0 0 0 0 0 0 0 0 0 0 0 0 0 0 127 0" result="hardAlpha"/>
<feOffset dy="4"/>
<feGaussianBlur stdDeviation="2"/>
<feComposite in2="hardAlpha" operator="out"/>
<feColorMatrix type="matrix" values="0 0 0 0 0 0 0 0 0 0 0 0 0 0 0 0 0 0 0.25 0"/>
<feBlend mode="normal" in2="BackgroundImageFix" result="effect1_dropShadow_70_94"/>
<feBlend mode="normal" in="SourceGraphic" in2="effect1_dropShadow_70_94" result="shape"/>
</filter>
<radialGradient id="paint0_radial_70_94" cx="0" cy="0" r="1" gradientUnits="userSpaceOnUse" gradientTransform="translate(516 411.6) scale(819.2)">
<stop stop-color="#2F3242"/>
<stop offset="1" stop-color="#1C1E2B"/>
</radialGradient>
<linearGradient id="paint1_linear_70_94" x1="487.976" y1="396.538" x2="487.976" y2="0.519348" gradientUnits="userSpaceOnUse">
<stop stop-color="#FAAE20"/>
<stop offset="1" stop-color="#F5811C"/>
</linearGradient>
<linearGradient id="paint2_linear_70_94" x1="758" y1="271" x2="1029.37" y2="-0.367995" gradientUnits="userSpaceOnUse">
<stop stop-color="white"/>
<stop offset="1" stop-color="#FFEFCC"/>
</linearGradient>
</defs>
</svg>