<svg xmlns="http://www.w3.org/2000/svg" width="1024" height="1024" viewBox="0 0 1024 1024" fill="none">
<path d="M789.333 0H234.667C105.064 0 0 105.064 0 234.667V789.333C0 918.936 105.064 1024 234.667 1024H789.333C918.936 1024 1024 918.936 1024 789.333V234.667C1024 105.064 918.936 0 789.333 0Z" fill="url(#paint0_radial_70_50)"/>
<path d="M405.844 546.983C408.753 495.092 434.163 449.375 472.499 416.967C510.093 385.135 560.694 365.679 615.906 365.679C671.063 365.679 721.664 385.135 759.286 416.967C797.594 449.375 823.005 495.092 825.941 546.928C828.85 600.246 807.418 649.778 769.824 686.494C731.488 723.841 676.963 747.276 615.906 747.276C554.849 747.276 500.214 723.841 461.906 686.494C424.284 649.778 402.908 600.246 405.844 546.983Z" fill="white"/>
<path d="M508.149 551.613C509.642 524.987 522.68 501.529 542.35 484.901C561.64 468.567 587.604 458.584 615.934 458.584C644.235 458.584 670.199 468.567 689.503 484.901C709.16 501.529 722.198 524.987 723.704 551.585C725.197 578.943 714.2 604.358 694.91 623.197C675.24 642.361 647.262 654.385 615.934 654.385C584.605 654.385 556.571 642.361 536.915 623.197C517.611 604.358 506.643 578.943 508.149 551.613Z" fill="#265787"/>
<path d="M337.034 606.31C337.217 616.752 340.547 637.043 345.542 652.889C356.04 686.429 373.848 717.458 398.626 744.804C424.053 772.912 455.364 795.489 491.529 811.518C529.543 828.352 570.731 836.931 613.514 836.861C656.226 836.804 697.415 828.056 735.428 811.095C771.593 794.91 802.876 772.235 828.261 744.113C853.025 716.654 870.804 685.568 881.33 652.028C886.622 635.081 889.966 617.881 891.307 600.623C892.619 583.62 892.069 566.589 889.656 549.572C884.943 516.412 873.471 485.299 855.805 456.937C839.648 430.875 818.821 408.058 794.057 388.854L794.114 388.811L544.203 196.923C543.978 196.754 543.794 196.57 543.554 196.415C527.158 183.829 499.586 183.871 481.553 196.486C463.322 209.242 461.234 230.337 477.461 243.643L477.39 243.714L581.624 328.475L263.927 328.814H263.504C237.245 328.842 212.001 346.071 207.006 367.843C201.87 390.025 219.705 408.425 247.009 408.524L246.967 408.622L407.995 408.312L120.65 628.873C120.283 629.141 119.888 629.423 119.549 629.691C92.443 650.447 83.6804 684.962 100.754 706.805C118.082 729.014 154.924 729.057 182.312 706.932L339.136 578.583C339.136 578.583 336.85 595.911 337.034 606.31ZM740.014 664.332C707.701 697.252 662.463 715.92 613.514 716.019C564.494 716.103 519.256 697.605 486.943 664.741C471.154 648.726 459.555 630.298 452.401 610.67C445.388 591.381 442.665 570.907 444.471 550.249C446.178 530.057 452.189 510.796 461.784 493.37C471.21 476.24 484.192 460.761 500.221 447.666C531.631 422.07 571.62 408.213 613.443 408.157C655.309 408.1 695.27 421.83 726.708 447.342C742.709 460.38 755.677 475.802 765.103 492.904C774.74 510.317 780.709 529.507 782.487 549.755C784.265 570.385 781.541 590.831 774.528 610.134C767.36 629.818 755.804 648.246 740.014 664.332Z" fill="#EA7600"/>
<defs>
<radialGradient id="paint0_radial_70_50" cx="0" cy="0" r="1" gradientUnits="userSpaceOnUse" gradientTransform="translate(512 409.6) scale(819.2)">
<stop stop-color="#2F3242"/>
<stop offset="1" stop-color="#1C1E2B"/>
</radialGradient>
</defs>
</svg>