<svg xmlns="http://www.w3.org/2000/svg" width="1024" height="1024" viewBox="0 0 1024 1024" fill="none">
<path d="M789.333 0H234.667C105.064 0 0 105.064 0 234.667V789.333C0 918.936 105.064 1024 234.667 1024H789.333C918.936 1024 1024 918.936 1024 789.333V234.667C1024 105.064 918.936 0 789.333 0Z" fill="url(#paint0_radial_24_64)"/>
<path d="M803.697 320.809L821.025 278.354L771.928 227.524C745.357 200.953 688.751 216.549 688.751 216.549L624.635 143.769H398.498L334.094 216.838C334.094 216.838 277.487 201.531 250.917 227.524L201.819 278.065L219.148 320.52L197.487 383.48L269.689 658.715C284.708 717.632 294.816 740.448 337.271 770.484L469.256 860.015C481.964 867.812 497.56 881.386 511.711 881.386C525.863 881.386 541.458 867.812 554.166 860.015L686.152 770.484C728.606 740.448 738.715 717.632 753.733 658.715L825.935 383.48L803.697 320.809Z" fill="url(#paint1_linear_24_64)"/>
<path d="M670.844 263.336C670.844 263.336 753.733 363.552 753.733 384.635C753.733 406.296 743.335 411.783 732.938 423.047L670.844 489.473C665.068 495.249 652.65 505.069 659.87 522.108C667.09 539.437 677.198 560.809 665.646 582.758C654.094 604.996 633.877 619.726 620.881 617.415C601.55 611.141 583.107 602.405 566.007 591.422C555.032 584.202 519.798 555.032 519.798 543.769C519.798 532.505 556.187 512 563.119 507.957C569.761 503.336 600.664 485.43 601.242 478.498C601.819 471.567 601.819 469.834 592.577 452.505C583.335 435.177 567.162 412.072 569.473 397.054C572.361 382.036 598.353 373.949 617.704 366.729L677.487 344.202C682.108 341.892 680.953 339.87 667.09 338.426C653.227 337.271 614.238 332.072 596.621 336.982C579.003 341.892 549.545 349.401 546.657 353.444C544.346 357.487 542.036 357.487 544.635 371.35L561.386 462.325C562.541 473.877 564.852 481.675 552.722 484.563C540.014 487.451 518.931 492.361 511.711 492.361C504.491 492.361 483.119 487.451 470.7 484.563C458.281 481.675 460.592 473.877 462.036 462.325C463.191 450.773 475.899 384.924 478.498 371.35C481.386 357.487 478.787 357.487 476.476 353.444C473.588 349.401 443.841 341.892 426.224 336.982C408.895 332.072 369.617 337.271 355.754 338.715C341.891 339.87 340.736 341.603 345.357 344.491L405.14 366.729C424.202 373.949 450.772 382.036 453.372 397.054C456.26 412.361 439.798 435.177 430.267 452.505C420.736 469.834 421.025 471.567 421.603 478.498C422.18 485.43 453.372 503.336 459.725 507.957C466.657 512.289 503.047 532.505 503.047 543.769C503.047 555.032 468.678 584.202 457.126 591.422C440.026 602.405 421.583 611.141 402.252 617.415C389.256 619.726 369.039 604.996 357.198 582.758C345.646 560.809 356.043 539.437 362.974 522.108C370.195 504.78 358.065 495.538 352 489.473L289.906 423.047C279.798 412.361 269.4 406.585 269.4 385.213C269.4 363.841 352.288 263.913 352.288 263.913L431.133 276.621C440.375 276.621 460.881 268.823 479.653 262.18C498.426 256.404 511.422 255.827 511.422 255.827C511.422 255.827 524.13 255.827 543.191 262.18C562.252 268.534 582.469 276.621 591.711 276.621C601.242 276.621 671.133 263.047 671.133 263.047L670.844 263.336ZM608.751 646.874C613.949 649.762 610.772 656.115 605.862 659.581L532.505 716.765C526.729 722.541 517.487 731.206 511.422 731.206C505.357 731.206 496.404 722.541 490.339 716.765C466.024 697.404 441.474 678.342 416.693 659.581C412.072 656.115 408.895 650.05 413.805 646.874L457.126 623.769C474.346 614.66 492.567 607.585 511.422 602.686C515.754 602.686 543.191 612.505 565.429 623.769L608.751 646.874Z" fill="white"/>
<path d="M689.329 216.838L624.635 143.769H398.498L334.094 216.838C334.094 216.838 277.487 201.531 250.917 227.524C250.917 227.524 326.007 220.881 352 263.047L431.711 276.621C440.953 276.621 461.459 268.823 480.231 262.181C499.004 256.404 512 255.827 512 255.827C512 255.827 524.708 255.827 543.769 262.181C562.83 268.534 583.047 276.621 592.289 276.621C601.82 276.621 671.711 263.047 671.711 263.047C697.704 220.881 772.794 227.524 772.794 227.524C746.224 200.953 689.617 216.549 689.617 216.549" fill="url(#paint2_linear_24_64)"/>
<defs>
<radialGradient id="paint0_radial_24_64" cx="0" cy="0" r="1" gradientUnits="userSpaceOnUse" gradientTransform="translate(512 409.6) scale(819.2)">
<stop stop-color="#2F3242"/>
<stop offset="1" stop-color="#1C1E2B"/>
</radialGradient>
<linearGradient id="paint1_linear_24_64" x1="197.487" y1="519.954" x2="825.935" y2="519.954" gradientUnits="userSpaceOnUse">
<stop offset="0.4" stop-color="#FF5500"/>
<stop offset="0.6" stop-color="#FF2000"/>
</linearGradient>
<linearGradient id="paint2_linear_24_64" x1="261.355" y1="211.524" x2="772.794" y2="211.524" gradientUnits="userSpaceOnUse">
<stop stop-color="#FF452A"/>
<stop offset="1" stop-color="#FF2000"/>
</linearGradient>
</defs>
</svg>