<svg xmlns="http://www.w3.org/2000/svg" width="1024" height="1024" viewBox="0 0 1024 1024" fill="none">
<path d="M789.333 0H234.667C105.064 0 0 105.064 0 234.667V789.333C0 918.936 105.064 1024 234.667 1024H789.333C918.936 1024 1024 918.936 1024 789.333V234.667C1024 105.064 918.936 0 789.333 0Z" fill="url(#paint0_radial_49_837)"/>
<circle cx="292.5" cy="750.5" r="167" fill="url(#paint1_linear_49_837)" stroke="white" stroke-width="7"/>
<circle cx="292.5" cy="341.5" r="167" fill="url(#paint2_linear_49_837)" stroke="white" stroke-width="7"/>
<rect x="595.5" y="156.5" width="336" height="743" rx="168" fill="url(#paint3_linear_49_837)" stroke="white" stroke-width="7"/>
<path d="M276.443 397.571V280.384H296.33V397.571H276.443ZM227.793 348.92V329.034H344.98V348.92H227.793Z" fill="white"/>
<path d="M715.699 503.287V484.111H825.074V503.287H715.699ZM715.699 555.844V536.668H825.074V555.844H715.699Z" fill="white"/>
<path d="M328.301 763.713V744.182H248.756V763.713H328.301Z" fill="white"/>
<defs>
<radialGradient id="paint0_radial_49_837" cx="0" cy="0" r="1" gradientUnits="userSpaceOnUse" gradientTransform="translate(512 409.6) scale(819.2)">
<stop stop-color="#2F3242"/>
<stop offset="1" stop-color="#1C1E2B"/>
</radialGradient>
<linearGradient id="paint1_linear_49_837" x1="292.5" y1="580" x2="292.5" y2="921" gradientUnits="userSpaceOnUse">
<stop stop-color="#FA0303"/>
<stop offset="1" stop-color="#DD0000"/>
</linearGradient>
<linearGradient id="paint2_linear_49_837" x1="292.5" y1="171" x2="292.5" y2="512" gradientUnits="userSpaceOnUse">
<stop stop-color="#FF0303"/>
<stop offset="1" stop-color="#D80000"/>
</linearGradient>
<linearGradient id="paint3_linear_49_837" x1="763.5" y1="153" x2="763.5" y2="903" gradientUnits="userSpaceOnUse">
<stop stop-color="#18FF10"/>
<stop offset="1" stop-color="#00CF1F"/>
</linearGradient>
</defs>
</svg>