<svg xmlns="http://www.w3.org/2000/svg" width="1024" height="1024" viewBox="0 0 1024 1024" fill="none">
<path d="M789.333 0H234.667C105.064 0 0 105.064 0 234.667V789.333C0 918.936 105.064 1024 234.667 1024H789.333C918.936 1024 1024 918.936 1024 789.333V234.667C1024 105.064 918.936 0 789.333 0Z" fill="url(#paint0_radial_25_134)"/>
<path d="M773.086 313.8L780.586 302.45L793.686 310.4L799.486 314.55C813.486 325.35 842.936 352.95 849.286 398.75C860.436 396.75 871.686 395.75 882.936 395.75C909.636 395.75 927.586 401.95 937.786 407.1L943.036 409.95L946.436 412.2L955.986 420L952.686 430C947.557 443.709 939.543 456.157 929.186 466.5C914.686 481.45 889.186 499.1 848.736 501.4L839.836 501.65H832.436C813.936 550.5 789.086 605.55 747.336 654.95C722.564 684.305 693.18 709.433 660.336 729.35C620.961 752.711 577.842 769.085 532.886 777.75C500.686 784 467.986 787.1 435.236 787C362.736 787 298.736 772.6 259.386 747.4C224.236 724.95 197.236 688.3 179.086 638.55C163.202 593.09 155.401 545.201 156.036 497.05C155.954 490.877 158.088 484.878 162.051 480.144C166.015 475.41 171.544 472.255 177.636 471.25L181.036 471H708.036L712.636 470.65L720.086 469.85C732.886 468.15 752.386 464.35 766.086 456.35C749.686 429.2 745.036 397.45 752.686 363.65C755.89 349.551 760.933 335.934 767.686 323.15L773.086 313.8ZM300.486 376.2L302.486 376.55C303.399 376.892 304.222 377.439 304.89 378.15C305.557 378.862 306.052 379.717 306.336 380.65L306.636 382.65V448.4L306.336 450.45C306.047 451.388 305.544 452.247 304.868 452.958C304.191 453.67 303.359 454.215 302.436 454.55L300.486 454.85H229.886C228.57 454.832 227.294 454.396 226.242 453.605C225.191 452.814 224.418 451.709 224.036 450.45L223.686 448.45V382.6L224.036 380.6C224.318 379.652 224.817 378.784 225.495 378.063C226.172 377.343 227.008 376.79 227.936 376.45L229.886 376.15L300.486 376.2ZM397.836 376.2L399.786 376.55C400.709 376.885 401.541 377.43 402.218 378.142C402.894 378.853 403.397 379.712 403.686 380.65L403.986 382.65V448.4L403.636 450.45C403.347 451.388 402.844 452.247 402.168 452.958C401.491 453.67 400.659 454.215 399.736 454.55L397.786 454.85H327.186C325.872 454.825 324.6 454.386 323.549 453.596C322.499 452.806 321.725 451.705 321.336 450.45L320.986 448.5V382.65C320.975 381.312 321.378 380.004 322.138 378.903C322.899 377.802 323.981 376.963 325.236 376.5L327.186 376.15L397.836 376.2ZM496.636 376.2L498.586 376.55C499.499 376.892 500.322 377.439 500.99 378.15C501.657 378.862 502.152 379.717 502.436 380.65L502.786 382.65V448.4L502.436 450.45C502.147 451.388 501.644 452.247 500.968 452.958C500.291 453.67 499.459 454.215 498.536 454.55L496.586 454.85H425.986C424.67 454.832 423.394 454.396 422.342 453.605C421.29 452.814 420.518 451.709 420.136 450.45L419.836 448.45V382.6L420.136 380.6C420.418 379.652 420.917 378.784 421.595 378.063C422.272 377.343 423.108 376.79 424.036 376.45L425.986 376.15L496.636 376.2ZM594.236 376.2L596.186 376.55C597.109 376.885 597.941 377.43 598.618 378.142C599.294 378.853 599.797 379.712 600.086 380.65L600.436 382.65V448.4C600.446 449.738 600.044 451.046 599.283 452.147C598.523 453.248 597.441 454.087 596.186 454.55L594.186 454.85H523.636C522.32 454.832 521.044 454.396 519.992 453.605C518.94 452.814 518.168 451.709 517.786 450.45L517.486 448.45V382.6L517.786 380.6C518.068 379.652 518.567 378.784 519.245 378.063C519.922 377.343 520.758 376.79 521.686 376.45L523.686 376.15H594.286L594.236 376.2ZM692.736 376.2L694.686 376.55C695.609 376.885 696.441 377.43 697.118 378.142C697.794 378.853 698.297 379.712 698.586 380.65L698.886 382.65V448.4C698.896 449.738 698.494 451.046 697.733 452.147C696.973 453.248 695.891 454.087 694.636 454.55L692.686 454.85H622.086C620.77 454.832 619.494 454.396 618.442 453.605C617.391 452.814 616.618 451.709 616.236 450.45L615.936 448.45V382.6L616.236 380.6C616.518 379.652 617.017 378.784 617.695 378.063C618.372 377.343 619.208 376.79 620.136 376.45L622.136 376.15H692.686L692.736 376.2ZM397.736 281.6L399.736 281.95C400.644 282.287 401.463 282.827 402.13 283.529C402.798 284.231 403.295 285.076 403.586 286L403.936 288.05V353.8C403.946 355.138 403.544 356.446 402.783 357.547C402.023 358.648 400.941 359.487 399.686 359.95L397.736 360.3H327.186C325.859 360.268 324.577 359.815 323.526 359.006C322.474 358.197 321.707 357.074 321.336 355.8L320.986 353.8V288.05C320.985 286.721 321.393 285.423 322.153 284.332C322.913 283.242 323.989 282.41 325.236 281.95L327.186 281.6H397.736ZM496.536 281.6L498.536 281.95C499.444 282.287 500.263 282.827 500.93 283.529C501.598 284.231 502.095 285.076 502.386 286L502.736 288.05V353.8C502.746 355.138 502.344 356.446 501.583 357.547C500.823 358.648 499.741 359.487 498.486 359.95L496.536 360.3H425.986C424.659 360.268 423.377 359.815 422.326 359.006C421.274 358.197 420.507 357.074 420.136 355.8L419.836 353.8V288.05L420.136 286.05C420.425 285.112 420.927 284.253 421.604 283.542C422.281 282.83 423.113 282.285 424.036 281.95L425.986 281.6H496.536ZM594.186 281.6C596.886 281.6 599.186 283.45 600.036 286L600.386 288.05V353.8C600.396 355.138 599.994 356.446 599.233 357.547C598.473 358.648 597.391 359.487 596.136 359.95L594.136 360.3H523.636C522.309 360.268 521.027 359.815 519.976 359.006C518.924 358.197 518.157 357.074 517.786 355.8L517.486 353.8V288.05L517.786 286.05C518.075 285.112 518.577 284.253 519.254 283.542C519.931 282.83 520.763 282.285 521.686 281.95L523.686 281.6H594.286H594.186ZM594.186 187C596.886 187 599.186 188.85 600.036 191.4L600.386 193.4V259.2C600.396 260.538 599.994 261.846 599.233 262.947C598.473 264.048 597.391 264.887 596.136 265.35L594.136 265.65H523.636C522.32 265.632 521.044 265.196 519.992 264.405C518.94 263.614 518.168 262.509 517.786 261.25L517.486 259.25V193.4L517.786 191.4C518.075 190.462 518.577 189.603 519.254 188.892C519.931 188.18 520.763 187.635 521.686 187.3L523.636 187H594.236H594.186Z" fill="#2396ED"/>
<defs>
<radialGradient id="paint0_radial_25_134" cx="0" cy="0" r="1" gradientUnits="userSpaceOnUse" gradientTransform="translate(512 409.6) scale(819.2)">
<stop stop-color="#2F3242"/>
<stop offset="1" stop-color="#1C1E2B"/>
</radialGradient>
</defs>
</svg>