<svg xmlns="http://www.w3.org/2000/svg" width="1024" height="1024" viewBox="0 0 1024 1024" fill="none">
<path d="M789.333 0H234.667C105.064 0 0 105.064 0 234.667V789.333C0 918.936 105.064 1024 234.667 1024H789.333C918.936 1024 1024 918.936 1024 789.333V234.667C1024 105.064 918.936 0 789.333 0Z" fill="url(#paint0_radial_24_13)"/>
<path d="M836.762 380.163C821.54 343.435 790.683 303.785 766.46 291.26C786.175 330.004 797.58 368.865 801.94 397.86C801.94 397.86 801.94 398.065 802.013 398.445C762.39 299.444 695.192 259.516 640.317 172.602C637.532 168.217 634.763 163.833 632.05 159.142C630.518 156.496 629.278 154.099 628.2 151.834C625.925 147.439 624.168 142.795 622.965 137.994C622.975 137.766 622.897 137.542 622.752 137.367C622.607 137.191 622.403 137.076 622.178 137.044C621.963 136.985 621.735 136.985 621.52 137.044C621.463 137.07 621.407 137.105 621.36 137.146C621.272 137.146 621.185 137.249 621.097 137.278L621.242 137.088C533.207 188.766 503.34 284.362 500.6 332.196C465.42 334.607 431.782 347.59 404.075 369.45C401.18 366.995 398.152 364.703 395.005 362.58C387.02 334.568 386.683 304.921 394.028 276.733C358.023 293.174 330.024 319.116 309.666 342.076H309.506C295.608 324.436 296.585 266.254 297.373 254.109C297.212 253.349 287.019 259.414 285.706 260.335C273.443 269.103 261.98 278.943 251.451 289.74C239.47 301.914 228.524 315.069 218.727 329.069C196.188 361.081 180.204 397.253 171.698 435.495C171.537 436.255 171.391 437.043 171.231 437.818C170.575 440.903 168.198 456.378 167.775 459.74V460.515C164.676 476.508 162.746 492.705 162 508.978V510.775C162 704.743 318.911 862 512.455 862C685.802 862 829.72 735.872 857.91 570.2C858.492 565.712 858.973 561.182 859.498 556.65C866.47 496.407 858.725 433.098 836.762 380.163ZM432.817 655.097C434.452 655.872 435.998 656.735 437.675 657.493L437.907 657.64C436.23 656.822 434.51 655.975 432.817 655.097ZM802.042 398.605V398.27V398.65V398.605Z" fill="url(#paint1_linear_24_13)"/>
<path d="M836.768 380.162C821.545 343.435 790.688 303.785 766.465 291.26C786.18 330.004 797.585 368.865 801.945 397.86V398.578C835.02 488.43 816.995 579.803 791.038 635.63C750.875 722.005 653.653 810.54 501.45 806.23C337.145 801.552 192.294 679.213 165.243 519.105C160.314 493.838 165.243 481.02 167.722 460.515C164.703 476.313 163.551 480.887 162.049 508.977V510.775C162.049 704.745 318.961 862 512.505 862C685.85 862 829.77 735.872 857.958 570.2C858.54 565.712 859.023 561.183 859.548 556.653C866.475 496.41 858.73 433.097 836.768 380.162Z" fill="url(#paint2_radial_24_13)"/>
<path d="M836.768 380.162C821.545 343.435 790.688 303.785 766.465 291.26C786.18 330.004 797.585 368.865 801.945 397.86V398.578C835.02 488.43 816.995 579.803 791.038 635.63C750.875 722.005 653.653 810.54 501.45 806.23C337.145 801.552 192.294 679.213 165.243 519.105C160.314 493.838 165.243 481.02 167.722 460.515C164.703 476.313 163.551 480.887 162.049 508.977V510.775C162.049 704.745 318.961 862 512.505 862C685.85 862 829.77 735.872 857.958 570.2C858.54 565.712 859.023 561.183 859.548 556.653C866.475 496.41 858.73 433.097 836.768 380.162Z" fill="url(#paint3_radial_24_13)"/>
<path d="M666.44 421.432C667.213 421.972 667.898 422.512 668.628 423.055C659.833 407.402 648.873 393.075 636.078 380.495C527.145 271.323 607.525 143.764 621.073 137.275L621.218 137.085C533.183 188.763 503.315 284.359 500.575 332.194C504.658 331.916 508.725 331.565 512.883 331.565C578.578 331.565 635.8 367.78 666.44 421.432Z" fill="url(#paint4_radial_24_13)"/>
<path d="M513.115 443.247C512.547 452.015 481.747 482.123 470.972 482.123C371.312 482.123 355.14 542.54 355.14 542.54C359.514 593.43 394.892 635.33 437.692 657.5C439.647 658.51 441.615 659.415 443.527 660.322C446.952 661.782 450.395 663.245 453.822 664.545C468.5 669.735 483.87 672.69 499.422 673.315C674.095 681.528 707.957 464 581.887 400.835C614.16 395.208 647.672 408.23 666.382 421.398C635.757 367.748 578.52 331.531 512.825 331.531C508.667 331.531 504.6 331.882 500.515 332.16C465.362 334.601 431.757 347.597 404.08 369.457C409.432 374.002 415.47 380.052 428.17 392.592C452 416.152 512.985 440.397 513.115 443.247Z" fill="url(#paint5_radial_24_13)"/>
<path d="M513.115 443.247C512.547 452.015 481.747 482.123 470.972 482.123C371.312 482.123 355.14 542.54 355.14 542.54C359.514 593.43 394.892 635.33 437.692 657.5C439.647 658.51 441.615 659.415 443.527 660.322C446.952 661.782 450.395 663.245 453.822 664.545C468.5 669.735 483.87 672.69 499.422 673.315C674.095 681.528 707.957 464 581.887 400.835C614.16 395.208 647.672 408.23 666.382 421.398C635.757 367.748 578.52 331.531 512.825 331.531C508.667 331.531 504.6 331.882 500.515 332.16C465.362 334.601 431.757 347.597 404.08 369.457C409.432 374.002 415.47 380.052 428.17 392.592C452 416.152 512.985 440.397 513.115 443.247Z" fill="url(#paint6_radial_24_13)"/>
<path d="M387.777 357.773C390.62 359.615 392.955 361.164 395.067 362.582C387.085 334.569 386.747 304.922 394.092 276.734C358.086 293.175 330.087 319.117 309.729 342.077C311.377 342.033 362.212 341.112 387.777 357.773Z" fill="url(#paint7_radial_24_13)"/>
<path d="M165.243 519.1C192.294 679.207 337.145 801.547 501.567 806.225C653.767 810.535 750.935 722 791.152 635.625C817.11 579.782 835.135 488.425 802.063 398.572V397.9C802.063 397.987 802.063 398.105 802.135 398.485C814.56 479.845 773.275 558.662 708.73 611.965C708.665 612.112 708.603 612.265 708.543 612.417C582.765 715.057 462.412 674.34 438.045 657.722C436.352 656.905 434.647 656.057 432.955 655.18C359.617 620.105 329.329 553.095 335.818 495.672C273.914 495.672 252.798 443.322 252.798 443.322C252.798 443.322 308.388 403.6 381.653 438.15C449.508 470.155 513.232 443.322 513.232 443.322C513.102 440.472 452.118 416.155 428.333 392.667C415.63 380.127 409.593 374.077 404.24 369.532C401.345 367.077 398.318 364.785 395.17 362.662C393.085 361.202 390.795 359.741 387.88 357.855C362.315 341.194 311.48 342.115 309.803 342.159H309.642C295.745 324.519 296.722 266.337 297.509 254.192C297.349 253.432 287.155 259.497 285.843 260.418C273.58 269.186 262.116 279.026 251.588 289.823C239.607 301.997 228.661 315.152 218.864 329.152C196.325 361.164 180.34 397.335 171.834 435.577C171.557 436.25 159.089 490.807 165.243 519.1Z" fill="url(#paint8_radial_24_13)"/>
<path d="M636.085 380.498C648.88 393.078 659.838 407.405 668.633 423.058C670.458 424.428 672.208 425.893 673.883 427.44C753.33 500.75 711.77 604.53 708.605 611.983C773.15 558.683 814.433 479.865 802.008 398.503C762.388 299.444 695.19 259.516 640.313 172.602C637.528 168.217 634.758 163.833 632.045 159.142C630.515 156.496 629.275 154.099 628.195 151.834C625.923 147.439 624.165 142.795 622.96 137.994C622.97 137.766 622.895 137.542 622.75 137.367C622.603 137.191 622.398 137.076 622.173 137.044C621.958 136.985 621.733 136.985 621.518 137.044C621.458 137.07 621.405 137.105 621.355 137.146C621.268 137.146 621.18 137.249 621.093 137.278C607.533 143.767 527.15 271.325 636.085 380.498Z" fill="url(#paint9_radial_24_13)"/>
<path d="M673.857 427.365C672.182 425.815 670.43 424.352 668.607 422.98C667.892 422.44 667.15 421.9 666.42 421.357C647.71 408.205 614.2 395.167 581.927 400.795C707.982 463.96 674.135 681.487 499.462 673.275C483.91 672.65 468.54 669.695 453.86 664.505C450.435 663.22 446.992 661.802 443.565 660.282C441.582 659.375 439.612 658.47 437.732 657.462L437.965 657.607C462.332 674.27 582.685 714.985 708.462 612.302C708.462 612.302 708.535 612.112 708.652 611.847C711.772 604.527 753.335 500.747 673.857 427.365Z" fill="url(#paint10_radial_24_13)"/>
<path d="M355.133 542.537C355.133 542.537 371.305 482.12 470.965 482.12C481.743 482.12 512.54 451.985 513.11 443.245C513.678 434.505 449.383 470.077 381.528 438.07C308.264 403.52 252.674 443.245 252.674 443.245C252.674 443.245 273.79 495.595 335.694 495.595C329.205 553.017 359.493 619.967 432.83 655.102C434.465 655.875 436.01 656.737 437.688 657.497C394.885 635.372 359.552 593.427 355.133 542.537Z" fill="url(#paint11_radial_24_13)"/>
<path d="M836.762 380.163C821.54 343.435 790.683 303.785 766.46 291.26C786.175 330.004 797.58 368.865 801.94 397.86C801.94 397.86 801.94 398.065 802.013 398.445C762.39 299.444 695.192 259.516 640.317 172.602C637.532 168.217 634.763 163.833 632.05 159.142C630.518 156.496 629.278 154.099 628.2 151.834C625.925 147.439 624.168 142.795 622.965 137.994C622.975 137.766 622.897 137.542 622.752 137.367C622.607 137.191 622.403 137.076 622.178 137.044C621.963 136.985 621.735 136.985 621.52 137.044C621.463 137.07 621.407 137.105 621.36 137.146C621.272 137.146 621.185 137.249 621.097 137.278L621.242 137.088C533.207 188.766 503.34 284.362 500.6 332.196C504.682 331.918 508.753 331.568 512.908 331.568C578.603 331.568 635.828 367.783 666.465 421.435C647.755 408.28 614.245 395.245 581.973 400.873C708.025 464.038 674.18 681.565 499.505 673.35C483.955 672.725 468.582 669.77 453.905 664.583C450.477 663.295 447.037 661.877 443.61 660.357C441.627 659.452 439.658 658.545 437.778 657.538L438.01 657.682C436.317 656.865 434.612 656.017 432.92 655.14C434.552 655.915 436.1 656.778 437.778 657.538C394.888 635.368 359.554 593.423 355.135 542.533C355.135 542.533 371.307 482.115 470.967 482.115C481.745 482.115 512.543 451.98 513.113 443.24C512.98 440.39 451.995 416.07 428.21 392.585C415.508 380.045 409.47 373.995 404.12 369.45C401.223 366.995 398.195 364.703 395.048 362.58C387.065 334.568 386.727 304.921 394.072 276.733C358.066 293.174 330.068 319.116 309.71 342.076H309.549C295.652 324.436 296.629 266.254 297.416 254.109C297.256 253.349 287.063 259.414 285.75 260.335C273.487 269.103 262.024 278.943 251.495 289.74C239.514 301.914 228.568 315.069 218.771 329.069C196.232 361.081 180.247 397.253 171.741 435.495C171.581 436.255 171.435 437.043 171.275 437.818C170.619 440.903 167.643 456.598 167.235 459.96C167.235 460.223 167.235 459.71 167.235 459.96C164.505 476.178 162.757 492.548 162 508.978V510.775C162 704.743 318.911 862 512.455 862C685.802 862 829.72 735.872 857.91 570.2C858.492 565.712 858.973 561.182 859.498 556.65C866.47 496.407 858.725 433.098 836.762 380.163Z" fill="url(#paint12_linear_24_13)"/>
<defs>
<radialGradient id="paint0_radial_24_13" cx="0" cy="0" r="1" gradientUnits="userSpaceOnUse" gradientTransform="translate(512 409.6) scale(819.2)">
<stop stop-color="#2F3242"/>
<stop offset="1" stop-color="#1C1E2B"/>
</radialGradient>
<linearGradient id="paint1_linear_24_13" x1="790.375" y1="249.315" x2="207.348" y2="810.593" gradientUnits="userSpaceOnUse">
<stop offset="0.05" stop-color="#FFF44F"/>
<stop offset="0.11" stop-color="#FFE847"/>
<stop offset="0.22" stop-color="#FFC830"/>
<stop offset="0.37" stop-color="#FF980E"/>
<stop offset="0.4" stop-color="#FF8B16"/>
<stop offset="0.46" stop-color="#FF672A"/>
<stop offset="0.53" stop-color="#FF3647"/>
<stop offset="0.7" stop-color="#E31587"/>
</linearGradient>
<radialGradient id="paint2_radial_24_13" cx="0" cy="0" r="1" gradientUnits="userSpaceOnUse" gradientTransform="translate(763.49 217.47) scale(730.615 732.22)">
<stop offset="0.13" stop-color="#FFBD4F"/>
<stop offset="0.19" stop-color="#FFAC31"/>
<stop offset="0.25" stop-color="#FF9D17"/>
<stop offset="0.28" stop-color="#FF980E"/>
<stop offset="0.4" stop-color="#FF563B"/>
<stop offset="0.47" stop-color="#FF3750"/>
<stop offset="0.71" stop-color="#F5156C"/>
<stop offset="0.78" stop-color="#EB0878"/>
<stop offset="0.86" stop-color="#E50080"/>
</radialGradient>
<radialGradient id="paint3_radial_24_13" cx="0" cy="0" r="1" gradientUnits="userSpaceOnUse" gradientTransform="translate(496.523 516.812) scale(730.615 732.22)">
<stop offset="0.3" stop-color="#960E18"/>
<stop offset="0.35" stop-color="#B11927" stop-opacity="0.74"/>
<stop offset="0.43" stop-color="#DB293D" stop-opacity="0.34"/>
<stop offset="0.5" stop-color="#F5334B" stop-opacity="0.09"/>
<stop offset="0.53" stop-color="#FF3750" stop-opacity="0"/>
</radialGradient>
<radialGradient id="paint4_radial_24_13" cx="0" cy="0" r="1" gradientUnits="userSpaceOnUse" gradientTransform="translate(584.6 51.2962) scale(529.3 530.46)">
<stop offset="0.13" stop-color="#FFF44F"/>
<stop offset="0.25" stop-color="#FFDC3E"/>
<stop offset="0.51" stop-color="#FF9D12"/>
<stop offset="0.53" stop-color="#FF980E"/>
</radialGradient>
<radialGradient id="paint5_radial_24_13" cx="0" cy="0" r="1" gradientUnits="userSpaceOnUse" gradientTransform="translate(415.717 708.083) scale(347.875 348.638)">
<stop offset="0.35" stop-color="#3A8EE6"/>
<stop offset="0.47" stop-color="#5C79F0"/>
<stop offset="0.67" stop-color="#9059FF"/>
<stop offset="1" stop-color="#C139E6"/>
</radialGradient>
<radialGradient id="paint6_radial_24_13" cx="0" cy="0" r="1" gradientUnits="userSpaceOnUse" gradientTransform="translate(507.012 429.798) rotate(-13.9265) scale(184.329 216.963)">
<stop offset="0.21" stop-color="#9059FF" stop-opacity="0"/>
<stop offset="0.28" stop-color="#8C4FF3" stop-opacity="0.06"/>
<stop offset="0.75" stop-color="#7716A8" stop-opacity="0.45"/>
<stop offset="0.97" stop-color="#6E008B" stop-opacity="0.6"/>
</radialGradient>
<radialGradient id="paint7_radial_24_13" cx="0" cy="0" r="1" gradientUnits="userSpaceOnUse" gradientTransform="translate(487.275 187.51) scale(250.27 250.82)">
<stop stop-color="#FFE226"/>
<stop offset="0.12" stop-color="#FFDB27"/>
<stop offset="0.3" stop-color="#FFC82A"/>
<stop offset="0.5" stop-color="#FFA930"/>
<stop offset="0.73" stop-color="#FF7E37"/>
<stop offset="0.79" stop-color="#FF7139"/>
</radialGradient>
<radialGradient id="paint8_radial_24_13" cx="0" cy="0" r="1" gradientUnits="userSpaceOnUse" gradientTransform="translate(684.013 28.4217) scale(1067.77 1070.11)">
<stop offset="0.11" stop-color="#FFF44F"/>
<stop offset="0.46" stop-color="#FF980E"/>
<stop offset="0.62" stop-color="#FF5634"/>
<stop offset="0.72" stop-color="#FF3647"/>
<stop offset="0.9" stop-color="#E31587"/>
</radialGradient>
<radialGradient id="paint9_radial_24_13" cx="0" cy="0" r="1" gradientUnits="userSpaceOnUse" gradientTransform="translate(580.793 145.344) rotate(84.2447) scale(779.99 511.357)">
<stop stop-color="#FFF44F"/>
<stop offset="0.06" stop-color="#FFE847"/>
<stop offset="0.17" stop-color="#FFC830"/>
<stop offset="0.3" stop-color="#FF980E"/>
<stop offset="0.36" stop-color="#FF8B16"/>
<stop offset="0.45" stop-color="#FF672A"/>
<stop offset="0.57" stop-color="#FF3647"/>
<stop offset="0.74" stop-color="#E31587"/>
</radialGradient>
<radialGradient id="paint10_radial_24_13" cx="0" cy="0" r="1" gradientUnits="userSpaceOnUse" gradientTransform="translate(481.392 280.398) scale(666.61 668.075)">
<stop offset="0.14" stop-color="#FFF44F"/>
<stop offset="0.48" stop-color="#FF980E"/>
<stop offset="0.59" stop-color="#FF5634"/>
<stop offset="0.66" stop-color="#FF3647"/>
<stop offset="0.9" stop-color="#E31587"/>
</radialGradient>
<radialGradient id="paint11_radial_24_13" cx="0" cy="0" r="1" gradientUnits="userSpaceOnUse" gradientTransform="translate(657.363 319.515) scale(729.61 731.21)">
<stop offset="0.09" stop-color="#FFF44F"/>
<stop offset="0.23" stop-color="#FFE141"/>
<stop offset="0.51" stop-color="#FFAF1E"/>
<stop offset="0.63" stop-color="#FF980E"/>
</radialGradient>
<linearGradient id="paint12_linear_24_13" x1="783.375" y1="246.305" x2="287.261" y2="741.348" gradientUnits="userSpaceOnUse">
<stop offset="0.17" stop-color="#FFF44F" stop-opacity="0.8"/>
<stop offset="0.27" stop-color="#FFF44F" stop-opacity="0.63"/>
<stop offset="0.49" stop-color="#FFF44F" stop-opacity="0.22"/>
<stop offset="0.6" stop-color="#FFF44F" stop-opacity="0"/>
</linearGradient>
</defs>
</svg>