<svg xmlns="http://www.w3.org/2000/svg" width="1024" height="1024" viewBox="0 0 1024 1024" fill="none">
<path d="M789.333 0H234.667C105.064 0 0 105.064 0 234.667V789.333C0 918.936 105.064 1024 234.667 1024H789.333C918.936 1024 1024 918.936 1024 789.333V234.667C1024 105.064 918.936 0 789.333 0Z" fill="url(#paint0_radial_24_63)"/>
<path d="M493.109 135.062C493.109 135.062 699.414 125.837 808.792 332.464H475.554C475.554 332.464 412.667 330.444 358.947 406.466C343.514 438.373 326.927 471.241 345.542 536.018C318.726 490.751 203.18 290.275 203.18 290.275C203.18 290.275 284.682 143.231 493.109 135.062Z" fill="#EF3F36"/>
<path d="M798.082 659.613C798.082 659.613 702.885 842.308 468.707 833.276C497.642 783.396 635.372 545.726 635.372 545.726C635.372 545.726 668.647 492.483 629.392 408.103C609.425 378.791 589.075 348.133 523.49 331.794C576.25 331.317 808.21 331.794 808.21 331.794C808.21 331.794 895.11 475.666 798.082 659.613Z" fill="#FCD900"/>
<path d="M189.579 661.046C189.579 661.046 78.3719 487.573 203.37 289.98C232.21 339.861 369.939 577.531 369.939 577.531C369.939 577.531 399.647 632.888 492.527 641.151C527.927 638.556 564.769 636.346 611.839 588.006C585.889 633.753 469.474 833.653 469.474 833.653C469.474 833.653 300.883 836.728 189.579 661.046Z" fill="#61BC5B"/>
<path d="M336.09 487.188C336.09 401.271 406.017 331.594 492.242 331.594C578.467 331.594 648.394 401.271 648.394 487.188C648.394 573.106 578.467 642.781 492.242 642.781C406.017 642.686 336.09 573.106 336.09 487.188Z" fill="white"/>
<path d="M362.236 487.193C362.236 415.693 420.399 357.643 492.254 357.643C564.011 357.643 622.269 415.598 622.269 487.193C622.269 558.698 564.111 616.748 492.254 616.748C420.494 616.748 362.236 558.698 362.236 487.193Z" fill="url(#paint1_linear_24_63)"/>
<defs>
<radialGradient id="paint0_radial_24_63" cx="0" cy="0" r="1" gradientUnits="userSpaceOnUse" gradientTransform="translate(512 409.6) scale(819.2)">
<stop stop-color="#2F3242"/>
<stop offset="1" stop-color="#1C1E2B"/>
</radialGradient>
<linearGradient id="paint1_linear_24_63" x1="492.249" y1="359.473" x2="492.249" y2="608.948" gradientUnits="userSpaceOnUse">
<stop stop-color="#86BBE5"/>
<stop offset="1" stop-color="#1072BA"/>
</linearGradient>
</defs>
</svg>