<svg xmlns="http://www.w3.org/2000/svg" width="1024" height="1024" viewBox="0 0 1024 1024" fill="none">
<path d="M789.333 0H234.667C105.064 0 0 105.064 0 234.667V789.333C0 918.936 105.064 1024 234.667 1024H789.333C918.936 1024 1024 918.936 1024 789.333V234.667C1024 105.064 918.936 0 789.333 0Z" fill="url(#paint0_radial_49_838)"/>
<g clip-path="url(#clip0_49_838)">
<path d="M417.348 483.5C417.348 431.495 459.495 389.326 511.5 389.326C563.505 389.326 605.674 431.495 605.674 483.5C605.674 535.505 563.505 577.674 511.5 577.674C459.495 577.674 417.348 535.505 417.348 483.5ZM366.44 483.5C366.44 563.617 431.383 628.56 511.5 628.56C591.617 628.56 656.56 563.617 656.56 483.5C656.56 403.383 591.617 338.44 511.5 338.44C431.383 338.44 366.44 403.383 366.44 483.5ZM628.403 332.688C628.4 339.393 630.386 345.948 634.109 351.524C637.831 357.1 643.124 361.448 649.318 364.016C655.511 366.584 662.327 367.258 668.903 365.953C675.48 364.647 681.521 361.421 686.264 356.682C691.007 351.943 694.238 345.904 695.549 339.328C696.86 332.753 696.191 325.936 693.628 319.741C691.064 313.546 686.721 308.249 681.148 304.522C675.575 300.795 669.021 298.804 662.317 298.801H662.303C653.316 298.806 644.698 302.377 638.341 308.73C631.985 315.084 628.411 323.701 628.403 332.688ZM397.37 713.448C369.827 712.194 354.857 707.606 344.909 703.73C331.719 698.595 322.309 692.48 312.414 682.599C302.52 672.718 296.395 663.317 291.283 650.128C287.405 640.184 282.817 625.209 281.565 597.666C280.196 567.888 279.922 558.943 279.922 483.502C279.922 408.061 280.218 399.141 281.565 369.338C282.82 341.796 287.441 326.85 291.283 316.877C296.418 303.688 302.534 294.277 312.414 284.383C322.295 274.488 331.697 268.364 344.909 263.252C354.853 259.374 369.827 254.786 397.37 253.534C427.148 252.164 436.093 251.891 511.5 251.891C586.907 251.891 595.861 252.187 625.664 253.534C653.207 254.788 668.152 259.41 678.125 263.252C691.315 268.364 700.725 274.502 710.62 284.383C720.514 294.263 726.616 303.688 731.751 316.877C735.629 326.821 740.217 341.796 741.469 369.338C742.838 399.141 743.112 408.061 743.112 483.502C743.112 558.943 742.838 567.864 741.469 597.666C740.214 625.209 735.604 640.179 731.751 650.128C726.616 663.317 720.5 672.728 710.62 682.599C700.739 692.471 691.315 698.595 678.125 703.73C668.181 707.608 653.207 712.196 625.664 713.448C595.886 714.818 586.941 715.091 511.5 715.091C436.059 715.091 427.139 714.818 397.37 713.448ZM395.031 202.711C364.957 204.08 344.407 208.849 326.46 215.832C307.874 223.044 292.14 232.719 276.417 248.417C260.694 264.115 251.044 279.874 243.832 298.46C236.849 316.418 232.08 336.957 230.711 367.031C229.319 397.152 229 406.782 229 483.5C229 560.218 229.319 569.848 230.711 599.969C232.08 630.045 236.849 650.582 243.832 668.54C251.044 687.115 260.696 702.892 276.417 718.583C292.138 734.274 307.874 743.936 326.46 751.168C344.441 758.151 364.957 762.92 395.031 764.289C425.168 765.659 434.782 766 511.5 766C588.218 766 597.848 765.681 627.969 764.289C658.045 762.92 678.582 758.151 696.54 751.168C715.115 743.936 730.86 734.281 746.583 718.583C762.306 702.885 771.936 687.115 779.168 668.54C786.151 650.582 790.942 630.043 792.289 599.969C793.659 569.825 793.977 560.218 793.977 483.5C793.977 406.782 793.659 397.152 792.289 367.031C790.92 336.955 786.151 316.407 779.168 298.46C771.936 279.885 762.281 264.14 746.583 248.417C730.885 232.694 715.115 223.044 696.562 215.832C678.582 208.849 658.043 204.058 627.992 202.711C597.87 201.341 588.241 201 511.523 201C434.805 201 425.168 201.319 395.031 202.711Z" fill="url(#paint1_radial_49_838)"/>
<path d="M417.348 483.5C417.348 431.495 459.495 389.326 511.5 389.326C563.505 389.326 605.674 431.495 605.674 483.5C605.674 535.505 563.505 577.674 511.5 577.674C459.495 577.674 417.348 535.505 417.348 483.5ZM366.44 483.5C366.44 563.617 431.383 628.56 511.5 628.56C591.617 628.56 656.56 563.617 656.56 483.5C656.56 403.383 591.617 338.44 511.5 338.44C431.383 338.44 366.44 403.383 366.44 483.5ZM628.403 332.688C628.4 339.393 630.386 345.948 634.109 351.524C637.831 357.1 643.124 361.448 649.318 364.016C655.511 366.584 662.327 367.258 668.903 365.953C675.48 364.647 681.521 361.421 686.264 356.682C691.007 351.943 694.238 345.904 695.549 339.328C696.86 332.753 696.191 325.936 693.628 319.741C691.064 313.546 686.721 308.249 681.148 304.522C675.575 300.795 669.021 298.804 662.317 298.801H662.303C653.316 298.806 644.698 302.377 638.341 308.73C631.985 315.084 628.411 323.701 628.403 332.688ZM397.37 713.448C369.827 712.194 354.857 707.606 344.909 703.73C331.719 698.595 322.309 692.48 312.414 682.599C302.52 672.718 296.395 663.317 291.283 650.128C287.405 640.184 282.817 625.209 281.565 597.666C280.196 567.888 279.922 558.943 279.922 483.502C279.922 408.061 280.218 399.141 281.565 369.338C282.82 341.796 287.441 326.85 291.283 316.877C296.418 303.688 302.534 294.277 312.414 284.383C322.295 274.488 331.697 268.364 344.909 263.252C354.853 259.374 369.827 254.786 397.37 253.534C427.148 252.164 436.093 251.891 511.5 251.891C586.907 251.891 595.861 252.187 625.664 253.534C653.207 254.788 668.152 259.41 678.125 263.252C691.315 268.364 700.725 274.502 710.62 284.383C720.514 294.263 726.616 303.688 731.751 316.877C735.629 326.821 740.217 341.796 741.469 369.338C742.838 399.141 743.112 408.061 743.112 483.502C743.112 558.943 742.838 567.864 741.469 597.666C740.214 625.209 735.604 640.179 731.751 650.128C726.616 663.317 720.5 672.728 710.62 682.599C700.739 692.471 691.315 698.595 678.125 703.73C668.181 707.608 653.207 712.196 625.664 713.448C595.886 714.818 586.941 715.091 511.5 715.091C436.059 715.091 427.139 714.818 397.37 713.448ZM395.031 202.711C364.957 204.08 344.407 208.849 326.46 215.832C307.874 223.044 292.14 232.719 276.417 248.417C260.694 264.115 251.044 279.874 243.832 298.46C236.849 316.418 232.08 336.957 230.711 367.031C229.319 397.152 229 406.782 229 483.5C229 560.218 229.319 569.848 230.711 599.969C232.08 630.045 236.849 650.582 243.832 668.54C251.044 687.115 260.696 702.892 276.417 718.583C292.138 734.274 307.874 743.936 326.46 751.168C344.441 758.151 364.957 762.92 395.031 764.289C425.168 765.659 434.782 766 511.5 766C588.218 766 597.848 765.681 627.969 764.289C658.045 762.92 678.582 758.151 696.54 751.168C715.115 743.936 730.86 734.281 746.583 718.583C762.306 702.885 771.936 687.115 779.168 668.54C786.151 650.582 790.942 630.043 792.289 599.969C793.659 569.825 793.977 560.218 793.977 483.5C793.977 406.782 793.659 397.152 792.289 367.031C790.92 336.955 786.151 316.407 779.168 298.46C771.936 279.885 762.281 264.14 746.583 248.417C730.885 232.694 715.115 223.044 696.562 215.832C678.582 208.849 658.043 204.058 627.992 202.711C597.87 201.341 588.241 201 511.523 201C434.805 201 425.168 201.319 395.031 202.711Z" fill="url(#paint2_radial_49_838)"/>
</g>
<defs>
<radialGradient id="paint0_radial_49_838" cx="0" cy="0" r="1" gradientUnits="userSpaceOnUse" gradientTransform="translate(512 409.6) scale(819.2)">
<stop stop-color="#2F3242"/>
<stop offset="1" stop-color="#1C1E2B"/>
</radialGradient>
<radialGradient id="paint1_radial_49_838" cx="0" cy="0" r="1" gradientUnits="userSpaceOnUse" gradientTransform="translate(304.064 768.669) scale(737.56 737.56)">
<stop offset="0.09" stop-color="#FA8F21"/>
<stop offset="0.78" stop-color="#D82D7E"/>
</radialGradient>
<radialGradient id="paint2_radial_49_838" cx="0" cy="0" r="1" gradientUnits="userSpaceOnUse" gradientTransform="translate(571.648 793.981) scale(581.299 581.299)">
<stop offset="0.64" stop-color="#8C3AAA" stop-opacity="0"/>
<stop offset="1" stop-color="#8C3AAA"/>
</radialGradient>
<clipPath id="clip0_49_838">
<rect width="565" height="565" fill="white" transform="translate(229 201)"/>
</clipPath>
</defs>
</svg>