<svg xmlns="http://www.w3.org/2000/svg" width="1024" height="1024" viewBox="0 0 1024 1024" fill="none">
<path d="M789.333 0H234.667C105.064 0 0 105.064 0 234.667V789.333C0 918.936 105.064 1024 234.667 1024H789.333C918.936 1024 1024 918.936 1024 789.333V234.667C1024 105.064 918.936 0 789.333 0Z" fill="url(#paint0_radial_49_724)"/>
<path d="M512 191.5C714.965 191.5 879.5 356.035 879.5 559C879.5 761.965 714.965 926.5 512 926.5C309.035 926.5 144.5 761.965 144.5 559C144.5 356.035 309.035 191.5 512 191.5Z" fill="url(#paint1_linear_49_724)" stroke="black"/>
<path d="M505.09 314.308C513.992 314.043 522.945 314.262 531.949 314.963C650.886 324.337 747.314 421.147 756.247 540.146C757.466 556.395 757.101 572.736 755.18 588.711V588.712C753.75 600.64 749.421 612.036 742.572 621.905C735.936 631.466 727.131 639.313 716.883 644.806L715.887 645.329C695.35 655.932 672.125 655.823 652.189 644.998L652.18 644.993L652.17 644.988C650.501 644.17 649.013 643.022 647.798 641.614C646.583 640.206 645.666 638.567 645.1 636.795C644.535 635.023 644.334 633.156 644.508 631.305C644.683 629.453 645.23 627.656 646.117 626.021C647.004 624.387 648.212 622.948 649.669 621.792C651.126 620.636 652.802 619.787 654.595 619.295C656.389 618.803 658.263 618.68 660.106 618.931C661.949 619.182 663.721 619.803 665.318 620.757L665.327 620.762L665.336 620.767C677.127 627.172 690.942 627.168 703.225 620.833L703.226 620.832C709.904 617.381 715.635 612.347 719.917 606.169C724.067 600.184 726.734 593.302 727.705 586.092L727.793 585.394C729.517 571.069 729.841 556.611 728.758 542.224C720.828 436.664 635.296 350.796 529.797 342.468H529.798C498.391 339.923 466.805 344.232 437.226 355.096C407.648 365.96 380.782 383.12 358.489 405.389H358.488C336.229 427.687 319.076 454.551 308.212 484.125C297.519 513.237 293.172 544.293 295.454 575.211L295.567 576.684C303.785 680.963 388.019 765.962 491.992 775.374L494.451 775.582C525.859 778.114 557.442 773.799 587.019 762.933C616.59 752.069 643.45 734.916 665.746 712.659C668.378 710.315 671.808 709.067 675.332 709.169C678.858 709.271 682.212 710.719 684.705 713.216C687.197 715.712 688.64 719.068 688.737 722.595C688.834 726.118 687.58 729.544 685.233 732.173C639.094 778.305 576.787 803.849 511.827 803.849C505.343 803.849 498.829 803.594 492.284 803.086H492.283C373.804 793.726 277.407 697.359 268.063 578.864V578.863L267.934 577.205C265.357 542.37 270.255 507.38 282.307 474.582C294.55 441.263 313.884 411.001 338.972 385.889C383.052 341.812 442.281 316.215 504.576 314.308V314.323L505.09 314.308ZM512.322 431.751C582.396 431.862 639.384 488.903 639.384 559.002C639.384 562.663 637.929 566.174 635.34 568.763C632.752 571.351 629.241 572.806 625.58 572.806C621.919 572.806 618.408 571.351 615.819 568.763C613.23 566.174 611.776 562.663 611.776 559.002C611.776 504.045 567.074 459.343 512.117 459.343C457.16 459.343 412.427 504.06 412.427 559.018C412.427 613.975 457.16 658.707 512.117 658.707H512.118C529.534 658.664 546.637 654.077 561.738 645.4C576.838 636.723 589.413 624.257 598.22 609.231V609.23C600.065 606.068 603.091 603.768 606.632 602.836C610.173 601.904 613.94 602.417 617.103 604.263C620.266 606.108 622.566 609.135 623.498 612.676C624.429 616.216 623.916 619.982 622.071 623.145C610.82 642.325 594.759 658.238 575.475 669.312C556.191 680.385 534.352 686.234 512.116 686.283C441.949 686.283 384.849 629.185 384.849 559.018C384.849 488.85 441.949 431.766 512.101 431.766H512.308L512.322 431.751Z" fill="url(#paint2_linear_49_724)" stroke="black"/>
<defs>
<radialGradient id="paint0_radial_49_724" cx="0" cy="0" r="1" gradientUnits="userSpaceOnUse" gradientTransform="translate(512 409.6) scale(819.2)">
<stop stop-color="#2F3242"/>
<stop offset="1" stop-color="#1C1E2B"/>
</radialGradient>
<linearGradient id="paint1_linear_49_724" x1="2531.65" y1="808.661" x2="2531.65" y2="72.7764" gradientUnits="userSpaceOnUse">
<stop stop-color="#6FA9FF"/>
<stop offset="1" stop-color="#4585FF"/>
</linearGradient>
<linearGradient id="paint2_linear_49_724" x1="517.855" y1="70.7318" x2="517.855" y2="1048.27" gradientUnits="userSpaceOnUse">
<stop stop-color="white"/>
<stop offset="1" stop-color="#D7D7D7"/>
</linearGradient>
</defs>
</svg>