<svg xmlns="http://www.w3.org/2000/svg" width="1024" height="1024" viewBox="0 0 1024 1024" fill="none">
<path d="M789.333 0H234.667C105.064 0 0 105.064 0 234.667V789.333C0 918.936 105.064 1024 234.667 1024H789.333C918.936 1024 1024 918.936 1024 789.333V234.667C1024 105.064 918.936 0 789.333 0Z" fill="url(#paint0_radial_52_37)"/>
<circle cx="239.5" cy="212.5" r="68.5" fill="url(#paint1_linear_52_37)"/>
<circle cx="239.5" cy="761.5" r="68.5" fill="url(#paint2_linear_52_37)"/>
<circle cx="239.5" cy="580.5" r="68.5" fill="url(#paint3_linear_52_37)"/>
<circle cx="239.5" cy="382.5" r="68.5" fill="url(#paint4_linear_52_37)"/>
<line x1="353.5" y1="247.5" x2="842.5" y2="247.5" stroke="url(#paint5_linear_52_37)" stroke-width="9" stroke-linecap="round"/>
<line x1="353.5" y1="584.5" x2="842.5" y2="584.5" stroke="url(#paint6_linear_52_37)" stroke-width="9" stroke-linecap="round"/>
<line x1="353.5" y1="420.5" x2="842.5" y2="420.5" stroke="url(#paint7_linear_52_37)" stroke-width="9" stroke-linecap="round"/>
<line x1="353.5" y1="767.5" x2="702.5" y2="767.5" stroke="url(#paint8_linear_52_37)" stroke-width="9" stroke-linecap="round"/>
<g filter="url(#filter0_i_52_37)">
<path fill-rule="evenodd" clip-rule="evenodd" d="M817.364 589.427C814.005 590.448 811.135 592.856 809.504 596.019C808.807 597.371 808.434 599.218 808.193 602.523C807.713 609.082 805.801 612.521 801.359 614.818C799.711 615.67 788.975 617.776 786.298 617.772C783.736 617.769 780.166 616.13 778.225 614.066C777.428 613.219 776.027 610.938 775.112 608.998C772.474 603.411 768.228 600.42 762.932 600.42C758.775 600.42 753.911 603.6 751.753 607.729C750.455 610.212 750.585 615.449 752.032 618.92C753.715 622.958 753.629 627.19 751.796 630.569C750.608 632.759 749.73 633.563 744.95 636.837C741.674 639.082 738.475 640.895 737 641.344C732.579 642.688 728.178 641.383 724.048 637.503C720.615 634.28 718.19 633.157 714.568 633.115C705.595 633.012 699.452 642.188 702.921 650.514C703.252 651.309 704.693 653.231 706.122 654.786C710.249 659.274 711.668 663.743 710.333 668.044C709.362 671.174 702.708 680.837 700.534 682.276C696.665 684.835 693.201 685.054 687.634 683.091C685.51 682.343 682.896 681.73 681.826 681.73C678.849 681.73 675.28 683.277 673.14 685.494C670.677 688.048 669.745 689.988 669.457 693.161C668.947 698.787 671.906 703.34 677.916 706.176C682.147 708.172 684.159 709.962 685.607 713.021C686.988 715.936 686.978 717.967 685.548 725.271C684.28 731.74 683.344 734 681.174 735.825C678.39 738.168 676.33 738.893 671.444 739.25C666.353 739.622 664.109 740.472 661.605 742.976C657.007 747.573 656.779 755.039 661.087 759.933C663.564 762.747 666.485 763.933 672.013 764.369C677.133 764.773 679.275 765.676 681.838 768.512C683.954 770.855 684.222 771.556 685.586 778.343C686.868 784.726 686.952 786.873 686.018 789.518C684.867 792.782 682.898 794.782 678.803 796.849C673.786 799.382 672.517 800.413 671.004 803.193C667.534 809.568 669.953 817.225 676.437 820.397C679.869 822.076 683.534 822.075 687.612 820.394C692.732 818.283 697.75 818.806 701.339 821.826C703.269 823.45 709.817 833.341 710.435 835.567C711.636 839.892 710.53 843.56 706.742 847.818C703.069 851.947 702.023 854.234 702.058 858.054C702.09 861.579 702.902 863.671 705.241 866.259C707.932 869.238 710.026 870.132 714.339 870.147C718.747 870.162 720.396 869.461 724.168 865.969C725.611 864.634 727.69 863.133 728.789 862.635C731.162 861.558 735.805 861.404 737.998 862.328C739.971 863.16 748.235 868.763 750.091 870.527C753.408 873.679 754.24 879.747 752.047 884.777C749.955 889.572 750.398 894.167 753.326 898.039C756.913 902.785 763.362 904.313 768.728 901.689C771.746 900.212 773.216 898.52 775.144 894.304C777.428 889.31 780.712 886.556 785.415 885.691C787.273 885.349 798.278 887.347 801.043 888.528C803.121 889.415 806.206 892.652 807.18 894.968C807.57 895.895 808.043 898.75 808.231 901.313C808.509 905.11 808.791 906.346 809.754 907.988C812.342 912.404 816.219 914.468 821.34 914.157C824.93 913.938 827.12 913.01 829.503 910.695C832.008 908.263 832.927 905.764 833.315 900.332C833.593 896.443 833.858 895.288 834.874 893.556C837.345 889.34 839.62 888.177 848.891 886.387C854.628 885.28 854.938 885.272 857.879 886.145C861.299 887.16 864.034 889.809 866.031 894.04C866.947 895.98 868.348 898.26 869.144 899.107C873.796 904.054 882.438 904.054 887.132 899.107C890.683 895.364 891.455 890.358 889.342 884.777C887.38 879.593 887.765 875.095 890.501 871.254C891.483 869.875 899.126 864.496 902.671 862.689C904.088 861.966 905.411 861.711 907.697 861.718C911.639 861.731 913.656 862.633 917.317 866.022C920.404 868.88 923.607 870.387 926.592 870.387C931.758 870.387 935.744 867.924 938.004 863.335C939.337 860.627 939.456 860.049 939.256 857.253C938.991 853.553 938.144 851.757 935.167 848.585C932.169 845.392 930.683 842.133 930.678 838.74C930.672 835.368 931.296 833.926 935.517 827.562C939.362 821.765 941.375 820.087 945.508 819.229C948.15 818.681 950.47 819.036 954.42 820.592C964.572 824.593 974.449 815.565 971.311 805.153C970.391 802.099 967.543 799.215 963.688 797.434C959.633 795.561 957.446 793.702 956.056 790.946C954.311 787.486 954.272 785.863 955.757 778.449C957.17 771.391 957.994 769.449 960.45 767.382C962.993 765.243 964.543 764.721 969.403 764.367C974.722 763.981 977.072 763.091 979.689 760.474C982.036 758.128 982.921 755.997 983.131 752.184C983.291 749.295 983.157 748.543 982.095 746.372C979.844 741.772 975.67 739.287 970.195 739.287C964.581 739.287 960.127 737.003 957.991 733.029C956.456 730.173 954.241 718.934 954.686 716.26C955.438 711.742 957.896 708.792 962.883 706.423C969.21 703.418 971.408 700.451 971.7 694.52C971.852 691.449 971.733 690.835 970.552 688.584C969.723 687.005 968.421 685.459 967.043 684.418C962.931 681.311 959.478 680.994 953.281 683.154C949.959 684.313 948.719 684.536 946.641 684.347C941.832 683.911 939.693 682.205 934.813 674.916C931.161 669.46 930.671 668.252 930.683 664.729C930.696 661.107 931.811 658.566 934.752 655.457C938.224 651.785 939.109 649.746 939.109 645.415C939.109 641.126 938.22 639.024 935.285 636.372C932.725 634.06 930.512 633.197 927.018 633.149C923.162 633.096 920.782 634.18 916.764 637.82C913.183 641.066 910.07 642.273 906.407 641.839C903.773 641.527 902.52 640.911 896.764 637.093C889.879 632.527 888.099 629.974 888.074 624.63C888.064 622.425 888.37 620.931 889.264 618.82C891.572 613.371 890.49 607.01 886.716 603.835C883.868 601.439 881.79 600.67 878.132 600.659C875.181 600.65 874.367 600.836 872.273 601.996C869.343 603.619 867.86 605.434 865.606 610.16C864.272 612.958 863.458 614.047 861.849 615.184C857.66 618.147 855.907 618.308 846.883 616.563C839.345 615.104 837.24 613.948 835.041 610.056C833.882 608.005 833.603 606.892 833.314 603.151C832.883 597.6 831.704 594.658 828.928 592.215C825.783 589.447 821.049 588.306 817.364 589.427ZM829.931 652.055C869.714 655.794 903.123 682.568 915.831 720.896C917.45 725.777 919.708 735.792 919.708 738.088V739.287H880.904C842.318 739.287 842.098 739.282 841.805 738.36C841.644 737.85 840.135 736.038 838.453 734.333C834.999 730.831 830.456 728.269 826.169 727.404C824.72 727.112 822.831 726.733 821.972 726.562C820.452 726.259 819.896 725.362 801.144 692.913L781.878 659.575L784.142 658.533C789.743 655.954 802.001 652.963 810.513 652.098C816.115 651.528 824.141 651.51 829.931 652.055ZM779.521 705.484C791.923 726.937 798.379 738.537 798.336 739.287C798.3 739.915 797.706 741.97 797.016 743.855C794.906 749.612 795.369 757.079 798.175 762.578L799.001 764.199L779.931 797.212C769.442 815.369 760.631 830.454 760.351 830.734C759.149 831.935 746.3 819.439 740.197 811.135C710.934 771.316 714.747 716.855 749.254 681.773C754.341 676.602 759.834 671.984 760.311 672.479C760.493 672.668 769.137 687.52 779.521 705.484ZM919.708 765.503C919.708 766.104 919.294 768.66 918.788 771.182C910.319 813.419 876.169 845.428 833.677 850.957C826.685 851.867 814.857 851.855 807.7 850.931C798.83 849.785 782.186 845.155 782.186 843.832C782.186 843.595 790.842 828.403 801.42 810.072C820.456 777.086 820.668 776.744 822.094 776.737C824.503 776.726 829.103 775.459 831.95 774.022C834.866 772.55 839.41 768.609 841.169 766.027L842.266 764.417L880.987 764.414L919.708 764.41V765.503Z" fill="url(#paint9_linear_52_37)"/>
</g>
<defs>
<filter id="filter0_i_52_37" x="658" y="589" width="325.188" height="329.188" filterUnits="userSpaceOnUse" color-interpolation-filters="sRGB">
<feFlood flood-opacity="0" result="BackgroundImageFix"/>
<feBlend mode="normal" in="SourceGraphic" in2="BackgroundImageFix" result="shape"/>
<feColorMatrix in="SourceAlpha" type="matrix" values="0 0 0 0 0 0 0 0 0 0 0 0 0 0 0 0 0 0 127 0" result="hardAlpha"/>
<feOffset dy="4"/>
<feGaussianBlur stdDeviation="2"/>
<feComposite in2="hardAlpha" operator="arithmetic" k2="-1" k3="1"/>
<feColorMatrix type="matrix" values="0 0 0 0 0 0 0 0 0 0 0 0 0 0 0 0 0 0 0.25 0"/>
<feBlend mode="normal" in2="shape" result="effect1_innerShadow_52_37"/>
</filter>
<radialGradient id="paint0_radial_52_37" cx="0" cy="0" r="1" gradientUnits="userSpaceOnUse" gradientTransform="translate(512 409.6) scale(819.2)">
<stop stop-color="#2F3242"/>
<stop offset="1" stop-color="#1C1E2B"/>
</radialGradient>
<linearGradient id="paint1_linear_52_37" x1="239.5" y1="144" x2="239.5" y2="281" gradientUnits="userSpaceOnUse">
<stop stop-color="#FE5A46"/>
<stop offset="1" stop-color="#FF4257"/>
</linearGradient>
<linearGradient id="paint2_linear_52_37" x1="239.5" y1="693" x2="239.5" y2="830" gradientUnits="userSpaceOnUse">
<stop stop-color="#61D86D"/>
<stop offset="1" stop-color="#4ACD91"/>
</linearGradient>
<linearGradient id="paint3_linear_52_37" x1="239.5" y1="512" x2="239.5" y2="649" gradientUnits="userSpaceOnUse">
<stop stop-color="#E3D84F"/>
<stop offset="1" stop-color="#B7DE58"/>
</linearGradient>
<linearGradient id="paint4_linear_52_37" x1="239.5" y1="314" x2="239.5" y2="451" gradientUnits="userSpaceOnUse">
<stop stop-color="#FFA244"/>
<stop offset="1" stop-color="#FF853F"/>
</linearGradient>
<linearGradient id="paint5_linear_52_37" x1="349" y1="252.5" x2="847" y2="252.5" gradientUnits="userSpaceOnUse">
<stop stop-color="#39CAD0"/>
<stop offset="1" stop-color="#49B5F1"/>
</linearGradient>
<linearGradient id="paint6_linear_52_37" x1="349" y1="589.5" x2="847" y2="589.5" gradientUnits="userSpaceOnUse">
<stop stop-color="#B653EF"/>
<stop offset="1" stop-color="#E750D8"/>
</linearGradient>
<linearGradient id="paint7_linear_52_37" x1="349" y1="425.5" x2="847" y2="425.5" gradientUnits="userSpaceOnUse">
<stop stop-color="#589BFE"/>
<stop offset="1" stop-color="#6F76FF"/>
</linearGradient>
<linearGradient id="paint8_linear_52_37" x1="349" y1="772.5" x2="707" y2="772.5" gradientUnits="userSpaceOnUse">
<stop stop-color="#FF409E"/>
<stop offset="1" stop-color="#FF49BC"/>
</linearGradient>
<linearGradient id="paint9_linear_52_37" x1="820.594" y1="589" x2="820.594" y2="914.188" gradientUnits="userSpaceOnUse">
<stop stop-color="white"/>
<stop offset="0.25" stop-color="#F8FAFC"/>
<stop offset="0.55" stop-color="#D1D5DB"/>
<stop offset="0.85" stop-color="#9CA3AF"/>
<stop offset="1" stop-color="#4B5563"/>
</linearGradient>
</defs>
</svg>