<svg xmlns="http://www.w3.org/2000/svg" width="1024" height="1024" viewBox="0 0 1024 1024" fill="none">
<path d="M789.333 0H234.667C105.064 0 0 105.064 0 234.667V789.333C0 918.936 105.064 1024 234.667 1024H789.333C918.936 1024 1024 918.936 1024 789.333V234.667C1024 105.064 918.936 0 789.333 0Z" fill="url(#paint0_radial_76_56)"/>
<path d="M511.5 111C397.625 239.613 318 333.525 318 498.001C318 675.376 431.681 783.833 511.5 852.751C543.75 756.001 543.75 240 511.5 111Z" fill="url(#paint1_linear_76_56)"/>
<path d="M511.5 111V923.669L543.75 949.502V852.751C611.636 781.963 705 707.626 705 498.001C705 369.001 608.25 272.25 543.75 175.5C530.431 155.505 511.5 111 511.5 111Z" fill="url(#paint2_linear_76_56)"/>
<defs>
<radialGradient id="paint0_radial_76_56" cx="0" cy="0" r="1" gradientUnits="userSpaceOnUse" gradientTransform="translate(512 409.6) scale(819.2)">
<stop stop-color="#2F3242"/>
<stop offset="1" stop-color="#1C1E2B"/>
</radialGradient>
<linearGradient id="paint1_linear_76_56" x1="446.645" y1="726.46" x2="446.645" y2="274.701" gradientUnits="userSpaceOnUse">
<stop stop-color="#85EC51"/>
<stop offset="1" stop-color="#BEFF66"/>
</linearGradient>
<linearGradient id="paint2_linear_76_56" x1="556.07" y1="775.771" x2="556.07" y2="247.063" gradientUnits="userSpaceOnUse">
<stop stop-color="#43DB59"/>
<stop offset="1" stop-color="#6AF1B0"/>
</linearGradient>
</defs>
</svg>