<svg xmlns="http://www.w3.org/2000/svg" width="1024" height="1024" viewBox="0 0 1024 1024" fill="none">
<path d="M789.333 0H234.667C105.064 0 0 105.064 0 234.667V789.333C0 918.936 105.064 1024 234.667 1024H789.333C918.936 1024 1024 918.936 1024 789.333V234.667C1024 105.064 918.936 0 789.333 0Z" fill="url(#paint0_radial_50_859)"/>
<path d="M411.485 186H612.512C619.208 185.998 624.34 185.997 628.827 186.436C660.732 189.557 686.848 208.74 697.921 234.579H326.075C337.149 208.74 363.264 189.557 395.169 186.436C399.656 185.997 404.789 185.998 411.485 186Z" fill="url(#paint1_linear_50_859)"/>
<path d="M348.143 264.426C308.093 264.426 275.253 288.611 264.294 320.695C264.066 321.364 263.846 322.036 263.637 322.712C275.104 319.239 287.038 316.971 299.118 315.422C330.233 311.433 369.555 311.435 415.232 311.437H613.725C659.401 311.435 698.725 311.433 729.84 315.422C741.919 316.971 753.854 319.239 765.319 322.712C765.112 322.036 764.893 321.364 764.663 320.695C753.704 288.611 720.864 264.426 680.814 264.426H348.143Z" fill="url(#paint2_linear_50_859)"/>
<path fill-rule="evenodd" clip-rule="evenodd" d="M607.835 345.611H416.165C318.97 345.611 270.373 345.611 243.075 374.032C215.777 402.452 222.199 446.361 235.045 534.181L247.227 617.456C257.3 686.325 262.337 720.759 288.176 741.38C314.015 762 352.126 762 428.346 762H595.653C671.875 762 709.986 762 735.825 741.38C761.665 720.759 766.699 686.325 776.773 617.456L788.956 534.181C801.8 446.364 808.223 402.452 780.926 374.032C753.627 345.611 705.029 345.611 607.835 345.611ZM586.339 583.273C602.421 573.306 602.421 547.495 586.339 537.527L489.237 477.329C473.607 467.641 454.4 480.253 454.4 500.205V620.595C454.4 640.548 473.607 653.159 489.237 643.471L586.339 583.273Z" fill="url(#paint3_linear_50_859)"/>
<defs>
<radialGradient id="paint0_radial_50_859" cx="0" cy="0" r="1" gradientUnits="userSpaceOnUse" gradientTransform="translate(512 409.6) scale(819.2)">
<stop stop-color="#2F3242"/>
<stop offset="1" stop-color="#1C1E2B"/>
</radialGradient>
<linearGradient id="paint1_linear_50_859" x1="511.998" y1="186" x2="511.998" y2="234.579" gradientUnits="userSpaceOnUse">
<stop stop-color="white"/>
<stop offset="1" stop-color="#999999"/>
</linearGradient>
<linearGradient id="paint2_linear_50_859" x1="514.478" y1="264.426" x2="514.478" y2="322.712" gradientUnits="userSpaceOnUse">
<stop stop-color="white"/>
<stop offset="1" stop-color="#999999"/>
</linearGradient>
<linearGradient id="paint3_linear_50_859" x1="512" y1="345.611" x2="512" y2="762" gradientUnits="userSpaceOnUse">
<stop stop-color="white"/>
<stop offset="1" stop-color="#999999"/>
</linearGradient>
</defs>
</svg>