<svg xmlns="http://www.w3.org/2000/svg" width="1024" height="1024" viewBox="0 0 1024 1024" fill="none">
<path d="M789.333 0H234.667C105.064 0 0 105.064 0 234.667V789.333C0 918.936 105.064 1024 234.667 1024H789.333C918.936 1024 1024 918.936 1024 789.333V234.667C1024 105.064 918.936 0 789.333 0Z" fill="url(#paint0_radial_49_803)"/>
<path d="M269.057 750.152C231.813 698.816 211.834 636.979 212.001 573.557C212.001 407.536 346.295 273 512.06 273C677.825 273 812.12 407.536 812.12 573.812C812.12 639.723 790.969 700.716 755.064 750.408L610.934 515.762L596.918 539.372L610.934 604.799L511.805 435.083L450.812 538.632L465.083 604.799L413.187 516.004L269.057 750.152Z" fill="url(#paint1_linear_49_803)"/>
<defs>
<radialGradient id="paint0_radial_49_803" cx="0" cy="0" r="1" gradientUnits="userSpaceOnUse" gradientTransform="translate(512 409.6) scale(819.2)">
<stop stop-color="#2F3242"/>
<stop offset="1" stop-color="#1C1E2B"/>
</radialGradient>
<linearGradient id="paint1_linear_49_803" x1="524.383" y1="1001.04" x2="528.884" y2="279.995" gradientUnits="userSpaceOnUse">
<stop stop-color="#4580FF"/>
<stop offset="1" stop-color="#7FA8FF"/>
</linearGradient>
</defs>
</svg>