<svg xmlns="http://www.w3.org/2000/svg" width="1024" height="1024" viewBox="0 0 1024 1024" fill="none">
<path d="M789.333 0H234.667C105.064 0 0 105.064 0 234.667V789.333C0 918.936 105.064 1024 234.667 1024H789.333C918.936 1024 1024 918.936 1024 789.333V234.667C1024 105.064 918.936 0 789.333 0Z" fill="url(#paint0_radial_77_72)"/>
<path fill-rule="evenodd" clip-rule="evenodd" d="M218.052 284.052C179 323.105 179 385.959 179 511.667C179 637.373 179 700.23 218.052 739.28C257.105 778.333 319.959 778.333 445.667 778.333H579C704.707 778.333 767.563 778.333 806.613 739.28C845.667 700.23 845.667 637.373 845.667 511.667C845.667 385.959 845.667 323.105 806.613 284.052C767.563 245 704.707 245 579 245H445.667C319.959 245 257.105 245 218.052 284.052ZM537.34 445C537.34 431.193 526.147 420 512.34 420C498.533 420 487.34 431.193 487.34 445V468.373L467.093 456.683C455.137 449.78 439.847 453.877 432.943 465.833C426.04 477.79 430.136 493.08 442.094 499.983L462.323 511.663L442.086 523.35C430.129 530.253 426.032 545.543 432.935 557.5C439.839 569.457 455.13 573.553 467.087 566.65L487.34 554.957V578.333C487.34 592.14 498.533 603.333 512.34 603.333C526.147 603.333 537.34 592.14 537.34 578.333V554.977L557.563 566.65C569.52 573.553 584.81 569.457 591.713 557.5C598.617 545.543 594.52 530.253 582.563 523.35L562.323 511.663L582.557 499.983C594.513 493.08 598.61 477.79 591.707 465.833C584.803 453.877 569.513 449.78 557.557 456.683L537.34 468.353V445ZM336.755 420C350.562 420 361.755 431.193 361.755 445V468.353L381.97 456.683C393.927 449.78 409.217 453.877 416.121 465.833C423.024 477.79 418.927 493.08 406.97 499.983L386.739 511.663L406.978 523.35C418.935 530.253 423.032 545.543 416.129 557.5C409.225 569.457 393.935 573.553 381.978 566.65L361.755 554.977V578.333C361.755 592.14 350.562 603.333 336.755 603.333C322.948 603.333 311.755 592.14 311.755 578.333V554.957L291.5 566.65C279.543 573.553 264.253 569.457 257.349 557.5C250.446 545.543 254.543 530.253 266.5 523.35L286.739 511.663L266.508 499.983C254.551 493.08 250.454 477.79 257.357 465.833C264.261 453.877 279.551 449.78 291.508 456.683L311.755 468.373V445C311.755 431.193 322.948 420 336.755 420ZM712.937 445C712.937 431.193 701.743 420 687.937 420C674.13 420 662.937 431.193 662.937 445V468.373L642.687 456.683C630.73 449.78 615.44 453.877 608.537 465.833C601.633 477.79 605.73 493.08 617.687 499.983L637.92 511.663L617.68 523.35C605.723 530.253 601.627 545.543 608.53 557.5C615.433 569.457 630.723 573.553 642.68 566.65L662.937 554.957V578.333C662.937 592.14 674.13 603.333 687.937 603.333C701.743 603.333 712.937 592.14 712.937 578.333V554.977L733.157 566.65C745.117 573.553 760.407 569.457 767.31 557.5C774.213 545.543 770.117 530.253 758.157 523.35L737.92 511.663L758.15 499.983C770.107 493.08 774.203 477.79 767.3 465.833C760.397 453.877 745.107 449.78 733.15 456.683L712.937 468.353V445Z" fill="url(#paint1_linear_77_72)"/>
<defs>
<radialGradient id="paint0_radial_77_72" cx="0" cy="0" r="1" gradientUnits="userSpaceOnUse" gradientTransform="translate(512 409.6) scale(819.2)">
<stop stop-color="#2F3242"/>
<stop offset="1" stop-color="#1C1E2B"/>
</radialGradient>
<linearGradient id="paint1_linear_77_72" x1="512.333" y1="245" x2="512.333" y2="778.333" gradientUnits="userSpaceOnUse">
<stop stop-color="white"/>
<stop offset="1" stop-color="#999999"/>
</linearGradient>
</defs>
</svg>