<svg xmlns="http://www.w3.org/2000/svg" width="1024" height="1024" viewBox="0 0 1024 1024" fill="none">
<path d="M789.333 0H234.667C105.064 0 0 105.064 0 234.667V789.333C0 918.936 105.064 1024 234.667 1024H789.333C918.936 1024 1024 918.936 1024 789.333V234.667C1024 105.064 918.936 0 789.333 0Z" fill="url(#paint0_radial_31_61)"/>
<g clip-path="url(#clip0_31_61)">
<path d="M908.729 562.791C936.723 343.63 781.951 143.266 563.191 115.272C344.43 87.2766 143.266 242.049 115.272 460.809C87.2766 679.57 242.049 880.334 460.809 908.729C679.97 936.723 880.334 781.951 908.729 562.791Z" fill="#FF6C37"/>
<path d="M656.375 368.826L487.605 537.595L440.014 490.004C605.984 324.034 622.381 338.431 656.375 368.826Z" fill="white"/>
<path d="M487.604 541.595C486.404 541.595 485.604 541.195 484.804 540.395L436.813 492.803C435.213 491.204 435.213 488.804 436.813 487.204C605.583 318.435 623.179 334.432 658.773 366.426C659.573 367.226 659.973 368.026 659.973 369.226C659.973 370.425 659.573 371.225 658.773 372.025L490.003 540.395C489.604 541.195 488.404 541.595 487.604 541.595ZM445.611 490.004L487.604 531.996L650.375 369.226C620.78 342.83 600.784 334.832 445.611 490.004Z" fill="#FF6C37"/>
<path d="M535.996 585.987L490.004 539.995L658.773 371.225C703.965 416.817 636.378 490.804 535.996 585.987Z" fill="white"/>
<path d="M535.995 589.986C534.796 589.986 533.996 589.586 533.196 588.786L487.204 542.794C486.404 541.995 486.404 541.195 486.404 539.995C486.404 538.795 486.804 537.995 487.604 537.195L656.374 368.426C657.973 366.826 660.373 366.826 661.973 368.426C672.371 378.024 677.97 391.622 677.57 405.619C676.77 450.011 626.379 506.401 539.195 588.786C537.995 589.586 536.795 589.986 535.995 589.986ZM495.603 539.995C521.198 565.99 531.996 576.388 535.995 580.388C603.183 516.399 668.372 450.811 668.771 405.619C669.171 395.221 665.172 384.823 658.373 376.824L495.603 539.995Z" fill="#FF6C37"/>
<path d="M440.812 491.204L474.806 525.198C475.606 525.997 475.606 526.797 474.806 527.597C474.406 527.997 474.406 527.997 474.006 527.997L403.619 543.194C400.019 543.594 396.82 541.195 396.02 537.595C395.62 535.596 396.42 533.596 397.62 532.396L438.412 491.604C439.212 490.804 440.412 490.404 440.812 491.204Z" fill="white"/>
<path d="M402.42 547.194C396.421 547.194 392.021 542.394 392.021 536.396C392.021 533.596 393.221 530.797 395.221 528.797L436.014 488.004C438.413 486.005 441.613 486.005 444.012 488.004L478.006 521.998C480.406 523.998 480.406 527.597 478.006 529.997C477.206 530.797 476.406 531.196 475.207 531.596L404.819 546.794C404.019 546.794 403.219 547.194 402.42 547.194ZM439.613 495.603L400.42 534.796C399.62 535.596 399.22 536.795 400.02 537.995C400.42 539.195 401.62 539.595 402.82 539.195L468.808 524.798L439.613 495.603Z" fill="#FF6C37"/>
<path d="M745.559 275.243C719.963 250.447 678.771 251.247 653.975 277.242C629.18 303.238 629.98 344.03 655.975 368.826C677.171 389.222 709.165 392.821 734.361 377.624L688.769 332.032L745.559 275.243Z" fill="white"/>
<path d="M700.766 390.822C662.773 390.822 631.979 360.027 631.979 322.034C631.979 284.041 662.773 253.247 700.766 253.247C718.363 253.247 735.56 260.045 748.358 272.443C749.157 273.243 749.557 274.043 749.557 275.243C749.557 276.442 749.157 277.242 748.358 278.042L694.367 332.032L736.76 374.425C738.359 376.024 738.359 378.424 736.76 380.024C736.36 380.424 736.36 380.424 735.96 380.824C725.562 387.222 713.164 390.822 700.766 390.822ZM700.766 261.645C667.172 261.645 639.977 288.84 640.377 322.434C640.377 356.028 667.572 383.223 701.166 382.823C710.364 382.823 719.563 380.824 727.961 376.424L685.969 334.832C685.169 334.032 684.769 333.232 684.769 332.032C684.769 330.833 685.169 330.033 685.969 329.233L739.559 275.643C728.761 266.444 715.164 261.645 700.766 261.645Z" fill="#FF6C37"/>
<path d="M746.757 276.442L745.957 275.643L688.768 332.032L733.959 377.224C738.359 374.425 742.758 371.225 746.357 367.626C771.953 342.431 771.953 301.638 746.757 276.442Z" fill="white"/>
<path d="M734.361 381.624C733.161 381.624 732.361 381.224 731.561 380.424L685.969 334.832C685.169 334.032 684.77 333.232 684.77 332.032C684.77 330.833 685.169 330.033 685.969 329.233L742.759 272.443C744.359 270.843 746.758 270.843 748.358 272.443L749.558 273.243C776.353 300.038 776.353 343.23 749.958 370.426C745.959 374.425 741.559 378.024 736.76 380.824C735.56 381.224 734.761 381.624 734.361 381.624ZM694.368 332.032L734.761 372.425C737.96 370.426 741.159 367.626 743.559 365.226C766.355 342.431 767.555 305.237 745.559 281.242L694.368 332.032Z" fill="#FF6C37"/>
<path d="M663.172 376.024C653.574 366.426 637.977 366.426 628.378 376.024L477.605 526.797L502.801 551.993L662.372 412.018C672.77 403.219 673.57 387.622 664.772 377.224C663.972 376.824 663.572 376.424 663.172 376.024Z" fill="white"/>
<path d="M502.402 555.992C501.202 555.992 500.402 555.592 499.602 554.792L474.407 529.597C472.807 527.997 472.807 525.597 474.407 523.998L625.18 373.225C636.378 362.027 654.374 362.027 665.572 373.225C676.77 384.423 676.77 402.42 665.572 413.618C665.172 414.018 664.773 414.417 664.373 414.817L504.801 554.792C504.401 555.592 503.602 555.992 502.402 555.992ZM483.205 526.797L502.802 546.394L659.573 408.818C668.372 401.62 669.172 388.422 661.973 379.624C654.774 370.825 641.577 370.025 632.778 377.224C632.378 377.624 631.978 378.024 631.179 378.424L483.205 526.797Z" fill="#FF6C37"/>
<path d="M362.026 698.366C360.427 699.166 359.627 700.766 360.027 702.366L366.825 731.16C368.425 735.16 366.026 739.959 361.626 741.159C358.427 742.358 354.828 741.159 352.828 738.759L308.836 695.167L452.41 551.593L502.001 552.393L535.595 585.987C527.597 592.785 479.205 639.577 362.026 698.366Z" fill="white"/>
<path d="M358.827 745.158C355.628 745.158 352.428 743.958 350.429 741.559L306.837 697.966C306.037 697.167 305.637 696.367 305.637 695.167C305.637 693.967 306.037 693.167 306.837 692.367L450.411 548.793C451.21 547.993 452.41 547.594 453.21 547.594L502.801 548.393C504.001 548.393 504.801 548.793 505.601 549.593L539.195 583.187C539.994 583.987 540.394 585.187 540.394 586.387C540.394 587.586 539.994 588.386 538.795 589.186L535.995 591.586C493.603 628.779 436.013 665.972 364.426 701.566L371.225 729.961C372.425 735.16 370.025 740.759 365.226 743.558C362.826 744.758 360.827 745.158 358.827 745.158ZM314.835 695.167L356.028 735.96C357.227 737.959 359.627 738.759 361.627 737.559C363.626 736.359 364.426 733.96 363.226 731.96L356.428 703.165C355.628 699.566 357.227 696.367 360.427 694.767C431.214 659.173 488.404 622.38 530.396 585.987L500.802 556.392L454.81 555.592L314.835 695.167Z" fill="#FF6C37"/>
<path d="M274.842 729.561L309.236 695.167L360.427 746.358L278.842 740.759C275.242 740.359 272.843 737.159 273.243 733.56C273.243 731.96 273.643 730.361 274.842 729.561Z" fill="white"/>
<path d="M360.427 749.957L278.442 744.358C272.443 743.958 268.444 738.759 268.844 732.76C269.244 730.361 270.044 727.961 272.043 726.361L306.437 691.968C308.037 690.368 310.436 690.368 312.036 691.968L363.227 743.158C364.427 744.358 364.827 745.958 364.027 747.558C363.227 749.157 362.027 749.957 360.427 749.957ZM309.237 700.766L277.642 732.36C276.443 733.16 276.443 735.16 277.642 735.96C278.042 736.36 278.442 736.759 279.242 736.759L350.029 741.559L309.237 700.766Z" fill="#FF6C37"/>
<path d="M438.413 569.99C436.014 569.99 434.414 567.99 434.414 565.99C434.414 564.791 434.814 563.991 435.614 563.191L474.407 524.398C476.007 522.798 478.406 522.798 480.006 524.398L505.201 549.593C506.401 550.793 506.801 551.993 506.401 553.593C506.001 554.792 504.801 555.992 503.202 556.392L439.213 569.99C438.813 569.99 438.413 569.99 438.413 569.99ZM477.206 532.796L450.811 559.191L494.003 549.993L477.206 532.796Z" fill="#FF6C37"/>
<path d="M502.001 552.393L458.009 561.991C454.81 562.791 451.61 560.791 450.81 557.592C450.41 555.592 450.81 553.592 452.41 551.993L476.806 527.597L502.001 552.393Z" fill="white"/>
<path d="M457.209 565.99C451.61 565.99 447.211 561.591 447.211 555.992C447.211 553.193 448.411 550.793 450.01 548.793L474.406 524.398C476.006 522.798 478.405 522.798 480.005 524.398L505.2 549.593C506.4 550.793 506.8 551.993 506.4 553.593C506 554.792 504.801 555.992 503.201 556.392L459.209 565.99C458.409 565.99 457.609 565.99 457.209 565.99ZM477.206 532.796L455.609 554.392C454.81 555.192 454.81 555.992 455.209 556.792C455.609 557.592 456.409 557.992 457.609 557.992L494.402 549.993L477.206 532.796Z" fill="#FF6C37"/>
<path d="M747.157 314.836C746.357 312.436 743.558 311.236 741.158 312.036C738.759 312.836 737.559 315.635 738.359 318.035C738.359 318.435 738.759 318.835 738.759 319.235C741.158 324.034 740.358 330.033 737.159 334.432C735.559 336.432 735.959 339.231 737.559 340.831C739.559 342.431 742.358 342.031 743.958 340.031C749.957 332.432 751.156 322.834 747.157 314.836Z" fill="#FF6C37"/>
</g>
<defs>
<radialGradient id="paint0_radial_31_61" cx="0" cy="0" r="1" gradientUnits="userSpaceOnUse" gradientTransform="translate(512 409.6) scale(819.2)">
<stop stop-color="#2F3242"/>
<stop offset="1" stop-color="#1C1E2B"/>
</radialGradient>
<clipPath id="clip0_31_61">
<rect width="800" height="800" fill="white" transform="translate(112 112)"/>
</clipPath>
</defs>
</svg>