<svg xmlns="http://www.w3.org/2000/svg" width="1024" height="1024" viewBox="0 0 1024 1024" fill="none">
<path d="M789.333 0H234.667C105.064 0 0 105.064 0 234.667V789.333C0 918.936 105.064 1024 234.667 1024H789.333C918.936 1024 1024 918.936 1024 789.333V234.667C1024 105.064 918.936 0 789.333 0Z" fill="url(#paint0_radial_49_765)"/>
<mask id="mask0_49_765" style="mask-type:luminance" maskUnits="userSpaceOnUse" x="267" y="267" width="490" height="490">
<path d="M267 267H756.998V756.998H267V267Z" fill="white"/>
</mask>
<g mask="url(#mask0_49_765)">
<path fill-rule="evenodd" clip-rule="evenodd" d="M463.816 707.099C482.449 740.582 530.265 742.393 551.403 710.42L748.545 412.325C769.452 380.707 749.457 338.322 711.591 334.021L324.112 289.921C282.789 285.225 253.376 328.78 273.479 364.904L275.044 367.722L447.945 486.206L445.849 674.678L463.816 707.099Z" fill="url(#paint1_linear_49_765)"/>
<path d="M474.923 675.875L492.427 649.783L625.325 449.034C636.935 431.476 625.842 407.929 604.826 405.519L275.004 367.654L445.863 674.814C447.309 677.339 449.375 679.455 451.866 680.96C454.356 682.466 457.19 683.312 460.098 683.418C463.006 683.524 465.894 682.888 468.488 681.568C471.082 680.248 473.296 678.289 474.923 675.875Z" fill="url(#paint2_radial_49_765)"/>
</g>
<defs>
<radialGradient id="paint0_radial_49_765" cx="0" cy="0" r="1" gradientUnits="userSpaceOnUse" gradientTransform="translate(512 409.6) scale(819.2)">
<stop stop-color="#2F3242"/>
<stop offset="1" stop-color="#1C1E2B"/>
</radialGradient>
<linearGradient id="paint1_linear_49_765" x1="710.078" y1="707.092" x2="394.792" y2="163.371" gradientUnits="userSpaceOnUse">
<stop stop-color="#8EFFEE"/>
<stop offset="0.07" stop-color="#8EFFEE"/>
<stop offset="0.45" stop-color="#C9C7FF"/>
<stop offset="1" stop-color="#7341FF"/>
</linearGradient>
<radialGradient id="paint2_radial_49_765" cx="0" cy="0" r="1" gradientUnits="userSpaceOnUse" gradientTransform="translate(475.386 227.038) rotate(93.7553) scale(500.281 645.165)">
<stop stop-color="#6D4AFF"/>
<stop offset="0.4" stop-color="#6D4AFF"/>
<stop offset="0.99" stop-color="#00F0C3"/>
<stop offset="1" stop-color="#00F0C3"/>
</radialGradient>
</defs>
</svg>