<svg xmlns="http://www.w3.org/2000/svg" width="1024" height="1024" viewBox="0 0 1024 1024" fill="none">
<path d="M789.333 0H234.667C105.064 0 0 105.064 0 234.667V789.333C0 918.936 105.064 1024 234.667 1024H789.333C918.936 1024 1024 918.936 1024 789.333V234.667C1024 105.064 918.936 0 789.333 0Z" fill="url(#paint0_radial_48_423)"/>
<path fill-rule="evenodd" clip-rule="evenodd" d="M275.958 258.412C245.354 283.823 237.293 326.837 221.171 412.864L193.622 559.866C170.952 680.836 159.616 741.319 192.665 781.159C225.712 821 287.221 821 410.237 821H613.762C736.78 821 798.287 821 831.334 781.159C864.382 741.319 853.05 680.836 830.379 559.866L802.831 412.864C786.705 326.837 778.647 283.823 748.042 258.412C717.437 233 673.697 233 586.213 233H437.786C350.303 233 306.562 233 275.958 258.412ZM434.064 370.815C445.425 402.968 476.073 425.938 512.015 425.938C547.957 425.938 578.606 402.968 589.964 370.815C595.036 356.463 610.776 348.94 625.119 354.013C639.463 359.086 646.982 374.833 641.913 389.185C623.018 442.674 572.031 481.062 512.015 481.062C451.996 481.062 401.012 442.674 382.116 389.185C377.046 374.833 384.564 359.086 398.909 354.013C413.255 348.94 428.994 356.463 434.064 370.815Z" fill="url(#paint1_linear_48_423)"/>
<defs>
<radialGradient id="paint0_radial_48_423" cx="0" cy="0" r="1" gradientUnits="userSpaceOnUse" gradientTransform="translate(512 409.6) scale(819.2)">
<stop stop-color="#2F3242"/>
<stop offset="1" stop-color="#1C1E2B"/>
</radialGradient>
<linearGradient id="paint1_linear_48_423" x1="512" y1="233" x2="512" y2="821" gradientUnits="userSpaceOnUse">
<stop stop-color="#7DB0FF"/>
<stop offset="1" stop-color="#4B89FF"/>
</linearGradient>
</defs>
</svg>