<svg xmlns="http://www.w3.org/2000/svg" width="1024" height="1024" viewBox="0 0 1024 1024" fill="none">
<path d="M789.333 0H234.667C105.064 0 0 105.064 0 234.667V789.333C0 918.936 105.064 1024 234.667 1024H789.333C918.936 1024 1024 918.936 1024 789.333V234.667C1024 105.064 918.936 0 789.333 0Z" fill="url(#paint0_radial_50_839)"/>
<g opacity="0.2" filter="url(#filter0_f_50_839)">
<path d="M793.984 527.013C793.984 519.535 788.459 515.225 781.681 517.366L315.306 665.299C308.513 667.455 303.002 675.273 303.002 682.737V833.933C303.002 841.411 308.513 845.736 315.306 843.579L781.681 695.659C788.46 693.503 793.984 685.685 793.984 678.207V527.013Z" fill="black"/>
</g>
<path d="M793.979 514.508C793.979 507.034 788.472 502.708 781.667 504.871L315.292 652.771C308.507 654.934 303 662.742 303 670.216V821.419C303 828.893 308.507 833.22 315.292 831.056L781.667 683.137C788.453 680.974 793.979 673.166 793.979 665.692V514.508Z" fill="url(#paint1_linear_50_839)"/>
<g opacity="0.2" filter="url(#filter1_f_50_839)">
<path d="M303.01 523.038C303.01 530.514 308.52 538.332 315.312 540.488L781.699 688.434C788.49 690.589 794.001 686.265 794.001 678.801V527.593C794.001 520.13 788.49 512.312 781.699 510.156L315.312 362.21C308.52 360.055 303.01 364.367 303.01 371.843V523.038Z" fill="black"/>
</g>
<path opacity="0.15" d="M793.979 513.151C793.979 505.677 788.472 501.351 781.667 503.514L315.292 651.433C308.507 653.597 303 661.405 303 668.878V820.082C303 827.556 308.507 831.882 315.292 829.719L781.667 681.8C788.453 679.636 793.979 671.828 793.979 664.355V513.151Z" fill="url(#paint2_linear_50_839)"/>
<path d="M303 510.516C303 517.989 308.507 525.817 315.292 527.961L781.667 675.899C788.472 678.063 793.979 673.736 793.979 666.262V515.098C793.979 507.624 788.472 499.816 781.667 497.653L315.292 349.695C308.507 347.531 303 351.858 303 359.332V510.516Z" fill="#FF9800"/>
<g opacity="0.2" filter="url(#filter2_f_50_839)">
<path d="M793.984 216.697C793.984 209.219 788.459 204.893 781.681 207.05L315.306 354.97C308.513 357.125 303.002 364.944 303.002 372.421V523.616C303.002 531.094 308.513 535.407 315.306 533.264L781.681 385.332C788.46 383.175 793.984 375.357 793.984 367.893V216.697Z" fill="black"/>
</g>
<path opacity="0.15" d="M303 510.516C303 517.989 308.507 525.817 315.292 527.961L781.667 675.899C788.472 678.063 793.979 673.736 793.979 666.262V515.098C793.979 507.624 788.472 499.816 781.667 497.653L315.292 349.695C308.507 347.531 303 351.858 303 359.332V510.516Z" fill="url(#paint3_linear_50_839)"/>
<path d="M793.979 204.194C793.979 196.721 788.472 192.394 781.667 194.557L315.292 342.457C308.507 344.62 303 352.448 303 359.922V511.125C303 518.599 308.507 522.926 315.292 520.762L781.667 372.824C788.453 370.66 793.979 362.852 793.979 355.398V204.194Z" fill="url(#paint4_linear_50_839)"/>
<defs>
<filter id="filter0_f_50_839" x="302.141" y="515.956" width="492.704" height="329.038" filterUnits="userSpaceOnUse" color-interpolation-filters="sRGB">
<feFlood flood-opacity="0" result="BackgroundImageFix"/>
<feBlend mode="normal" in="SourceGraphic" in2="BackgroundImageFix" result="shape"/>
<feGaussianBlur stdDeviation="0.430365" result="effect1_foregroundBlur_50_839"/>
</filter>
<filter id="filter1_f_50_839" x="302.149" y="360.795" width="492.712" height="329.054" filterUnits="userSpaceOnUse" color-interpolation-filters="sRGB">
<feFlood flood-opacity="0" result="BackgroundImageFix"/>
<feBlend mode="normal" in="SourceGraphic" in2="BackgroundImageFix" result="shape"/>
<feGaussianBlur stdDeviation="0.430365" result="effect1_foregroundBlur_50_839"/>
</filter>
<filter id="filter2_f_50_839" x="302.141" y="205.635" width="492.704" height="329.04" filterUnits="userSpaceOnUse" color-interpolation-filters="sRGB">
<feFlood flood-opacity="0" result="BackgroundImageFix"/>
<feBlend mode="normal" in="SourceGraphic" in2="BackgroundImageFix" result="shape"/>
<feGaussianBlur stdDeviation="0.430365" result="effect1_foregroundBlur_50_839"/>
</filter>
<radialGradient id="paint0_radial_50_839" cx="0" cy="0" r="1" gradientUnits="userSpaceOnUse" gradientTransform="translate(512 409.6) scale(819.2)">
<stop stop-color="#2F3242"/>
<stop offset="1" stop-color="#1C1E2B"/>
</radialGradient>
<linearGradient id="paint1_linear_50_839" x1="392.589" y1="709.885" x2="542.688" y2="530.307" gradientUnits="userSpaceOnUse">
<stop stop-color="#FF9700"/>
<stop offset="0.574" stop-color="#F48E00"/>
<stop offset="1" stop-color="#CE6E00"/>
</linearGradient>
<linearGradient id="paint2_linear_50_839" x1="794.484" y1="614.291" x2="304.696" y2="614.291" gradientUnits="userSpaceOnUse">
<stop/>
<stop offset="1" stop-opacity="0"/>
</linearGradient>
<linearGradient id="paint3_linear_50_839" x1="303" y1="512.817" x2="793.999" y2="512.817" gradientUnits="userSpaceOnUse">
<stop/>
<stop offset="1" stop-opacity="0"/>
</linearGradient>
<linearGradient id="paint4_linear_50_839" x1="303" y1="357.64" x2="793.979" y2="357.64" gradientUnits="userSpaceOnUse">
<stop stop-color="#FF9800"/>
<stop offset="1" stop-color="#FFC522"/>
</linearGradient>
</defs>
</svg>