<svg xmlns="http://www.w3.org/2000/svg" width="1024" height="1024" viewBox="0 0 1024 1024" fill="none">
<path d="M789.333 0H234.667C105.064 0 0 105.064 0 234.667V789.333C0 918.936 105.064 1024 234.667 1024H789.333C918.936 1024 1024 918.936 1024 789.333V234.667C1024 105.064 918.936 0 789.333 0Z" fill="url(#paint0_radial_70_22)"/>
<path d="M501.5 235C332.235 235 195 372.235 195 541.5C195 710.765 332.235 848 501.5 848C670.765 848 808 710.765 808 541.5C808 372.235 670.765 235 501.5 235ZM501.5 282.15C644.406 282.329 760.186 398.237 760.186 541.168C760.186 684.227 644.227 800.186 501.168 800.186C358.109 800.186 242.15 684.227 242.15 541.168C242.15 469.651 271.14 404.903 318.009 358.034C364.929 311.165 429.728 282.175 501.296 282.175H501.474L501.5 282.15ZM501.5 352.9C389.321 372.67 289.3 476.113 289.3 588.65C344.189 491.745 380.841 484.772 390.981 484.772C401.121 484.772 406.459 490.034 406.459 501.706V646.119C406.459 664.074 371.57 661.137 360.025 659.375C402.679 722.846 501.5 730.125 501.5 730.125L548.65 682.975L595.8 706.55C670.228 672.478 713.675 599.531 713.675 588.675C695.77 610.846 671.633 627.371 643.92 635.57L642.924 635.825C636.667 635.825 619.349 632.607 619.349 624.025V453.075C619.349 438.235 653.626 392.95 666.499 376.45C581.394 398.748 556.721 437.596 556.721 437.596C556.721 437.596 550.259 423.6 525.049 423.6C537.846 435.681 546.453 452.053 548.599 470.392L548.624 470.75V615.162C535.215 624.689 519.405 631.841 502.317 635.621L501.449 635.774C485.102 635.774 477.133 629.133 477.133 616.618C477.133 604.103 477.874 447.175 477.874 447.175C477.874 447.175 454.299 455.833 454.299 407.381C454.299 383.142 501.449 352.849 501.449 352.849L501.5 352.9Z" fill="white"/>
<defs>
<radialGradient id="paint0_radial_70_22" cx="0" cy="0" r="1" gradientUnits="userSpaceOnUse" gradientTransform="translate(512 409.6) scale(819.2)">
<stop stop-color="#2F3242"/>
<stop offset="1" stop-color="#1C1E2B"/>
</radialGradient>
</defs>
</svg>