<svg xmlns="http://www.w3.org/2000/svg" width="1024" height="1024" viewBox="0 0 1024 1024" fill="none">
<path d="M789.333 0H234.667C105.064 0 0 105.064 0 234.667V789.333C0 918.936 105.064 1024 234.667 1024H789.333C918.936 1024 1024 918.936 1024 789.333V234.667C1024 105.064 918.936 0 789.333 0Z" fill="url(#paint0_radial_25_122)"/>
<path d="M774.143 507C774.143 649.016 659.016 764.143 517 764.143C462.833 764.143 412.577 747.394 371.129 718.794L283.234 740.766L306.267 654.394C277.02 612.658 259.857 561.834 259.857 507C259.857 364.984 374.984 249.857 517 249.857C659.016 249.857 774.143 364.984 774.143 507Z" fill="url(#paint1_linear_25_122)"/>
<path fill-rule="evenodd" clip-rule="evenodd" d="M517 807C682.686 807 817 672.686 817 507C817 341.315 682.686 207 517 207C351.315 207 217 341.315 217 507C217 560.805 231.164 611.301 255.967 654.964L217 807L373.747 770.653C416.316 793.83 465.119 807 517 807ZM517 760.847C657.196 760.847 770.847 647.196 770.847 507C770.847 366.805 657.196 253.154 517 253.154C376.805 253.154 263.154 366.805 263.154 507C263.154 561.131 280.096 611.304 308.968 652.504L286.231 737.769L372.999 716.076C413.916 744.313 463.527 760.847 517 760.847Z" fill="white"/>
<path d="M442 367.712C434.869 353.385 423.925 354.653 412.872 354.653C393.117 354.653 362.312 378.317 362.312 422.357C362.312 458.449 378.217 497.957 431.809 557.059C483.529 614.098 551.487 643.603 607.904 642.598C664.321 641.595 675.929 593.044 675.929 576.649C675.929 569.383 671.419 565.757 668.314 564.771C649.088 555.544 613.628 538.352 605.56 535.123C597.492 531.893 593.279 536.263 590.661 538.639C583.345 545.61 568.842 566.16 563.875 570.782C558.91 575.404 551.506 573.064 548.425 571.318C537.087 566.768 506.348 553.095 481.846 529.341C451.542 499.967 449.764 489.859 444.055 480.863C439.489 473.666 442.84 469.251 444.511 467.321C451.041 459.788 460.056 448.157 464.099 442.378C468.141 436.596 464.933 427.821 463.006 422.357C454.724 398.85 447.706 379.172 442 367.712Z" fill="white"/>
<defs>
<radialGradient id="paint0_radial_25_122" cx="0" cy="0" r="1" gradientUnits="userSpaceOnUse" gradientTransform="translate(512 409.6) scale(819.2)">
<stop stop-color="#2F3242"/>
<stop offset="1" stop-color="#1C1E2B"/>
</radialGradient>
<linearGradient id="paint1_linear_25_122" x1="742" y1="314.143" x2="259.857" y2="764.143" gradientUnits="userSpaceOnUse">
<stop stop-color="#5BD066"/>
<stop offset="1" stop-color="#27B43E"/>
</linearGradient>
</defs>
</svg>