<svg xmlns="http://www.w3.org/2000/svg" width="1024" height="1024" viewBox="0 0 1024 1024" fill="none">
<path d="M789.333 0H234.667C105.064 0 0 105.064 0 234.667V789.333C0 918.936 105.064 1024 234.667 1024H789.333C918.936 1024 1024 918.936 1024 789.333V234.667C1024 105.064 918.936 0 789.333 0Z" fill="url(#paint0_radial_48_420)"/>
<path fill-rule="evenodd" clip-rule="evenodd" d="M435.778 805H588.221C695.275 805 748.8 805 787.251 779.792C803.893 768.878 818.186 754.855 829.309 738.525C855 700.799 855 648.279 855 543.241C855 438.207 855 385.687 829.309 347.961C818.186 331.629 803.893 317.606 787.251 306.693C762.541 290.495 731.613 284.705 684.255 282.636C661.654 282.636 642.199 265.834 637.768 244.091C631.117 211.477 601.931 188 568.036 188H455.964C422.067 188 392.881 211.477 386.233 244.091C381.801 265.834 362.344 282.636 339.745 282.636C292.388 284.705 261.457 290.495 236.751 306.693C220.105 317.606 205.814 331.629 194.691 347.961C169 385.687 169 438.207 169 543.241C169 648.279 169 700.799 194.691 738.525C205.814 754.855 220.105 768.878 236.751 779.792C275.201 805 328.727 805 435.778 805ZM512 403.015C433.069 403.015 369.083 465.797 369.083 543.241C369.083 620.688 433.069 683.468 512 683.468C590.931 683.468 654.918 620.688 654.918 543.241C654.918 465.797 590.931 403.015 512 403.015ZM512 459.106C464.642 459.106 426.25 496.774 426.25 543.241C426.25 589.708 464.642 627.379 512 627.379C559.358 627.379 597.75 589.708 597.75 543.241C597.75 496.774 559.358 459.106 512 459.106ZM673.971 431.06C673.971 415.572 686.769 403.015 702.557 403.015H740.668C756.453 403.015 769.25 415.572 769.25 431.06C769.25 446.55 756.453 459.106 740.668 459.106H702.557C686.769 459.106 673.971 446.55 673.971 431.06Z" fill="url(#paint1_linear_48_420)"/>
<path d="M701.699 404C685.297 404 672 416.984 672 432.999C672 449.017 685.297 462 701.699 462H741.298C757.703 462 771 449.017 771 432.999C771 416.984 757.703 404 741.298 404H701.699Z" fill="#FF0000"/>
<path d="M691.298 398C669.595 398 652 412.327 652 429.999C652 447.673 669.595 462 691.298 462H743.697C765.405 462 783 447.673 783 429.999C783 412.327 765.405 398 743.697 398H691.298Z" fill="white" fill-opacity="0.2"/>
<path d="M503 696C585.29 696 652 629.29 652 547C652 464.71 585.29 398 503 398C420.71 398 354 464.71 354 547C354 629.29 420.71 696 503 696Z" fill="url(#paint2_radial_48_420)"/>
<path d="M503 683.229C578.237 683.229 639.229 622.237 639.229 547C639.229 471.763 578.237 410.771 503 410.771C427.763 410.771 366.771 471.763 366.771 547C366.771 622.237 427.763 683.229 503 683.229Z" stroke="#444444" stroke-width="6"/>
<path d="M503 671.876C571.967 671.876 627.876 615.967 627.876 547C627.876 478.033 571.967 422.124 503 422.124C434.033 422.124 378.124 478.033 378.124 547C378.124 615.967 434.033 671.876 503 671.876Z" fill="url(#paint3_radial_48_420)"/>
<path d="M503 634.981C551.591 634.981 590.981 595.59 590.981 547C590.981 498.409 551.591 459.019 503 459.019C454.409 459.019 415.019 498.409 415.019 547C415.019 595.59 454.409 634.981 503 634.981Z" fill="url(#paint4_radial_48_420)"/>
<path d="M503 620.791C543.753 620.791 576.79 587.754 576.79 547C576.79 506.247 543.753 473.21 503 473.21C462.247 473.21 429.21 506.247 429.21 547C429.21 587.754 462.247 620.791 503 620.791Z" fill="url(#paint5_radial_48_420)"/>
<path d="M503 589.571C526.512 589.571 545.571 570.511 545.571 547C545.571 523.488 526.512 504.428 503 504.428C479.488 504.428 460.429 523.488 460.429 547C460.429 570.511 479.488 589.571 503 589.571Z" fill="#050508"/>
<path opacity="0.25" d="M481.714 539.905C489.551 539.905 495.905 533.551 495.905 525.714C495.905 517.877 489.551 511.524 481.714 511.524C473.877 511.524 467.524 517.877 467.524 525.714C467.524 533.551 473.877 539.905 481.714 539.905Z" fill="white"/>
<path opacity="0.5" d="M477.457 528.553C481.376 528.553 484.552 525.376 484.552 521.457C484.552 517.539 481.376 514.362 477.457 514.362C473.539 514.362 470.362 517.539 470.362 521.457C470.362 525.376 473.539 528.553 477.457 528.553Z" fill="white"/>
<path d="M503 632.143C550.023 632.143 588.143 594.023 588.143 547C588.143 499.977 550.023 461.857 503 461.857C455.977 461.857 417.857 499.977 417.857 547C417.857 594.023 455.977 632.143 503 632.143Z" stroke="#555555" stroke-width="3"/>
<circle cx="503.5" cy="547.5" r="132.5" fill="#ABABAB" fill-opacity="0.2"/>
<defs>
<radialGradient id="paint0_radial_48_420" cx="0" cy="0" r="1" gradientUnits="userSpaceOnUse" gradientTransform="translate(512 409.6) scale(819.2)">
<stop stop-color="#2F3242"/>
<stop offset="1" stop-color="#1C1E2B"/>
</radialGradient>
<linearGradient id="paint1_linear_48_420" x1="512" y1="188" x2="512" y2="805" gradientUnits="userSpaceOnUse">
<stop stop-color="white"/>
<stop offset="1" stop-color="#999999"/>
</linearGradient>
<radialGradient id="paint2_radial_48_420" cx="0" cy="0" r="1" gradientUnits="userSpaceOnUse" gradientTransform="translate(479.16 511.24) scale(172.84)">
<stop stop-color="#555555"/>
<stop offset="0.6" stop-color="#222222"/>
<stop offset="1" stop-color="#111111"/>
</radialGradient>
<radialGradient id="paint3_radial_48_420" cx="0" cy="0" r="1" gradientUnits="userSpaceOnUse" gradientTransform="translate(473.03 509.537) scale(154.846)">
<stop stop-color="white" stop-opacity="0.9"/>
<stop offset="0.15" stop-color="#88CCFF"/>
<stop offset="0.3" stop-color="#6644FF"/>
<stop offset="0.45" stop-color="#00CC88"/>
<stop offset="0.6" stop-color="#FFCC00"/>
<stop offset="0.75" stop-color="#FF6600"/>
<stop offset="0.9" stop-color="#FF2244"/>
<stop offset="1" stop-color="#220011"/>
</radialGradient>
<radialGradient id="paint4_radial_48_420" cx="0" cy="0" r="1" gradientUnits="userSpaceOnUse" gradientTransform="translate(485.404 525.884) scale(105.577)">
<stop stop-color="#444444"/>
<stop offset="1" stop-color="#111111"/>
</radialGradient>
<radialGradient id="paint5_radial_48_420" cx="0" cy="0" r="1" gradientUnits="userSpaceOnUse" gradientTransform="translate(480.863 517.484) scale(95.9276)">
<stop stop-color="white" stop-opacity="0.6"/>
<stop offset="0.4" stop-color="#AADDFF" stop-opacity="0.3"/>
<stop offset="1" stop-opacity="0.8"/>
</radialGradient>
</defs>
</svg>