<svg xmlns="http://www.w3.org/2000/svg" width="730" height="609" viewBox="0 0 730 609" fill="none">
<path d="M657 76H328.5L255.5 0H73C32.85 0 0 34.2 0 76V228H730V152C730 110.2 697.15 76 657 76Z" fill="#7FB1FF"/>
<path d="M657 76H73C32.85 76 0 110.264 0 152.143V532.857C0 574.736 32.85 609 73 609H657C697.15 609 730 574.736 730 532.857V152.143C730 110.264 697.15 76 657 76Z" fill="url(#paint0_linear_32_62)"/>
<line x1="14.5" y1="-14.5" x2="560.72" y2="-14.5" transform="matrix(0.999976 0.00694526 -0.00716545 0.999974 55.7739 179.865)" stroke="url(#paint1_linear_32_62)" stroke-width="29" stroke-linecap="round"/>
<path d="M273.499 442.515C267.166 436.191 264 428.45 264 419.292C264 410.133 267.166 402.392 273.499 396.069C279.831 389.745 287.583 386.583 296.754 386.583C300.83 386.583 304.506 387.165 307.781 388.328C311.056 389.491 313.931 391.09 316.406 393.125V312.444L421 295V401.847C421 411.006 417.834 418.747 411.501 425.07C405.169 431.394 397.417 434.556 388.246 434.556C379.075 434.556 371.323 431.394 364.991 425.07C358.659 418.747 355.492 411.006 355.492 401.847C355.492 392.689 358.659 384.948 364.991 378.624C371.323 372.301 379.075 369.139 388.246 369.139C392.322 369.139 395.998 369.72 399.273 370.883C402.549 372.046 405.424 373.645 407.898 375.681V335.558L329.508 348.642V419.292C329.508 428.45 326.341 436.191 320.009 442.515C313.677 448.838 305.925 452 296.754 452C287.583 452 279.831 448.838 273.499 442.515Z" fill="#406CFE"/>
<path d="M657 76H328.5L255.5 0H73C32.85 0 0 34.2 0 76V228H730V152C730 110.2 697.15 76 657 76Z" fill="#7FB1FF"/>
<path d="M657 76H73C32.85 76 0 110.264 0 152.143V532.857C0 574.736 32.85 609 73 609H657C697.15 609 730 574.736 730 532.857V152.143C730 110.264 697.15 76 657 76Z" fill="url(#paint2_linear_32_62)"/>
<line x1="14.5" y1="-14.5" x2="560.72" y2="-14.5" transform="matrix(0.999976 0.00694526 -0.00716545 0.999974 55.7739 179.865)" stroke="url(#paint3_linear_32_62)" stroke-width="29" stroke-linecap="round"/>
<path d="M273.499 442.515C267.166 436.191 264 428.45 264 419.292C264 410.133 267.166 402.392 273.499 396.069C279.831 389.745 287.583 386.583 296.754 386.583C300.83 386.583 304.506 387.165 307.781 388.328C311.056 389.491 313.931 391.09 316.406 393.125V312.444L421 295V401.847C421 411.006 417.834 418.747 411.501 425.07C405.169 431.394 397.417 434.556 388.246 434.556C379.075 434.556 371.323 431.394 364.991 425.07C358.659 418.747 355.492 411.006 355.492 401.847C355.492 392.689 358.659 384.948 364.991 378.624C371.323 372.301 379.075 369.139 388.246 369.139C392.322 369.139 395.998 369.72 399.273 370.883C402.549 372.046 405.424 373.645 407.898 375.681V335.558L329.508 348.642V419.292C329.508 428.45 326.341 436.191 320.009 442.515C313.677 448.838 305.925 452 296.754 452C287.583 452 279.831 448.838 273.499 442.515Z" fill="#406CFE"/>
<defs>
<linearGradient id="paint0_linear_32_62" x1="-206.988" y1="-100.778" x2="923.586" y2="802.552" gradientUnits="userSpaceOnUse">
<stop stop-color="#80B8FF"/>
<stop offset="1" stop-color="#3274FF"/>
</linearGradient>
<linearGradient id="paint1_linear_32_62" x1="0" y1="0.5" x2="575.22" y2="0.5" gradientUnits="userSpaceOnUse">
<stop stop-color="#4E8BFF"/>
<stop offset="1" stop-color="#6DA7FF"/>
</linearGradient>
<linearGradient id="paint2_linear_32_62" x1="-206.988" y1="-100.778" x2="923.586" y2="802.552" gradientUnits="userSpaceOnUse">
<stop stop-color="#80B8FF"/>
<stop offset="1" stop-color="#3274FF"/>
</linearGradient>
<linearGradient id="paint3_linear_32_62" x1="0" y1="0.5" x2="575.22" y2="0.5" gradientUnits="userSpaceOnUse">
<stop stop-color="#4E8BFF"/>
<stop offset="1" stop-color="#6DA7FF"/>
</linearGradient>
</defs>
</svg>