<svg xmlns="http://www.w3.org/2000/svg" width="730" height="609" viewBox="0 0 730 609" fill="none">
<path d="M657 76H328.5L255.5 0H73C32.85 0 0 34.2 0 76V228H730V152C730 110.2 697.15 76 657 76Z" fill="#7FB1FF"/>
<path d="M657 76H73C32.85 76 0 110.264 0 152.143V532.857C0 574.736 32.85 609 73 609H657C697.15 609 730 574.736 730 532.857V152.143C730 110.264 697.15 76 657 76Z" fill="url(#paint0_linear_36_578)"/>
<line x1="14.5" y1="-14.5" x2="560.72" y2="-14.5" transform="matrix(0.999976 0.00694526 -0.00716545 0.999974 55.7734 179.865)" stroke="url(#paint1_linear_36_578)" stroke-width="29" stroke-linecap="round"/>
<path d="M657 76H328.5L255.5 0H73C32.85 0 0 34.2 0 76V228H730V152C730 110.2 697.15 76 657 76Z" fill="#7FB1FF"/>
<path d="M657 76H73C32.85 76 0 110.264 0 152.143V532.857C0 574.736 32.85 609 73 609H657C697.15 609 730 574.736 730 532.857V152.143C730 110.264 697.15 76 657 76Z" fill="url(#paint2_linear_36_578)"/>
<line x1="14.5" y1="-14.5" x2="560.72" y2="-14.5" transform="matrix(0.999976 0.00694526 -0.00716545 0.999974 55.7734 179.865)" stroke="url(#paint3_linear_36_578)" stroke-width="29" stroke-linecap="round"/>
<path d="M447.69 329.675C447.69 345.901 434.523 359.059 418.285 359.059C410.162 359.059 402.81 355.768 397.488 350.449C391.779 345.076 388.223 337.468 388.223 329.035C388.223 312.809 401.391 299.651 417.629 299.651C426.068 299.651 433.674 303.205 439.043 308.894L439.058 308.909C444.389 314.066 447.698 321.281 447.698 329.267V329.691V329.668L447.69 329.675ZM354.868 419.038C354.868 419.007 354.868 418.976 354.868 418.945C354.868 402.365 341.414 388.929 324.829 388.929C324.798 388.929 324.768 388.929 324.729 388.929H324.737C322.43 388.929 320.185 389.191 318.026 389.692L318.226 389.654L330.761 394.71C336.763 397.046 341.461 401.625 343.906 407.383L343.96 407.537C345.225 410.281 345.966 413.488 345.966 416.864C345.966 420.086 345.295 423.154 344.083 425.929L344.137 425.783C341.792 431.78 337.187 436.466 331.394 438.856L331.24 438.91C328.501 440.151 325.3 440.868 321.937 440.868C318.681 440.868 315.58 440.19 312.772 438.972L312.919 439.026C311.232 438.383 308.74 437.399 305.444 436.073L298.093 433.121C300.692 437.954 304.418 441.893 308.931 444.668L309.062 444.745C313.443 447.505 318.766 449.147 324.482 449.147H324.744H324.729H324.822C341.414 449.147 354.86 435.703 354.86 419.13C354.86 419.1 354.86 419.069 354.86 419.03L354.868 419.038ZM454.911 329.799C454.872 309.526 438.434 293.099 418.153 293.061C397.858 293.076 381.412 309.518 381.412 329.799C381.412 350.079 397.873 366.536 418.177 366.536C428.305 366.536 437.485 362.443 444.126 355.814C450.784 349.385 454.918 340.374 454.918 330.408C454.918 330.192 454.918 329.976 454.911 329.768V329.799ZM472.992 329.799C472.992 360.061 448.439 384.605 418.153 384.605H418.146L365.474 423C364.58 433.491 359.697 442.703 352.376 449.224L352.337 449.255C345.287 455.907 335.745 460 325.246 460C325.068 460 324.891 460 324.714 460H324.744C305.197 459.985 288.859 446.302 284.778 427.995L284.724 427.725L257 416.641V364.972L303.901 383.88C309.748 380.25 316.853 378.099 324.451 378.099H324.768H324.752C325.796 378.099 327.203 378.179 328.972 378.338L363.206 329.321C363.592 299.274 388.03 275.054 418.146 275H418.153C448.423 275.046 472.946 299.551 472.992 329.799Z" fill="#406CFE"/>
<defs>
<linearGradient id="paint0_linear_36_578" x1="-206.988" y1="-100.778" x2="923.586" y2="802.552" gradientUnits="userSpaceOnUse">
<stop stop-color="#80B8FF"/>
<stop offset="1" stop-color="#3274FF"/>
</linearGradient>
<linearGradient id="paint1_linear_36_578" x1="0" y1="0.5" x2="575.22" y2="0.5" gradientUnits="userSpaceOnUse">
<stop stop-color="#4E8BFF"/>
<stop offset="1" stop-color="#6DA7FF"/>
</linearGradient>
<linearGradient id="paint2_linear_36_578" x1="-206.988" y1="-100.778" x2="923.586" y2="802.552" gradientUnits="userSpaceOnUse">
<stop stop-color="#80B8FF"/>
<stop offset="1" stop-color="#3274FF"/>
</linearGradient>
<linearGradient id="paint3_linear_36_578" x1="0" y1="0.5" x2="575.22" y2="0.5" gradientUnits="userSpaceOnUse">
<stop stop-color="#4E8BFF"/>
<stop offset="1" stop-color="#6DA7FF"/>
</linearGradient>
</defs>
</svg>