<svg xmlns="http://www.w3.org/2000/svg" width="730" height="609" viewBox="0 0 730 609" fill="none">
<path d="M657 76H328.5L255.5 0H73C32.85 0 0 34.2 0 76V228H730V152C730 110.2 697.15 76 657 76Z" fill="#7FB1FF"/>
<path d="M657 76H73C32.85 76 0 110.264 0 152.143V532.857C0 574.736 32.85 609 73 609H657C697.15 609 730 574.736 730 532.857V152.143C730 110.264 697.15 76 657 76Z" fill="url(#paint0_linear_36_577)"/>
<line x1="14.5" y1="-14.5" x2="560.72" y2="-14.5" transform="matrix(0.999976 0.00694526 -0.00716545 0.999974 55.7734 179.865)" stroke="url(#paint1_linear_36_577)" stroke-width="29" stroke-linecap="round"/>
<path d="M657 76H328.5L255.5 0H73C32.85 0 0 34.2 0 76V228H730V152C730 110.2 697.15 76 657 76Z" fill="#7FB1FF"/>
<path d="M657 76H73C32.85 76 0 110.264 0 152.143V532.857C0 574.736 32.85 609 73 609H657C697.15 609 730 574.736 730 532.857V152.143C730 110.264 697.15 76 657 76Z" fill="url(#paint2_linear_36_577)"/>
<line x1="14.5" y1="-14.5" x2="560.72" y2="-14.5" transform="matrix(0.999976 0.00694526 -0.00716545 0.999974 55.7734 179.865)" stroke="url(#paint3_linear_36_577)" stroke-width="29" stroke-linecap="round"/>
<path fill-rule="evenodd" clip-rule="evenodd" d="M356.024 396.745L310.849 434.503L291.158 421.795V436.041L355.895 475L420.632 436.041V421.795L401.07 434.503L356.024 396.745ZM463.789 312.331L400.315 270L355.895 307.863L419.898 348.234L463.789 312.331ZM355.895 388.6L400.315 426.468L463.789 384.138L419.898 348.234L355.895 388.6ZM248 384.138L311.474 426.468L355.895 388.6L291.892 348.234L248 384.138ZM355.895 307.863L291.892 348.234L248 312.331L311.474 270L355.895 307.863Z" fill="#406CFE"/>
<defs>
<linearGradient id="paint0_linear_36_577" x1="-206.988" y1="-100.778" x2="923.586" y2="802.552" gradientUnits="userSpaceOnUse">
<stop stop-color="#80B8FF"/>
<stop offset="1" stop-color="#3274FF"/>
</linearGradient>
<linearGradient id="paint1_linear_36_577" x1="0" y1="0.5" x2="575.22" y2="0.5" gradientUnits="userSpaceOnUse">
<stop stop-color="#4E8BFF"/>
<stop offset="1" stop-color="#6DA7FF"/>
</linearGradient>
<linearGradient id="paint2_linear_36_577" x1="-206.988" y1="-100.778" x2="923.586" y2="802.552" gradientUnits="userSpaceOnUse">
<stop stop-color="#80B8FF"/>
<stop offset="1" stop-color="#3274FF"/>
</linearGradient>
<linearGradient id="paint3_linear_36_577" x1="0" y1="0.5" x2="575.22" y2="0.5" gradientUnits="userSpaceOnUse">
<stop stop-color="#4E8BFF"/>
<stop offset="1" stop-color="#6DA7FF"/>
</linearGradient>
</defs>
</svg>