<svg xmlns="http://www.w3.org/2000/svg" width="730" height="609" viewBox="0 0 730 609" fill="none">
<path d="M657 76H328.5L255.5 0H73C32.85 0 0 34.2 0 76V228H730V152C730 110.2 697.15 76 657 76Z" fill="url(#paint0_linear_70_164)"/>
<path d="M657 76H73C32.85 76 0 110.264 0 152.143V532.857C0 574.736 32.85 609 73 609H657C697.15 609 730 574.736 730 532.857V152.143C730 110.264 697.15 76 657 76Z" fill="url(#paint1_linear_70_164)"/>
<line x1="14.5" y1="-14.5" x2="560.72" y2="-14.5" transform="matrix(0.999976 0.00694526 -0.00716545 0.999974 55.7738 179.865)" stroke="url(#paint2_linear_70_164)" stroke-width="29" stroke-linecap="round"/>
<path d="M348.849 247.012C345.43 247.147 342.138 248.345 339.431 250.442C336.723 252.538 334.733 255.428 333.739 258.71C332.745 261.991 332.795 265.502 333.883 268.754C334.97 272.006 337.041 274.837 339.808 276.855L358.993 291.298C351.32 293.141 343.999 295.918 337.162 299.477H257.407C254.913 299.442 252.438 299.904 250.124 300.836C247.81 301.768 245.704 303.152 243.928 304.907C242.152 306.662 240.742 308.754 239.779 311.06C238.817 313.366 238.321 315.841 238.321 318.341C238.321 320.841 238.817 323.316 239.779 325.622C240.742 327.928 242.152 330.02 243.928 331.775C245.704 333.53 247.81 334.914 250.124 335.846C252.438 336.778 254.913 337.24 257.407 337.205H297.909C296.274 340.057 294.769 343.022 293.425 346.047L215.067 408.829C213.136 410.377 211.529 412.291 210.336 414.462C209.143 416.633 208.388 419.019 208.115 421.482C207.842 423.946 208.056 426.439 208.744 428.82C209.432 431.2 210.581 433.422 212.126 435.357C213.67 437.293 215.58 438.904 217.746 440.1C219.912 441.295 222.291 442.051 224.749 442.325C227.206 442.599 229.693 442.384 232.068 441.694C234.443 441.004 236.659 439.852 238.589 438.304L286.221 400.134C293.355 446.469 333.34 482 381.559 482C434.821 482 478 438.715 478 385.323C478 346.629 455.259 313.231 422.503 297.782L359.581 250.475C356.522 248.091 352.721 246.864 348.849 247.012ZM383.544 323.868C415.168 323.868 440.806 347.74 440.806 377.217C440.806 406.694 415.168 430.64 383.544 430.64C351.92 430.64 326.283 406.694 326.283 377.217C326.283 347.74 351.92 323.868 383.544 323.868ZM383.544 340.005C361.467 340.005 343.557 356.638 343.557 377.217C343.557 397.795 361.467 414.503 383.544 414.503C405.621 414.503 423.532 397.795 423.532 377.217C423.532 356.638 405.621 340.005 383.544 340.005Z" fill="#D04D00"/>
<defs>
<linearGradient id="paint0_linear_70_164" x1="0" y1="114" x2="730" y2="114" gradientUnits="userSpaceOnUse">
<stop stop-color="#FF4500"/>
<stop offset="1" stop-color="#FFA500"/>
</linearGradient>
<linearGradient id="paint1_linear_70_164" x1="-206.988" y1="-100.778" x2="923.586" y2="802.552" gradientUnits="userSpaceOnUse">
<stop stop-color="#FFA500"/>
<stop offset="1" stop-color="#FF4500"/>
</linearGradient>
<linearGradient id="paint2_linear_70_164" x1="0" y1="0.5" x2="575.22" y2="0.5" gradientUnits="userSpaceOnUse">
<stop stop-color="#FFA500"/>
<stop offset="1" stop-color="#FF4500"/>
</linearGradient>
</defs>
</svg>