<svg xmlns="http://www.w3.org/2000/svg" width="738" height="617" viewBox="0 0 738 617" fill="none">
<g filter="url(#filter0_d_32_63)">
<path d="M661 76H332.5L259.5 0H77C36.85 0 4 34.2 4 76V228H734V152C734 110.2 701.15 76 661 76Z" fill="#7FB1FF"/>
<path d="M661 76H77C36.85 76 4 110.264 4 152.143V532.857C4 574.736 36.85 609 77 609H661C701.15 609 734 574.736 734 532.857V152.143C734 110.264 701.15 76 661 76Z" fill="url(#paint0_linear_32_63)"/>
<line x1="14.5" y1="-14.5" x2="560.72" y2="-14.5" transform="matrix(0.999976 0.00694526 -0.00716545 0.999974 59.7739 179.865)" stroke="url(#paint1_linear_32_63)" stroke-width="29" stroke-linecap="round"/>
<path d="M390.237 401.27C402.134 400.633 412.762 396.134 422.121 387.772C431.481 379.411 436.716 369.019 437.826 356.596C425.929 356.596 415.062 360.936 405.227 369.616C395.392 378.296 390.395 388.847 390.237 401.27ZM390.237 401.27C389.919 388.847 384.883 378.296 375.127 369.616C365.371 360.936 354.545 356.596 342.647 356.596C343.758 369.019 348.993 379.411 358.352 387.772C367.711 396.134 378.339 400.633 390.237 401.27ZM390.237 369.258C393.568 369.258 396.265 368.223 398.327 366.152C400.389 364.082 401.42 361.374 401.42 358.03V355.641L403.8 356.358C407.765 357.632 411.057 357.95 413.674 357.313C416.292 356.676 418.235 355.243 419.504 353.013C420.773 350.783 421.289 348.076 421.051 344.891C420.813 341.705 418.87 339.237 415.221 337.485L412.604 336.29L415.221 334.857C418.87 332.946 420.813 330.477 421.051 327.451C421.289 324.425 420.773 321.797 419.504 319.568C418.235 317.338 416.252 315.905 413.555 315.268C410.859 314.631 407.607 314.949 403.8 316.223L401.42 316.94V314.551C401.42 311.206 400.389 308.499 398.327 306.429C396.265 304.358 393.568 303.323 390.237 303.323C386.905 303.323 384.169 304.358 382.028 306.429C379.886 308.499 378.815 311.206 378.815 314.551V316.94L376.436 316.223C372.47 314.949 369.218 314.631 366.68 315.268C364.142 315.905 362.159 317.338 360.731 319.568C359.304 321.797 358.748 324.425 359.066 327.451C359.383 330.477 361.366 332.946 365.014 334.857L367.632 336.29L365.014 337.485C361.366 339.237 359.423 341.705 359.185 344.891C358.947 348.076 359.462 350.783 360.731 353.013C362 355.243 363.983 356.676 366.68 357.313C369.377 357.95 372.629 357.632 376.436 356.358L378.815 355.641V358.03C378.815 361.374 379.886 364.082 382.028 366.152C384.169 368.223 386.905 369.258 390.237 369.258ZM390.237 347.518C387.064 347.518 384.407 346.443 382.266 344.293C380.124 342.143 379.053 339.476 379.053 336.29C379.053 333.105 380.124 330.437 382.266 328.287C384.407 326.137 387.064 325.062 390.237 325.062C393.409 325.062 396.066 326.137 398.208 328.287C400.349 330.437 401.42 333.105 401.42 336.29C401.42 339.476 400.349 342.143 398.208 344.293C396.066 346.443 393.409 347.518 390.237 347.518ZM305.29 468.877C301.324 469.355 297.795 468.439 294.701 466.13C291.608 463.821 289.823 460.675 289.348 456.693L274.119 337.724C273.643 333.742 274.595 330.159 276.974 326.973C279.354 323.788 282.526 321.957 286.492 321.479L301.721 319.807V412.259C301.721 420.222 304.457 426.991 309.93 432.565C315.403 438.139 322.105 440.926 330.036 440.926H446.392C446.392 444.112 445.44 446.859 443.537 449.168C441.633 451.478 439.095 452.792 435.922 453.11L305.29 468.877ZM330.274 426.593C326.467 426.593 323.136 425.159 320.281 422.293C317.425 419.426 315.997 416.081 315.997 412.259V292.334C315.997 288.511 317.425 285.167 320.281 282.3C323.136 279.433 326.467 278 330.274 278H449.723C453.53 278 456.862 279.433 459.717 282.3C462.572 285.167 464 288.511 464 292.334V412.259C464 416.081 462.572 419.426 459.717 422.293C456.862 425.159 453.53 426.593 449.723 426.593H330.274Z" fill="#406CFE"/>
<path d="M661 76H332.5L259.5 0H77C36.85 0 4 34.2 4 76V228H734V152C734 110.2 701.15 76 661 76Z" fill="#7FB1FF"/>
<path d="M661 76H77C36.85 76 4 110.264 4 152.143V532.857C4 574.736 36.85 609 77 609H661C701.15 609 734 574.736 734 532.857V152.143C734 110.264 701.15 76 661 76Z" fill="url(#paint2_linear_32_63)"/>
<line x1="14.5" y1="-14.5" x2="560.72" y2="-14.5" transform="matrix(0.999976 0.00694526 -0.00716545 0.999974 59.7739 179.865)" stroke="url(#paint3_linear_32_63)" stroke-width="29" stroke-linecap="round"/>
<path d="M390.237 401.27C402.134 400.633 412.762 396.134 422.121 387.772C431.481 379.411 436.716 369.019 437.826 356.596C425.929 356.596 415.062 360.936 405.227 369.616C395.392 378.296 390.395 388.847 390.237 401.27ZM390.237 401.27C389.919 388.847 384.883 378.296 375.127 369.616C365.371 360.936 354.545 356.596 342.647 356.596C343.758 369.019 348.993 379.411 358.352 387.772C367.711 396.134 378.339 400.633 390.237 401.27ZM390.237 369.258C393.568 369.258 396.265 368.223 398.327 366.152C400.389 364.082 401.42 361.374 401.42 358.03V355.641L403.8 356.358C407.765 357.632 411.057 357.95 413.674 357.313C416.292 356.676 418.235 355.243 419.504 353.013C420.773 350.783 421.289 348.076 421.051 344.891C420.813 341.705 418.87 339.237 415.221 337.485L412.604 336.29L415.221 334.857C418.87 332.946 420.813 330.477 421.051 327.451C421.289 324.425 420.773 321.797 419.504 319.568C418.235 317.338 416.252 315.905 413.555 315.268C410.859 314.631 407.607 314.949 403.8 316.223L401.42 316.94V314.551C401.42 311.206 400.389 308.499 398.327 306.429C396.265 304.358 393.568 303.323 390.237 303.323C386.905 303.323 384.169 304.358 382.028 306.429C379.886 308.499 378.815 311.206 378.815 314.551V316.94L376.436 316.223C372.47 314.949 369.218 314.631 366.68 315.268C364.142 315.905 362.159 317.338 360.731 319.568C359.304 321.797 358.748 324.425 359.066 327.451C359.383 330.477 361.366 332.946 365.014 334.857L367.632 336.29L365.014 337.485C361.366 339.237 359.423 341.705 359.185 344.891C358.947 348.076 359.462 350.783 360.731 353.013C362 355.243 363.983 356.676 366.68 357.313C369.377 357.95 372.629 357.632 376.436 356.358L378.815 355.641V358.03C378.815 361.374 379.886 364.082 382.028 366.152C384.169 368.223 386.905 369.258 390.237 369.258ZM390.237 347.518C387.064 347.518 384.407 346.443 382.266 344.293C380.124 342.143 379.053 339.476 379.053 336.29C379.053 333.105 380.124 330.437 382.266 328.287C384.407 326.137 387.064 325.062 390.237 325.062C393.409 325.062 396.066 326.137 398.208 328.287C400.349 330.437 401.42 333.105 401.42 336.29C401.42 339.476 400.349 342.143 398.208 344.293C396.066 346.443 393.409 347.518 390.237 347.518ZM305.29 468.877C301.324 469.355 297.795 468.439 294.701 466.13C291.608 463.821 289.823 460.675 289.348 456.693L274.119 337.724C273.643 333.742 274.595 330.159 276.974 326.973C279.354 323.788 282.526 321.957 286.492 321.479L301.721 319.807V412.259C301.721 420.222 304.457 426.991 309.93 432.565C315.403 438.139 322.105 440.926 330.036 440.926H446.392C446.392 444.112 445.44 446.859 443.537 449.168C441.633 451.478 439.095 452.792 435.922 453.11L305.29 468.877ZM330.274 426.593C326.467 426.593 323.136 425.159 320.281 422.293C317.425 419.426 315.997 416.081 315.997 412.259V292.334C315.997 288.511 317.425 285.167 320.281 282.3C323.136 279.433 326.467 278 330.274 278H449.723C453.53 278 456.862 279.433 459.717 282.3C462.572 285.167 464 288.511 464 292.334V412.259C464 416.081 462.572 419.426 459.717 422.293C456.862 425.159 453.53 426.593 449.723 426.593H330.274Z" fill="#406CFE"/>
</g>
<defs>
<filter id="filter0_d_32_63" x="0" y="0" width="738" height="617" filterUnits="userSpaceOnUse" color-interpolation-filters="sRGB">
<feFlood flood-opacity="0" result="BackgroundImageFix"/>
<feColorMatrix in="SourceAlpha" type="matrix" values="0 0 0 0 0 0 0 0 0 0 0 0 0 0 0 0 0 0 127 0" result="hardAlpha"/>
<feOffset dy="4"/>
<feGaussianBlur stdDeviation="2"/>
<feComposite in2="hardAlpha" operator="out"/>
<feColorMatrix type="matrix" values="0 0 0 0 0 0 0 0 0 0 0 0 0 0 0 0 0 0 0.25 0"/>
<feBlend mode="normal" in2="BackgroundImageFix" result="effect1_dropShadow_32_63"/>
<feBlend mode="normal" in="SourceGraphic" in2="effect1_dropShadow_32_63" result="shape"/>
</filter>
<linearGradient id="paint0_linear_32_63" x1="-202.988" y1="-100.778" x2="927.586" y2="802.552" gradientUnits="userSpaceOnUse">
<stop stop-color="#80B8FF"/>
<stop offset="1" stop-color="#3274FF"/>
</linearGradient>
<linearGradient id="paint1_linear_32_63" x1="0" y1="0.5" x2="575.22" y2="0.5" gradientUnits="userSpaceOnUse">
<stop stop-color="#4E8BFF"/>
<stop offset="1" stop-color="#6DA7FF"/>
</linearGradient>
<linearGradient id="paint2_linear_32_63" x1="-202.988" y1="-100.778" x2="927.586" y2="802.552" gradientUnits="userSpaceOnUse">
<stop stop-color="#80B8FF"/>
<stop offset="1" stop-color="#3274FF"/>
</linearGradient>
<linearGradient id="paint3_linear_32_63" x1="0" y1="0.5" x2="575.22" y2="0.5" gradientUnits="userSpaceOnUse">
<stop stop-color="#4E8BFF"/>
<stop offset="1" stop-color="#6DA7FF"/>
</linearGradient>
</defs>
</svg>