<svg xmlns="http://www.w3.org/2000/svg" width="730" height="609" viewBox="0 0 730 609" fill="none">
<path d="M657 76H328.5L255.5 0H73C32.85 0 0 34.2 0 76V228H730V152C730 110.2 697.15 76 657 76Z" fill="#7FB1FF"/>
<path d="M657 76H73C32.85 76 0 110.264 0 152.143V532.857C0 574.736 32.85 609 73 609H657C697.15 609 730 574.736 730 532.857V152.143C730 110.264 697.15 76 657 76Z" fill="url(#paint0_linear_9_266)"/>
<line x1="14.5" y1="-14.5" x2="560.72" y2="-14.5" transform="matrix(0.999976 0.00694526 -0.00716545 0.999974 55.7739 179.865)" stroke="url(#paint1_linear_9_266)" stroke-width="29" stroke-linecap="round"/>
<path d="M351.133 398.525L413.967 358.167L351.133 317.808V398.525ZM311.5 440.333C307.633 440.333 304.25 438.883 301.35 435.983C298.45 433.083 297 429.7 297 425.833V290.5C297 286.633 298.45 283.25 301.35 280.35C304.25 277.45 307.633 276 311.5 276H446.833C450.7 276 454.083 277.45 456.983 280.35C459.883 283.25 461.333 286.633 461.333 290.5V425.833C461.333 429.7 459.883 433.083 456.983 435.983C454.083 438.883 450.7 440.333 446.833 440.333H311.5ZM282.5 469.333C278.633 469.333 275.25 467.883 272.35 464.983C269.45 462.083 268 458.7 268 454.833V305H282.5V454.833H432.333V469.333H282.5Z" fill="#406CFE"/>
<defs>
<linearGradient id="paint0_linear_9_266" x1="-206.988" y1="-100.778" x2="923.586" y2="802.552" gradientUnits="userSpaceOnUse">
<stop stop-color="#80B8FF"/>
<stop offset="1" stop-color="#3274FF"/>
</linearGradient>
<linearGradient id="paint1_linear_9_266" x1="0" y1="0.5" x2="575.22" y2="0.5" gradientUnits="userSpaceOnUse">
<stop stop-color="#4E8BFF"/>
<stop offset="1" stop-color="#6DA7FF"/>
</linearGradient>
</defs>
</svg>