<svg width="730" height="609" viewBox="0 0 730 609" fill="none" xmlns="http://www.w3.org/2000/svg">
<path d="M657 76H328.5L255.5 0H73C32.85 0 0 34.2 0 76V228H730V152C730 110.2 697.15 76 657 76Z" fill="url(#paint0_linear_58_1084)"/>
<path d="M657 76H73C32.85 76 0 110.264 0 152.143V532.857C0 574.736 32.85 609 73 609H657C697.15 609 730 574.736 730 532.857V152.143C730 110.264 697.15 76 657 76Z" fill="url(#paint1_linear_58_1084)"/>
<line x1="14.5" y1="-14.5" x2="560.72" y2="-14.5" transform="matrix(0.999976 0.00694526 -0.00716545 0.999974 55.7739 179.865)" stroke="url(#paint2_linear_58_1084)" stroke-width="29" stroke-linecap="round"/>
<path d="M281.62 483C267.846 483 256.081 478.073 246.324 468.219C236.567 458.365 231.459 446.448 231 432.469C231 430.406 231.115 428.344 231.344 426.281C231.574 424.219 231.918 422.156 232.377 420.094L261.303 304.594C264.517 292.219 271.06 282.193 280.932 274.516C290.803 266.839 302.052 263 314.678 263H448.977C461.604 263 472.853 266.839 482.724 274.516C492.596 282.193 499.138 292.219 502.352 304.594L531.278 420.094C531.737 422.156 532.139 424.276 532.483 426.453C532.828 428.63 533 430.75 533 432.812C533 446.792 528.007 458.651 518.021 468.391C508.034 478.13 496.039 483 482.035 483C472.393 483 463.44 480.479 455.176 475.438C446.911 470.396 440.713 463.521 436.58 454.812L426.938 434.875C425.791 432.583 424.069 430.865 421.773 429.719C419.477 428.573 417.067 428 414.542 428H349.114C346.589 428 344.178 428.573 341.883 429.719C339.587 430.865 337.865 432.583 336.717 434.875L327.075 454.812C322.943 463.521 316.745 470.396 308.48 475.438C300.216 480.479 291.262 483 281.62 483ZM409.893 352.829C411.844 350.842 412.82 348.378 412.82 345.438C412.82 342.5 411.824 340.057 409.831 338.109C407.84 336.161 405.373 335.188 402.427 335.188C399.484 335.188 397.037 336.182 395.086 338.171C393.134 340.158 392.158 342.622 392.158 345.562C392.158 348.5 393.155 350.943 395.148 352.891C397.138 354.839 399.606 355.812 402.551 355.812C405.494 355.812 407.941 354.818 409.893 352.829ZM437.441 325.329C439.393 323.342 440.368 320.878 440.368 317.938C440.368 315 439.372 312.557 437.379 310.609C435.389 308.661 432.921 307.688 429.976 307.688C427.033 307.688 424.585 308.682 422.634 310.671C420.683 312.658 419.707 315.122 419.707 318.062C419.707 321 420.703 323.443 422.696 325.391C424.686 327.339 427.154 328.312 430.1 328.312C433.043 328.312 435.49 327.318 437.441 325.329ZM437.441 380.329C439.393 378.342 440.368 375.878 440.368 372.938C440.368 370 439.372 367.557 437.379 365.609C435.389 363.661 432.921 362.688 429.976 362.688C427.033 362.688 424.585 363.682 422.634 365.671C420.683 367.658 419.707 370.122 419.707 373.062C419.707 376 420.703 378.443 422.696 380.391C424.686 382.339 427.154 383.312 430.1 383.312C433.043 383.312 435.49 382.318 437.441 380.329ZM464.99 352.829C466.941 350.842 467.917 348.378 467.917 345.438C467.917 342.5 466.92 340.057 464.928 338.109C462.937 336.161 460.469 335.188 457.524 335.188C454.581 335.188 452.134 336.182 450.182 338.171C448.231 340.158 447.255 342.622 447.255 345.562C447.255 348.5 448.252 350.943 450.244 352.891C452.235 354.839 454.703 355.812 457.648 355.812C460.591 355.812 463.038 354.818 464.99 352.829ZM339.816 375.723C341.423 374.098 342.227 372.044 342.227 369.562V354.094H357.723C360.209 354.094 362.266 353.278 363.894 351.646C365.519 350.017 366.332 347.954 366.332 345.459C366.332 342.965 365.519 340.917 363.894 339.312C362.266 337.708 360.209 336.906 357.723 336.906H342.227V321.438C342.227 318.956 341.41 316.902 339.775 315.278C338.143 313.655 336.077 312.844 333.577 312.844C331.079 312.844 329.027 313.655 327.42 315.278C325.813 316.902 325.009 318.956 325.009 321.438V336.906H309.513C307.027 336.906 304.97 337.722 303.342 339.354C301.717 340.983 300.904 343.046 300.904 345.541C300.904 348.035 301.717 350.083 303.342 351.688C304.97 353.292 307.027 354.094 309.513 354.094H325.009V369.562C325.009 372.044 325.826 374.098 327.461 375.723C329.093 377.345 331.159 378.156 333.659 378.156C336.157 378.156 338.209 377.345 339.816 375.723Z" fill="#30C67C"/>
<defs>
<linearGradient id="paint0_linear_58_1084" x1="0" y1="114" x2="730" y2="114" gradientUnits="userSpaceOnUse">
<stop stop-color="#89C56E"/>
<stop offset="1" stop-color="#CAE06A"/>
</linearGradient>
<linearGradient id="paint1_linear_58_1084" x1="-206.988" y1="-100.778" x2="923.586" y2="802.552" gradientUnits="userSpaceOnUse">
<stop stop-color="#F4F269"/>
<stop offset="1" stop-color="#5CB270"/>
</linearGradient>
<linearGradient id="paint2_linear_58_1084" x1="0" y1="0.5" x2="575.22" y2="0.5" gradientUnits="userSpaceOnUse">
<stop stop-color="#5CB270"/>
<stop offset="1" stop-color="#F4F269"/>
</linearGradient>
</defs>
</svg>
