<svg width="730" height="609" viewBox="0 0 730 609" fill="none" xmlns="http://www.w3.org/2000/svg">
<path d="M657 76H328.5L255.5 0H73C32.85 0 0 34.2 0 76V228H730V152C730 110.2 697.15 76 657 76Z" fill="url(#paint0_linear_58_1137)"/>
<path d="M657 76H73C32.85 76 0 110.264 0 152.143V532.857C0 574.736 32.85 609 73 609H657C697.15 609 730 574.736 730 532.857V152.143C730 110.264 697.15 76 657 76Z" fill="url(#paint1_linear_58_1137)"/>
<line x1="14.5" y1="-14.5" x2="560.72" y2="-14.5" transform="matrix(0.999976 0.00694526 -0.00716545 0.999974 55.7739 179.865)" stroke="url(#paint2_linear_58_1137)" stroke-width="29" stroke-linecap="round"/>
<path d="M385.778 409.93C401.621 409.082 415.773 403.099 428.235 391.98C440.698 380.861 447.669 367.041 449.147 350.521C433.305 350.521 418.836 356.292 405.74 367.835C392.643 379.378 385.99 393.41 385.778 409.93ZM385.778 409.93C385.356 393.41 378.649 379.378 365.659 367.835C352.668 356.292 338.252 350.521 322.41 350.521C323.888 367.041 330.859 380.861 343.321 391.98C355.784 403.099 369.936 409.082 385.778 409.93ZM385.778 367.359C390.214 367.359 393.805 365.982 396.551 363.229C399.297 360.475 400.67 356.875 400.67 352.427V349.25L403.838 350.203C409.119 351.898 413.502 352.321 416.987 351.474C420.473 350.627 423.06 348.721 424.75 345.756C426.44 342.79 427.126 339.19 426.81 334.954C426.493 330.718 423.905 327.435 419.047 325.106L415.562 323.517L419.047 321.611C423.905 319.069 426.493 315.787 426.81 311.762C427.126 307.738 426.44 304.244 424.75 301.279C423.06 298.313 420.42 296.407 416.829 295.56C413.238 294.713 408.908 295.136 403.838 296.831L400.67 297.784V294.607C400.67 290.159 399.297 286.559 396.551 283.805C393.805 281.052 390.214 279.675 385.778 279.675C381.343 279.675 377.699 281.052 374.847 283.805C371.996 286.559 370.57 290.159 370.57 294.607V297.784L367.401 296.831C362.121 295.136 357.79 294.713 354.411 295.56C351.031 296.407 348.391 298.313 346.49 301.279C344.589 304.244 343.849 307.738 344.272 311.762C344.694 315.787 347.335 319.069 352.193 321.611L355.678 323.517L352.193 325.106C347.335 327.435 344.747 330.718 344.43 334.954C344.113 339.19 344.8 342.79 346.49 345.756C348.18 348.721 350.82 350.627 354.411 351.474C358.002 352.321 362.332 351.898 367.401 350.203L370.57 349.25V352.427C370.57 356.875 371.996 360.475 374.847 363.229C377.699 365.982 381.343 367.359 385.778 367.359ZM385.778 338.449C381.554 338.449 378.016 337.019 375.164 334.16C372.312 331.301 370.887 327.753 370.887 323.517C370.887 319.281 372.312 315.734 375.164 312.874C378.016 310.015 381.554 308.585 385.778 308.585C390.003 308.585 393.541 310.015 396.393 312.874C399.244 315.734 400.67 319.281 400.67 323.517C400.67 327.753 399.244 331.301 396.393 334.16C393.541 337.019 390.003 338.449 385.778 338.449ZM272.665 499.837C267.384 500.472 262.684 499.254 258.565 496.183C254.446 493.112 252.07 488.929 251.436 483.634L231.158 325.423C230.525 320.128 231.792 315.363 234.961 311.127C238.129 306.891 242.354 304.455 247.634 303.82L267.912 301.596V424.543C267.912 435.133 271.556 444.134 278.843 451.547C286.131 458.96 295.055 462.667 305.617 462.667H460.554C460.554 466.902 459.286 470.556 456.751 473.627C454.217 476.698 450.837 478.445 446.612 478.869L272.665 499.837ZM305.934 443.605C300.864 443.605 296.428 441.699 292.626 437.886C288.824 434.074 286.923 429.626 286.923 424.543V265.062C286.923 259.978 288.824 255.531 292.626 251.718C296.428 247.906 300.864 246 305.934 246H464.989C470.059 246 474.495 247.906 478.297 251.718C482.099 255.531 484 259.978 484 265.062V424.543C484 429.626 482.099 434.074 478.297 437.886C474.495 441.699 470.059 443.605 464.989 443.605H305.934Z" fill="#30C67C"/>
<defs>
<linearGradient id="paint0_linear_58_1137" x1="0" y1="114" x2="730" y2="114" gradientUnits="userSpaceOnUse">
<stop stop-color="#89C56E"/>
<stop offset="1" stop-color="#CAE06A"/>
</linearGradient>
<linearGradient id="paint1_linear_58_1137" x1="-206.988" y1="-100.778" x2="923.586" y2="802.552" gradientUnits="userSpaceOnUse">
<stop stop-color="#F4F269"/>
<stop offset="1" stop-color="#5CB270"/>
</linearGradient>
<linearGradient id="paint2_linear_58_1137" x1="0" y1="0.5" x2="575.22" y2="0.5" gradientUnits="userSpaceOnUse">
<stop stop-color="#5CB270"/>
<stop offset="1" stop-color="#F4F269"/>
</linearGradient>
</defs>
</svg>
