<svg width="730" height="609" viewBox="0 0 730 609" fill="none" xmlns="http://www.w3.org/2000/svg">
<path d="M657 76H328.5L255.5 0H73C32.85 0 0 34.2 0 76V228H730V152C730 110.2 697.15 76 657 76Z" fill="url(#paint0_linear_58_1143)"/>
<path d="M657 76H73C32.85 76 0 110.264 0 152.143V532.857C0 574.736 32.85 609 73 609H657C697.15 609 730 574.736 730 532.857V152.143C730 110.264 697.15 76 657 76Z" fill="url(#paint1_linear_58_1143)"/>
<line x1="14.5" y1="-14.5" x2="560.72" y2="-14.5" transform="matrix(0.999976 0.00694526 -0.00716545 0.999974 55.7734 179.865)" stroke="url(#paint2_linear_58_1143)" stroke-width="29" stroke-linecap="round"/>
<path fill-rule="evenodd" clip-rule="evenodd" d="M286.263 238C286.508 238 286.753 238 287 238H399.737C409.666 237.999 418.22 237.999 425.071 238.919C432.413 239.905 439.451 242.128 445.158 247.83C450.867 253.532 453.093 260.562 454.08 267.895C455.001 274.738 455.001 283.284 455 293.201V361.799C455.001 371.716 455.001 380.261 454.08 387.105C453.093 394.438 450.867 401.468 445.158 407.169C439.451 412.872 432.413 415.095 425.071 416.081C418.22 417.001 409.666 417.001 399.737 417H286.263C276.334 417.001 267.779 417.001 260.929 416.081C253.587 415.095 246.55 412.872 240.841 407.169C235.133 401.468 232.907 394.438 231.92 387.105C230.999 380.261 230.999 371.716 231 361.799V293.937C231 293.691 231 293.446 231 293.201C230.999 283.284 230.999 274.738 231.92 267.895C232.907 260.562 235.133 253.532 240.841 247.83C246.55 242.128 253.587 239.905 260.929 238.919C267.779 237.999 276.334 237.999 286.263 238ZM253.4 361.062C253.4 354.884 258.414 349.875 264.6 349.875H421.4C427.586 349.875 432.6 354.884 432.6 361.062C432.6 367.241 427.586 372.25 421.4 372.25H264.6C258.414 372.25 253.4 367.241 253.4 361.062Z" fill="#6DCC74"/>
<path d="M384.727 443H301.272C296.038 459.051 307.517 477 325.338 477H360.661C378.483 477 389.962 459.051 384.727 443Z" fill="#6CCC74"/>
<defs>
<linearGradient id="paint0_linear_58_1143" x1="0" y1="114" x2="730" y2="114" gradientUnits="userSpaceOnUse">
<stop stop-color="#89C56E"/>
<stop offset="1" stop-color="#CAE06A"/>
</linearGradient>
<linearGradient id="paint1_linear_58_1143" x1="-206.988" y1="-100.778" x2="923.586" y2="802.552" gradientUnits="userSpaceOnUse">
<stop stop-color="#F4F269"/>
<stop offset="1" stop-color="#5CB270"/>
</linearGradient>
<linearGradient id="paint2_linear_58_1143" x1="0" y1="0.5" x2="575.22" y2="0.5" gradientUnits="userSpaceOnUse">
<stop stop-color="#5CB270"/>
<stop offset="1" stop-color="#F4F269"/>
</linearGradient>
</defs>
</svg>
