<svg xmlns="http://www.w3.org/2000/svg" width="730" height="609" viewBox="0 0 730 609" fill="none">
<path d="M657 76H328.5L255.5 0H73C32.85 0 0 34.2 0 76V228H730V152C730 110.2 697.15 76 657 76Z" fill="#7FB1FF"/>
<path d="M657 76H73C32.85 76 0 110.264 0 152.143V532.857C0 574.736 32.85 609 73 609H657C697.15 609 730 574.736 730 532.857V152.143C730 110.264 697.15 76 657 76Z" fill="url(#paint0_linear_35_221)"/>
<line x1="14.5" y1="-14.5" x2="560.72" y2="-14.5" transform="matrix(0.999976 0.00694526 -0.00716545 0.999974 55.7734 179.865)" stroke="url(#paint1_linear_35_221)" stroke-width="29" stroke-linecap="round"/>
<path d="M657 76H328.5L255.5 0H73C32.85 0 0 34.2 0 76V228H730V152C730 110.2 697.15 76 657 76Z" fill="#7FB1FF"/>
<path d="M657 76H73C32.85 76 0 110.264 0 152.143V532.857C0 574.736 32.85 609 73 609H657C697.15 609 730 574.736 730 532.857V152.143C730 110.264 697.15 76 657 76Z" fill="url(#paint2_linear_35_221)"/>
<line x1="14.5" y1="-14.5" x2="560.72" y2="-14.5" transform="matrix(0.999976 0.00694526 -0.00716545 0.999974 55.7734 179.865)" stroke="url(#paint3_linear_35_221)" stroke-width="29" stroke-linecap="round"/>
<path fill-rule="evenodd" clip-rule="evenodd" d="M308.263 267C308.508 267 308.753 267 309 267H421.737C431.666 266.999 440.22 266.999 447.071 267.919C454.413 268.905 461.451 271.128 467.158 276.83C472.867 282.532 475.093 289.562 476.08 296.895C477.001 303.738 477.001 312.284 477 322.201V390.799C477.001 400.716 477.001 409.261 476.08 416.105C475.093 423.438 472.867 430.468 467.158 436.169C461.451 441.872 454.413 444.095 447.071 445.081C440.22 446.001 431.666 446.001 421.737 446H308.263C298.334 446.001 289.779 446.001 282.929 445.081C275.587 444.095 268.55 441.872 262.841 436.169C257.133 430.468 254.907 423.438 253.92 416.105C252.999 409.261 252.999 400.716 253 390.799V322.937C253 322.691 253 322.446 253 322.201C252.999 312.284 252.999 303.738 253.92 296.895C254.907 289.562 257.133 282.532 262.841 276.83C268.55 271.128 275.587 268.905 282.929 267.919C289.779 266.999 298.334 266.999 308.263 267ZM275.4 390.062C275.4 383.884 280.414 378.875 286.6 378.875H443.4C449.586 378.875 454.6 383.884 454.6 390.062C454.6 396.241 449.586 401.25 443.4 401.25H286.6C280.414 401.25 275.4 396.241 275.4 390.062Z" fill="#406CFE"/>
<path d="M406.727 457H323.272C318.038 473.051 329.517 491 347.338 491H382.661C400.483 491 411.962 473.051 406.727 457Z" fill="#406CFE"/>
<defs>
<linearGradient id="paint0_linear_35_221" x1="-206.988" y1="-100.778" x2="923.586" y2="802.552" gradientUnits="userSpaceOnUse">
<stop stop-color="#80B8FF"/>
<stop offset="1" stop-color="#3274FF"/>
</linearGradient>
<linearGradient id="paint1_linear_35_221" x1="0" y1="0.5" x2="575.22" y2="0.5" gradientUnits="userSpaceOnUse">
<stop stop-color="#4E8BFF"/>
<stop offset="1" stop-color="#6DA7FF"/>
</linearGradient>
<linearGradient id="paint2_linear_35_221" x1="-206.988" y1="-100.778" x2="923.586" y2="802.552" gradientUnits="userSpaceOnUse">
<stop stop-color="#80B8FF"/>
<stop offset="1" stop-color="#3274FF"/>
</linearGradient>
<linearGradient id="paint3_linear_35_221" x1="0" y1="0.5" x2="575.22" y2="0.5" gradientUnits="userSpaceOnUse">
<stop stop-color="#4E8BFF"/>
<stop offset="1" stop-color="#6DA7FF"/>
</linearGradient>
</defs>
</svg>